<?xml version="1.0" standalone="no"?>
<!DOCTYPE svg PUBLIC "-//W3C//DTD SVG 1.1//EN" "http://www.w3.org/Graphics/SVG/1.1/DTD/svg11.dtd" >
<svg>
<metadata>
Created by FontForge 20120731 at Tue Oct 25 00:36:18 2016
 By ,,,
Copyright (c) Mark Simonson, 2005. All rights reserved.
</metadata>
<defs>
<font id="ProximaNovaS-Bold" horiz-adv-x="579" >
  <font-face 
    font-family="Proxima Nova S"
    font-weight="700"
    font-stretch="normal"
    units-per-em="1000"
    panose-1="2 0 5 6 3 0 0 2 0 4"
    ascent="790"
    descent="-210"
    x-height="550"
    cap-height="667"
    bbox="-204 -337 1196 929"
    underline-thickness="20"
    underline-position="-113"
    unicode-range="U+000D-FB04"
  />
<missing-glyph horiz-adv-x="483" 
d="M66 -90v842h351v-842h-351zM385 722h-288v-782h288v782z" />
    <glyph glyph-name="f_f_j" unicode="ffj" horiz-adv-x="907" 
d="M780 545q-31 0 -53.5 22.5t-22.5 53.5t22.5 53.5t53.5 22.5q32 0 54 -22.5t22 -53.5t-22 -53.5t-54 -22.5zM91 0v372h-80v111h80v26q0 77 45.5 122.5t117.5 45.5q54 0 92 -20l-26 -90q-16 10 -41 10q-28 0 -44 -18t-16 -52v-24h98v-111h-98v-372h-128zM418 0v372h-80v111
h80v26q0 77 45 122.5t118 45.5q54 0 92 -20l-26 -92q-17 12 -41 12q-28 0 -44 -18t-16 -50v-26h98v-111h-98v-372h-128zM844 483v-496q0 -85 -43.5 -134t-128.5 -49q-30 0 -55 5l8 104q13 -3 28 -3q29 0 46.5 19t17.5 58v496h127z" />
    <glyph glyph-name="f_j" unicode="fj" horiz-adv-x="580" 
d="M453 545q-31 0 -53.5 22.5t-22.5 53.5t22.5 53.5t53.5 22.5t53.5 -22.5t22.5 -53.5t-22.5 -53.5t-53.5 -22.5zM91 0v372h-80v111h80v26q0 77 45.5 122.5t117.5 45.5q54 0 92 -20l-26 -92q-17 12 -41 12q-28 0 -44 -18t-16 -50v-26h98v-111h-98v-372h-128zM517 483v-496
q0 -85 -43.5 -134t-128.5 -49q-30 0 -55 5l8 104q14 -3 28 -3q29 0 46.5 19t17.5 58v496h127z" />
    <glyph glyph-name="f_f" unicode="ff" horiz-adv-x="654" 
d="M91 0v372h-80v111h80v26q0 77 45.5 122.5t117.5 45.5q54 0 92 -20l-26 -90q-16 10 -41 10q-28 0 -44 -18t-16 -52v-24h98v-111h-98v-372h-128zM418 0v372h-80v111h80v26q0 77 45 122.5t118 45.5q54 0 92 -20l-26 -90q-16 10 -41 10q-28 0 -44 -18t-16 -52v-24h98v-111
h-98v-372h-128z" />
    <glyph glyph-name="fi" unicode="fi" horiz-adv-x="766" 
d="M63 0v550h415v-111h-283v-104h277v-112h-277v-223h-132zM572 0v550h132v-550h-132z" />
    <glyph glyph-name="fl" unicode="fl" horiz-adv-x="977" 
d="M63 0v550h415v-111h-283v-104h277v-112h-277v-223h-132zM572 0v550h132v-435h242v-115h-374z" />
    <glyph glyph-name="f_f_i" unicode="ffi" horiz-adv-x="907" 
d="M780 545q-31 0 -53.5 22.5t-22.5 53.5t22.5 53.5t53.5 22.5q32 0 54 -22.5t22 -53.5t-22 -53.5t-54 -22.5zM91 0v372h-80v111h80v26q0 77 45.5 122.5t117.5 45.5q54 0 92 -20l-26 -90q-16 10 -41 10q-28 0 -44 -18t-16 -52v-24h98v-111h-98v-372h-128zM418 0v372h-80v111
h80v26q0 77 45 122.5t118 45.5q54 0 92 -20l-26 -92q-17 12 -41 12q-28 0 -44 -18t-16 -50v-26h98v-111h-98v-372h-128zM717 0v483h127v-483h-127z" />
    <glyph glyph-name="f_f_l" unicode="ffl" horiz-adv-x="907" 
d="M91 0v372h-80v111h80v26q0 77 45.5 122.5t117.5 45.5q54 0 92 -20l-26 -90q-16 10 -41 10q-28 0 -44 -18t-16 -52v-24h98v-111h-98v-372h-128zM418 0v372h-80v111h80v26q0 77 45 122.5t118 45.5q54 0 92 -20l-26 -92q-17 12 -41 12q-28 0 -44 -18t-16 -50v-26h98v-111
h-98v-372h-128zM717 0v667h127v-667h-127z" />
    <glyph glyph-name="f_b" unicode="fb" horiz-adv-x="912" 
d="M91 0v372h-80v111h80v26q0 77 45.5 122.5t117.5 45.5q54 0 92 -20l-26 -92q-17 12 -41 12q-28 0 -44 -18t-16 -50v-26h98v-111h-98v-372h-128zM390 0v667h127v-246q57 74 149 74q94 0 154 -69t60 -185q0 -118 -60 -185.5t-154 -67.5q-90 0 -149 73v-61h-127zM517 155
q16 -23 47 -38.5t62 -15.5q55 0 89 38.5t34 101.5t-34 102t-89 39q-31 0 -62 -16t-47 -40v-171z" />
    <glyph glyph-name="f_h" unicode="fh" horiz-adv-x="907" 
d="M91 0v372h-80v111h80v26q0 77 45.5 122.5t117.5 45.5q54 0 92 -20l-26 -92q-17 12 -41 12q-28 0 -44 -18t-16 -50v-26h98v-111h-98v-372h-128zM717 0v294q0 48 -23 68t-67 20q-67 0 -110 -57v-325h-127v667h127v-247q26 31 70.5 53t99.5 22q78 0 117.5 -40t39.5 -112
v-343h-127z" />
    <glyph glyph-name="f_k" unicode="fk" horiz-adv-x="862" 
d="M91 0v372h-80v111h80v26q0 77 45.5 122.5t117.5 45.5q54 0 92 -20l-26 -92q-17 12 -41 12q-28 0 -44 -18t-16 -50v-26h98v-111h-98v-372h-128zM703 0l-128 186l-58 -62v-124h-127v667h127v-399l183 215h156l-191 -219l197 -264h-159z" />
    <glyph glyph-name=".notdef" horiz-adv-x="483" 
d="M66 -90v842h351v-842h-351zM385 722h-288v-782h288v782z" />
    <glyph glyph-name=".null" horiz-adv-x="0" 
 />
    <glyph glyph-name="nonmarkingreturn" horiz-adv-x="333" 
 />
    <glyph glyph-name="NULL" horiz-adv-x="0" 
 />
    <glyph glyph-name="NULL" horiz-adv-x="0" 
 />
    <glyph glyph-name="CR" unicode="&#xd;" horiz-adv-x="0" 
 />
    <glyph glyph-name="space" unicode=" " horiz-adv-x="256" 
 />
    <glyph glyph-name="exclam" unicode="!" horiz-adv-x="239" 
d="M172 205h-103l-19 345h139zM120 -11q-33 0 -57 24t-24 57q0 32 24 56t57 24t56.5 -24t23.5 -56q0 -33 -23.5 -57t-56.5 -24z" />
    <glyph glyph-name="quotedbl" unicode="&#x22;" horiz-adv-x="406" 
d="M85 375q-41 214 -41 233q0 28 20 48.5t49 20.5q28 0 48.5 -20.5t20.5 -48.5l-41 -233h-56zM266 375q-41 214 -41 233q0 28 20.5 48.5t48.5 20.5t48 -20t20 -49l-41 -233h-55z" />
    <glyph glyph-name="numbersign" unicode="#" horiz-adv-x="517" 
d="M479 333h-79l-39 -113h81l-22 -70h-82l-50 -150h-85l50 150h-76l-49 -150h-85l49 150h-75l21 70h79l38 113h-79l21 69h81l50 148h85l-51 -148h76l51 148h85l-51 -148h77zM239 333l-38 -113h75l38 113h-75z" />
    <glyph glyph-name="dollar" unicode="$" horiz-adv-x="516" 
d="M493 165q0 -71 -47.5 -117t-136.5 -57v-65h-93v64q-125 10 -198 81l60 99q55 -53 138 -68v125q-38 8 -65.5 18.5t-56 28.5t-43.5 47.5t-15 69.5q0 63 49.5 110.5t130.5 57.5v69h93v-70q102 -12 172 -75l-62 -92q-45 40 -110 53v-109q39 -9 67 -19.5t57 -29.5t44.5 -49.5
t15.5 -71.5zM170 396q0 -27 58 -44v97q-27 -5 -42.5 -19.5t-15.5 -33.5zM294 101q64 12 64 57q0 19 -16 30.5t-48 20.5v-108z" />
    <glyph glyph-name="percent" unicode="%" horiz-adv-x="613" 
d="M159 286q-60 0 -97.5 39t-37.5 98t37.5 99t97.5 40t98 -40t38 -99t-37.5 -98t-98.5 -39zM150 0h-71l383 550h72zM159 496q-25 0 -41.5 -20t-16.5 -53q0 -31 16.5 -51t41.5 -20q26 0 43 20t17 51q0 33 -17 53t-43 20zM453 -10q-60 0 -97.5 39t-37.5 98t37.5 99t97.5 40
q61 0 98.5 -39.5t37.5 -99.5q0 -59 -37.5 -98t-98.5 -39zM453 199q-26 0 -42.5 -19.5t-16.5 -52.5q0 -32 16.5 -51.5t42.5 -19.5t42.5 19.5t16.5 51.5q0 33 -16.5 52.5t-42.5 19.5z" />
    <glyph glyph-name="ampersand" unicode="&#x26;" horiz-adv-x="567" 
d="M561 0h-148q-2 2 -43 40q-72 -51 -157 -51t-139 43t-54 120q0 57 33 94t90 65q-36 63 -36 115q0 58 47.5 97t118.5 39q65 0 109.5 -32.5t44.5 -87.5q0 -57 -36.5 -90t-102.5 -62q28 -34 47 -55q5 -6 21.5 -25t25.5 -28q34 52 51 106l92 -41q-36 -80 -79 -133
q31 -32 115 -114zM219 424q0 -30 24 -70q41 18 62.5 37t21.5 45q0 21 -14 33t-35 12q-26 0 -42.5 -16.5t-16.5 -40.5zM142 161q0 -37 24.5 -60.5t61.5 -23.5q41 0 79 27q-39 40 -60 67q-34 39 -57 70q-48 -31 -48 -80z" />
    <glyph glyph-name="quotesingle" unicode="'" horiz-adv-x="225" 
d="M85 375q-41 214 -41 233q0 28 20 48.5t49 20.5q28 0 48.5 -20.5t20.5 -48.5l-41 -233h-56z" />
    <glyph glyph-name="parenleft" unicode="(" horiz-adv-x="297" 
d="M199 -199q-73 82 -115.5 201.5t-42.5 240.5t42.5 240.5t115.5 201.5l80 -60q-52 -95 -76.5 -184t-24.5 -198t24.5 -198t76.5 -182z" />
    <glyph glyph-name="parenright" unicode=")" horiz-adv-x="297" 
d="M119 243q0 110 -24.5 199t-77.5 183l80 60q74 -83 117 -202t43 -240t-43.5 -240.5t-116.5 -201.5l-80 62q53 92 77.5 181t24.5 199z" />
    <glyph glyph-name="asterisk" unicode="*" horiz-adv-x="351" 
d="M144 366l5 110l-93 -59l-31 54l97 50l-97 50l31 55l93 -59l-5 110h63l-5 -110l92 59l32 -55l-97 -50l97 -50l-32 -54l-92 59l5 -110h-63z" />
    <glyph glyph-name="plus" unicode="+" horiz-adv-x="504" 
d="M296 298v-203h-87v203h-180v79h180v195h87v-195h179v-79h-179z" />
    <glyph glyph-name="comma" unicode="," horiz-adv-x="256" 
d="M112 -137l-55 45q25 13 48 40.5t29 52.5q-9 -3 -19 -3q-29 0 -48.5 20.5t-19.5 52.5q0 33 23 56.5t55 23.5q37 0 63.5 -27.5t26.5 -74.5q0 -55 -28 -103.5t-75 -82.5z" />
    <glyph glyph-name="hyphen" unicode="-" horiz-adv-x="300" 
d="M30 188v108h240v-108h-240z" />
    <glyph glyph-name="period" unicode="." horiz-adv-x="256" 
d="M47 70q0 33 24 57t57 24t57 -24t24 -57t-24 -57t-57 -24t-57 24t-24 57z" />
    <glyph glyph-name="slash" unicode="/" horiz-adv-x="329" 
d="M0 -20l237 707h92l-237 -707h-92z" />
    <glyph glyph-name="zero" unicode="0" horiz-adv-x="620" 
d="M310 -12q-134 0 -205 83t-71 204q0 122 71 204.5t205 82.5t205 -82.5t71 -204.5q0 -121 -71 -204t-205 -83zM310 436q-63 0 -97.5 -45.5t-34.5 -115.5t34.5 -115.5t97.5 -45.5t97 45.5t34 115.5t-34 115.5t-97 45.5z" />
    <glyph glyph-name="one" unicode="1" horiz-adv-x="411" 
d="M203 0v367l-111 -113l-81 85l210 211h124v-550h-142z" />
    <glyph glyph-name="two" unicode="2" horiz-adv-x="582" 
d="M50 0v112q177 60 257 123.5t80 119.5q0 36 -29 58.5t-72 22.5q-105 0 -177 -77l-81 94q47 54 116.5 81.5t143.5 27.5q111 0 177 -50t66 -133q0 -75 -66 -145.5t-159 -108.5h213v-125h-469z" />
    <glyph glyph-name="three" unicode="3" horiz-adv-x="587" 
d="M12 -21l74 93q34 -36 84.5 -56.5t99.5 -20.5q59 0 92.5 24t33.5 63q0 41 -32.5 60t-101.5 19q-73 0 -83 -1v124q12 -1 83 -1q57 0 90 18.5t33 55.5q0 38 -34.5 59t-89.5 21q-97 0 -170 -70l-70 88q94 106 255 106q117 0 184.5 -49t67.5 -132q0 -60 -43 -100.5t-103 -51.5
q59 -6 107.5 -48.5t48.5 -111.5q0 -87 -72 -141.5t-191 -54.5q-88 0 -156 29.5t-107 77.5z" />
    <glyph glyph-name="four" unicode="4" horiz-adv-x="597" 
d="M486 27v-144h-142v144h-319v113l265 410h196v-398h86v-125h-86zM344 424l-180 -272h180v272z" />
    <glyph glyph-name="five" unicode="5" horiz-adv-x="608" 
d="M49 -29l78 96q71 -73 178 -73q57 0 90.5 29t33.5 72q0 46 -32 74t-88 28q-82 0 -140 -55l-99 27v381h458v-122h-319v-167q62 55 150 55q89 0 151.5 -58.5t62.5 -156.5q0 -105 -73 -167.5t-194 -62.5q-165 0 -257 100z" />
    <glyph glyph-name="six" unicode="6" horiz-adv-x="608" 
d="M34 332q0 155 83 250t228 95q116 0 197 -69l-64 -107q-56 53 -133 53q-74 0 -120.5 -56t-46.5 -137q0 -10 1 -14q25 36 72 60.5t99 24.5q96 0 161.5 -56.5t65.5 -158.5q0 -99 -71 -164t-184 -65q-144 0 -216 96t-72 248zM433 211q0 51 -35.5 77t-88.5 26q-77 0 -130 -64
q5 -56 38.5 -97t97.5 -41q54 0 86 30t32 69z" />
    <glyph glyph-name="seven" unicode="7" horiz-adv-x="545" 
d="M121 -117l239 542h-336v125h501v-99l-248 -568h-156z" />
    <glyph glyph-name="eight" unicode="8" horiz-adv-x="606" 
d="M35 173q0 58 40 103.5t103 67.5q-132 46 -132 157q0 87 76.5 131.5t180.5 44.5q66 0 122 -17t95.5 -58.5t39.5 -100.5q0 -110 -133 -157q63 -22 103.5 -67.5t40.5 -103.5q0 -88 -78 -136.5t-190 -48.5q-113 0 -190.5 48t-77.5 137zM415 479q0 35 -31 55.5t-81 20.5
t-81.5 -20.5t-31.5 -55.5t36 -55t77 -26q41 6 76.5 26t35.5 55zM427 190q0 27 -23.5 48t-50 30.5t-50.5 12.5q-42 -5 -83 -28.5t-41 -62.5q0 -36 35 -58t89 -22q52 0 88 22t36 58z" />
    <glyph glyph-name="nine" unicode="9" horiz-adv-x="608" 
d="M67 -58l63 106q57 -52 133 -52q77 0 122 56.5t45 136.5v14q-26 -36 -73 -61t-99 -25q-96 0 -162 57t-66 159q0 99 71.5 164t184.5 65q97 0 163.5 -48t95 -123.5t28.5 -173.5q0 -154 -82.5 -249t-227.5 -95q-119 0 -196 69zM428 299q-4 57 -37.5 98.5t-98.5 41.5
q-54 0 -85.5 -30.5t-31.5 -69.5q0 -50 35.5 -76t87.5 -26q81 0 130 62z" />
    <glyph glyph-name="colon" unicode=":" horiz-adv-x="251" 
d="M47 409q0 33 24 57t57 24t57 -24t24 -57t-24 -57t-57 -24t-57 24t-24 57zM47 70q0 33 24 57t57 24t57 -24t24 -57t-24 -57t-57 -24t-57 24t-24 57z" />
    <glyph glyph-name="semicolon" unicode=";" horiz-adv-x="256" 
d="M128 328q-33 0 -57 24.5t-24 56.5q0 33 24 57t57 24t57 -24t24 -57q0 -32 -24 -56.5t-57 -24.5zM112 -137l-55 45q25 14 48 41.5t29 53.5q-6 -4 -19 -4q-29 0 -48.5 20.5t-19.5 51.5q0 33 23 56.5t55 23.5q37 0 63.5 -27.5t26.5 -74.5q0 -55 -28 -103.5t-75 -82.5z" />
    <glyph glyph-name="less" unicode="&#x3c;" horiz-adv-x="504" 
d="M29 289v91l446 200v-94l-355 -152l355 -150v-94z" />
    <glyph glyph-name="equal" unicode="=" horiz-adv-x="504" 
d="M29 388v80h446v-80h-446zM29 201v78h446v-78h-446z" />
    <glyph glyph-name="greater" unicode="&#x3e;" horiz-adv-x="504" 
d="M29 90v94l355 150l-355 152v94l446 -200v-91z" />
    <glyph glyph-name="question" unicode="?" horiz-adv-x="396" 
d="M290 310q-19 -12 -28 -19t-17 -18t-8 -22q0 -20 18 -34l-101 -28q-27 26 -27 65q0 24 13 44.5t26 30.5t36 24q17 11 25 17t16 16.5t8 21.5q0 19 -17 31t-49 12q-72 0 -118 -53l-62 80q72 83 193 83q83 0 133 -35.5t50 -89.5q0 -31 -16 -57.5t-31.5 -38.5t-43.5 -30z
M196 -11q-33 0 -57 24t-24 57t24 57t57 24t57 -24t24 -57t-24 -57t-57 -24z" />
    <glyph glyph-name="at" unicode="@" horiz-adv-x="783" 
d="M35 244q0 104 55.5 195.5t147.5 145t194 53.5q140 0 227.5 -89t87.5 -217q0 -116 -62 -181.5t-136 -65.5q-42 0 -67 21.5t-30 52.5l-1 6q-26 -37 -65 -58.5t-79 -21.5q-71 0 -113 47t-42 121q0 99 69 172t157 73q43 0 75.5 -18.5t49.5 -48.5l11 53h113l-51 -244
q-3 -18 -3 -24q0 -45 37 -45q35 0 64.5 41.5t29.5 119.5q0 119 -75.5 193t-200.5 74q-142 0 -248 -106.5t-106 -246.5q0 -118 80.5 -198t201.5 -80q96 0 183 55l21 -30q-98 -63 -208 -63q-136 0 -226.5 90.5t-90.5 223.5zM462 240l25 117q-25 51 -81 51q-58 0 -98 -44
t-40 -101q0 -39 22.5 -63.5t60.5 -24.5q63 0 111 65z" />
    <glyph glyph-name="A" unicode="A" horiz-adv-x="684" 
d="M533 0l-42 115h-298l-42 -115h-156l258 667h178l257 -667h-155zM342 544l-111 -306h221z" />
    <glyph glyph-name="B" unicode="B" horiz-adv-x="663" 
d="M66 0v667h351q91 0 141.5 -49.5t50.5 -120.5q0 -61 -33 -102t-82 -51q54 -8 91 -55t37 -109q0 -78 -51 -129t-143 -51h-362zM208 399h178q36 0 57 20.5t21 53.5q0 31 -21.5 52t-56.5 21h-178v-147zM208 121h183q40 0 63 21.5t23 57.5q0 33 -23 55.5t-63 22.5h-183v-157z
" />
    <glyph glyph-name="C" unicode="C" horiz-adv-x="687" 
d="M384 -12q-149 0 -249.5 96.5t-100.5 248.5t100.5 248.5t249.5 96.5q192 0 284 -163l-122 -60q-22 42 -65.5 69.5t-96.5 27.5q-87 0 -145.5 -62.5t-58.5 -156.5t58.5 -156.5t145.5 -62.5q54 0 97 27t65 70l122 -59q-95 -164 -284 -164z" />
    <glyph glyph-name="D" unicode="D" horiz-adv-x="718" 
d="M66 0v667h263q157 0 255.5 -92t98.5 -242t-98 -241.5t-256 -91.5h-263zM208 125h121q96 0 152.5 60t56.5 148q0 92 -55 150.5t-154 58.5h-121v-417z" />
    <glyph glyph-name="E" unicode="E" horiz-adv-x="583" 
d="M66 0v667h472v-122h-330v-145h323v-122h-323v-155h330v-123h-472z" />
    <glyph glyph-name="F" unicode="F" horiz-adv-x="571" 
d="M66 0v667h472v-122h-330v-145h323v-122h-323v-278h-142z" />
    <glyph glyph-name="G" unicode="G" horiz-adv-x="720" 
d="M34 333q0 155 102.5 250t252.5 95q182 0 276 -146l-118 -64q-25 37 -66.5 60.5t-91.5 23.5q-91 0 -150 -62t-59 -157t59 -157t150 -62q87 0 144 51v81h-178v122h318v-255q-113 -126 -284 -126q-150 0 -252.5 96t-102.5 250z" />
    <glyph glyph-name="H" unicode="H" horiz-adv-x="731" 
d="M523 0v280h-315v-280h-142v667h142v-262h315v262h143v-667h-143z" />
    <glyph glyph-name="I" unicode="I" horiz-adv-x="274" 
d="M66 0v667h142v-667h-142z" />
    <glyph glyph-name="J" unicode="J" horiz-adv-x="486" 
d="M6 53l62 109q50 -48 106 -48q47 0 75.5 29t28.5 78v446h142v-448q0 -114 -64 -172.5t-171 -58.5q-113 0 -179 65z" />
    <glyph glyph-name="K" unicode="K" horiz-adv-x="636" 
d="M462 0l-202 267l-52 -62v-205h-142v667h142v-298l236 298h175l-265 -313l283 -354h-175z" />
    <glyph glyph-name="L" unicode="L" horiz-adv-x="523" 
d="M66 0v667h142v-542h282v-125h-424z" />
    <glyph glyph-name="M" unicode="M" horiz-adv-x="855" 
d="M646 0v480l-188 -480h-62l-188 480v-480h-142v667h199l162 -416l162 416h200v-667h-143z" />
    <glyph glyph-name="N" unicode="N" horiz-adv-x="729" 
d="M526 0l-318 448v-448h-142v667h146l309 -432v432h142v-667h-137z" />
    <glyph glyph-name="O" unicode="O" horiz-adv-x="765" 
d="M34 333q0 150 98.5 247.5t249.5 97.5q152 0 250.5 -97t98.5 -248t-98.5 -248t-250.5 -97q-151 0 -249.5 97.5t-98.5 247.5zM585 333q0 95 -56 157t-147 62t-146.5 -62t-55.5 -157t55.5 -157t146.5 -62t147 62t56 157z" />
    <glyph glyph-name="P" unicode="P" horiz-adv-x="624" 
d="M66 0v667h312q105 0 164.5 -61.5t59.5 -153.5q0 -91 -60 -152t-164 -61h-170v-239h-142zM457 453q0 41 -28 66.5t-70 25.5h-151v-184h151q43 0 70.5 25.5t27.5 66.5z" />
    <glyph glyph-name="Q" unicode="Q" horiz-adv-x="765" 
d="M731 333q0 -138 -87 -236l49 -57l-99 -81l-53 63q-73 -34 -159 -34q-151 0 -249.5 97.5t-98.5 247.5t98.5 247.5t249.5 97.5q152 0 250.5 -97t98.5 -248zM382 114q38 0 70 12l-76 89l99 80l76 -89q34 54 34 127q0 95 -56 157t-147 62t-146.5 -62t-55.5 -157t55.5 -157
t146.5 -62z" />
    <glyph glyph-name="R" unicode="R" horiz-adv-x="643" 
d="M443 0l-131 239h-104v-239h-142v667h312q103 0 163.5 -60t60.5 -155q0 -82 -42.5 -133t-103.5 -65l150 -254h-163zM457 453q0 41 -28.5 66.5t-71.5 25.5h-149v-184h149q43 0 71.5 25.5t28.5 66.5z" />
    <glyph glyph-name="S" unicode="S" horiz-adv-x="600" 
d="M21 94l77 108q86 -90 212 -90q55 0 85.5 22t30.5 53q0 34 -33 51.5t-102 33.5q-34 8 -49 11.5t-47 13.5t-48.5 19t-40 25t-35 34t-20.5 44t-9 57q0 86 69 143.5t184 57.5q159 0 260 -93l-79 -104q-79 73 -191 73q-47 0 -72.5 -18.5t-25.5 -49.5t31 -45.5t102 -31.5
q31 -7 49 -11.5t48 -14.5t48 -19.5t40.5 -25.5t35 -34t21 -44t8.5 -57q0 -96 -68.5 -155t-198.5 -59q-178 0 -282 106z" />
    <glyph glyph-name="T" unicode="T" horiz-adv-x="582" 
d="M220 0v542h-195v125h532v-125h-194v-542h-143z" />
    <glyph glyph-name="U" unicode="U" horiz-adv-x="728" 
d="M66 266v401h144v-396q0 -72 39.5 -114.5t115.5 -42.5q74 0 113.5 42.5t39.5 114.5v396h144v-400q0 -129 -75 -204t-222 -75q-148 0 -223.5 75t-75.5 203z" />
    <glyph glyph-name="V" unicode="V" horiz-adv-x="684" 
d="M253 0l-258 667h162l185 -513l184 513h162l-257 -667h-178z" />
    <glyph glyph-name="W" unicode="W" horiz-adv-x="918" 
d="M576 0l-117 458l-116 -458h-151l-191 667h159l117 -482l127 482h111l126 -482l116 482h160l-190 -667h-151z" />
    <glyph glyph-name="X" unicode="X" horiz-adv-x="668" 
d="M501 0l-167 244l-168 -244h-169l242 342l-227 325h169l153 -228l151 228h171l-227 -324l242 -343h-170z" />
    <glyph glyph-name="Y" unicode="Y" horiz-adv-x="645" 
d="M252 0v273l-257 394h162l166 -268l164 268h162l-255 -394v-273h-142z" />
    <glyph glyph-name="Z" unicode="Z" horiz-adv-x="592" 
d="M42 0v115l315 427h-315v125h501v-114l-315 -428h322v-125h-508z" />
    <glyph glyph-name="bracketleft" unicode="[" horiz-adv-x="280" 
d="M47 -190v868h216v-85h-125v-698h125v-85h-216z" />
    <glyph glyph-name="backslash" unicode="\" horiz-adv-x="329" 
d="M0 687h92l237 -707h-92z" />
    <glyph glyph-name="bracketright" unicode="]" horiz-adv-x="280" 
d="M17 -190v85h125v698h-125v85h216v-868h-216z" />
    <glyph glyph-name="asciicircum" unicode="^" horiz-adv-x="441" 
d="M328 333l-108 247l-107 -247h-94l156 334h93l154 -334h-94z" />
    <glyph glyph-name="underscore" unicode="_" horiz-adv-x="564" 
d="M-3 -125v85h570v-85h-570z" />
    <glyph glyph-name="grave" unicode="`" horiz-adv-x="251" 
d="M162 556l-162 144h117l134 -144h-89z" />
    <glyph glyph-name="a" unicode="a" horiz-adv-x="597" 
d="M379 550l223 -550h-145l-37 93h-243l-36 -93h-146l223 550h161zM298 432l-84 -227h169z" />
    <glyph glyph-name="b" unicode="b" horiz-adv-x="586" 
d="M63 0v550h306q81 0 125.5 -41t44.5 -100q0 -48 -26.5 -81t-67.5 -44q46 -11 76 -48t30 -87q0 -64 -45.5 -106.5t-126.5 -42.5h-316zM405 388q0 24 -16 38.5t-45 14.5h-149v-107h149q28 0 44.5 15.5t16.5 38.5zM416 167q0 24 -17.5 41.5t-47.5 17.5h-156v-117h156
q30 0 47.5 16t17.5 42z" />
    <glyph glyph-name="c" unicode="c" horiz-adv-x="585" 
d="M32 275q0 126 85 206.5t214 80.5q84 0 144 -39t94 -101l-110 -53q-19 34 -53 55.5t-75 21.5q-71 0 -118 -48.5t-47 -122.5t47 -122.5t118 -48.5q42 0 76.5 21t51.5 55l110 -51q-33 -63 -93.5 -102t-144.5 -39q-129 0 -214 80.5t-85 206.5z" />
    <glyph glyph-name="d" unicode="d" horiz-adv-x="626" 
d="M63 0v550h230q137 0 219 -75.5t82 -200.5q0 -124 -82 -199t-218 -75h-231zM459 274q0 72 -41.5 116.5t-123.5 44.5h-99v-320h98q79 0 122.5 45.5t43.5 113.5z" />
    <glyph glyph-name="e" unicode="e" horiz-adv-x="520" 
d="M63 0v550h415v-111h-283v-103h277v-112h-277v-112h283v-112h-415z" />
    <glyph glyph-name="f" unicode="f" horiz-adv-x="509" 
d="M63 0v550h415v-111h-283v-104h277v-112h-277v-223h-132z" />
    <glyph glyph-name="g" unicode="g" horiz-adv-x="616" 
d="M32 275q0 128 86 207.5t216 79.5q145 0 229 -115l-107 -62q-48 60 -122 60q-73 0 -120 -48t-47 -122t47 -123t120 -49q63 0 109 40v62h-132v103h262v-215q-97 -105 -239 -105q-130 0 -216 79.5t-86 207.5z" />
    <glyph glyph-name="h" unicode="h" horiz-adv-x="651" 
d="M456 0v224h-261v-224h-132v550h132v-211h261v211h132v-550h-132z" />
    <glyph glyph-name="i" unicode="i" horiz-adv-x="258" 
d="M63 0v550h132v-550h-132z" />
    <glyph glyph-name="j" unicode="j" horiz-adv-x="433" 
d="M4 47l53 100q39 -43 90 -43q41 0 65.5 23.5t24.5 63.5v359h133v-370q0 -96 -57 -144t-156 -48q-94 0 -153 59z" />
    <glyph glyph-name="k" unicode="k" horiz-adv-x="566" 
d="M405 0l-170 215l-40 -46v-169h-132v550h132v-233l195 233h160l-230 -259l245 -291h-160z" />
    <glyph glyph-name="l" unicode="l" horiz-adv-x="468" 
d="M63 0v550h132v-435h242v-115h-374z" />
    <glyph glyph-name="m" unicode="m" horiz-adv-x="756" 
d="M562 0v364l-153 -364h-61l-153 364v-364h-132v550h176l139 -334l139 334h177v-550h-132z" />
    <glyph glyph-name="n" unicode="n" horiz-adv-x="648" 
d="M450 0l-255 366v-366h-132v550h142l249 -354v354h132v-550h-136z" />
    <glyph glyph-name="o" unicode="o" horiz-adv-x="655" 
d="M32 275q0 125 82.5 206t212.5 81t212.5 -81t82.5 -206t-82.5 -206t-212.5 -81t-212.5 81t-82.5 206zM488 275q0 74 -44.5 122.5t-116.5 48.5t-116.5 -48.5t-44.5 -122.5q0 -73 44.5 -122t116.5 -49t116.5 49t44.5 122z" />
    <glyph glyph-name="p" unicode="p" horiz-adv-x="554" 
d="M63 0v550h278q90 0 141.5 -51.5t51.5 -127.5q0 -78 -50.5 -129.5t-142.5 -51.5h-146v-190h-132zM399 371q0 29 -20 48.5t-55 19.5h-129v-137h129q36 0 55.5 19t19.5 50z" />
    <glyph glyph-name="q" unicode="q" horiz-adv-x="655" 
d="M622 275q0 -120 -75 -198l41 -47l-79 -64l-44 51q-63 -29 -138 -29q-130 0 -212.5 81t-82.5 206t82.5 206t212.5 81t212.5 -81t82.5 -206zM327 104q31 0 55 9l-58 68l79 64l59 -68q26 41 26 98q0 74 -44.5 122.5t-116.5 48.5t-116.5 -48.5t-44.5 -122.5q0 -73 44.5 -122
t116.5 -49z" />
    <glyph glyph-name="r" unicode="r" horiz-adv-x="573" 
d="M388 0l-110 190h-83v-190h-132v550h278q89 0 141 -51t52 -128q0 -71 -37.5 -115t-89.5 -54l132 -202h-151zM400 371q0 30 -20 49t-56 19h-129v-137h129q36 0 56 19.5t20 49.5z" />
    <glyph glyph-name="s" unicode="s" horiz-adv-x="516" 
d="M18 71l60 99q30 -30 80 -51t102 -21q49 0 73.5 17t24.5 43q0 13 -8 23t-25.5 17.5t-33 11.5t-43.5 10q-29 6 -42 9t-40 11t-41 15.5t-34 21t-30 28.5t-17.5 37.5t-7.5 48.5q0 72 61 121.5t159 49.5q136 0 225 -79l-62 -92q-31 28 -76.5 44t-87.5 16q-39 0 -62 -15.5
t-23 -39.5q0 -11 7 -19.5t25.5 -15.5t31 -10t42.5 -10q37 -8 59 -13.5t56 -19.5t53.5 -30.5t34 -46t14.5 -66.5q0 -81 -62 -129t-175 -48q-76 0 -138 23t-100 60z" />
    <glyph glyph-name="t" unicode="t" horiz-adv-x="486" 
d="M177 0v435h-156v115h445v-115h-157v-435h-132z" />
    <glyph glyph-name="u" unicode="u" horiz-adv-x="646" 
d="M63 218v332h133v-321q0 -57 33.5 -91t93.5 -34t93.5 34t33.5 91v321h133v-331q0 -106 -66 -168.5t-194 -62.5t-194 62t-66 168z" />
    <glyph glyph-name="v" unicode="v" horiz-adv-x="597" 
d="M218 0l-223 550h150l153 -407l156 407h148l-223 -550h-161z" />
    <glyph glyph-name="w" unicode="w" horiz-adv-x="797" 
d="M494 0l-96 358l-95 -358h-138l-166 550h148l95 -376l105 376h103l105 -377l96 377h147l-166 -550h-138z" />
    <glyph glyph-name="x" unicode="x" horiz-adv-x="584" 
d="M433 0l-141 194l-141 -194h-155l209 282l-196 268h155l128 -180l127 180h156l-196 -267l209 -283h-155z" />
    <glyph glyph-name="y" unicode="y" horiz-adv-x="565" 
d="M218 0v226l-223 324h149l140 -213l137 213h149l-221 -324v-226h-131z" />
    <glyph glyph-name="z" unicode="z" horiz-adv-x="523" 
d="M36 0v96l263 338h-263v116h445v-96l-262 -338h269v-116h-452z" />
    <glyph glyph-name="braceleft" unicode="{" horiz-adv-x="288" 
d="M210 -190q-63 0 -109 44t-46 115v172q0 29 -13.5 48t-38.5 19v72q25 0 38.5 19t13.5 48v171q0 71 46 115.5t109 44.5h61v-85h-61q-26 0 -44 -20.5t-18 -53.5v-185q0 -70 -46 -90q46 -20 46 -90v-184q0 -33 18 -54t44 -21h61v-85h-61z" />
    <glyph glyph-name="bar" unicode="|" horiz-adv-x="216" 
d="M66 -20v707h85v-707h-85z" />
    <glyph glyph-name="braceright" unicode="}" horiz-adv-x="288" 
d="M17 -105h61q26 0 44.5 21t18.5 54v184q0 70 46 90q-46 20 -46 90v185q0 33 -18.5 53.5t-44.5 20.5h-61v85h61q63 0 109 -44.5t46 -115.5v-171q0 -29 13.5 -48t38.5 -19v-72q-25 0 -38.5 -19t-13.5 -48v-172q0 -71 -46 -115t-109 -44h-61v85z" />
    <glyph glyph-name="asciitilde" unicode="~" horiz-adv-x="510" 
d="M484 657q-4 -52 -12 -90t-23.5 -76t-44.5 -58.5t-69 -20.5q-27 0 -47.5 9.5t-33 29.5t-19 34.5t-14.5 39.5q-8 23 -12 33t-13 20t-21 10q-48 0 -62 -176l-87 10q4 51 12 89.5t24 76t44.5 58t68.5 20.5q28 0 48 -9.5t33 -29.5t19.5 -35t14.5 -40q8 -24 12 -33t13 -19.5
t20 -10.5q49 0 63 178z" />
    <glyph glyph-name="uni00A0" unicode="&#xa0;" horiz-adv-x="256" 
 />
    <glyph glyph-name="exclamdown" unicode="&#xa1;" horiz-adv-x="239" 
d="M119 561q33 0 57 -24t24 -56q0 -33 -24 -57t-57 -24t-56.5 24t-23.5 57q0 32 23.5 56t56.5 24zM68 345h103l18 -345h-139z" />
    <glyph glyph-name="cent" unicode="&#xa2;" horiz-adv-x="585" 
d="M374 112q58 17 85 68l110 -51q-64 -120 -195 -138v-74h-92v74q-112 16 -181 93t-69 191t69 191t181 93v64h92v-64q130 -18 195 -137l-110 -53q-28 52 -85 69v-326zM166 275q0 -59 32 -103t84 -59v324q-52 -15 -84 -59t-32 -103z" />
    <glyph glyph-name="sterling" unicode="&#xa3;" horiz-adv-x="449" 
d="M389 122l50 -91q-39 -41 -124 -41q-38 0 -81 16t-68 16q-31 0 -91 -29l-42 80q41 18 64.5 42t23.5 49t-19 60h-86v69h46q-28 51 -28 93q0 76 59.5 125.5t138.5 49.5q138 0 192 -97l-98 -52q-24 55 -81 55q-34 0 -57 -23t-23 -60t31 -91h125v-69h-93q4 -12 4 -30
q0 -25 -13 -47.5t-30 -34.5q9 4 20 4q26 0 58.5 -12t51.5 -12q47 0 70 30z" />
    <glyph glyph-name="currency" unicode="&#xa4;" horiz-adv-x="623" 
d="M567 333q0 -77 -41 -140l73 -72l-76 -74l-75 73q-62 -34 -137 -34q-78 0 -138 35l-73 -74l-76 74l73 73q-40 59 -40 139q0 78 40 140l-73 74l75 74l76 -76q59 34 136 34q78 0 137 -34l75 76l76 -75l-73 -73q41 -63 41 -140zM311 200q60 0 94 38t34 95q0 56 -34 94t-94 38
q-59 0 -93 -38t-34 -94t34 -94.5t93 -38.5z" />
    <glyph glyph-name="yen" unicode="&#xa5;" horiz-adv-x="565" 
d="M570 550l-176 -257h144v-68h-189v-50h189v-67h-189v-108h-131v108h-193v67h193v50h-193v68h147l-177 257h149l140 -213l137 213h149z" />
    <glyph glyph-name="brokenbar" unicode="&#xa6;" horiz-adv-x="216" 
d="M66 371v316h85v-316h-85zM66 -20v316h85v-316h-85z" />
    <glyph glyph-name="section" unicode="&#xa7;" horiz-adv-x="484" 
d="M363 198q83 -36 83 -123q0 -73 -58 -114.5t-151 -41.5q-127 0 -214 79l53 80q29 -29 72 -50t89 -21q40 0 63.5 15t23.5 43q0 18 -17 31.5t-34.5 19t-55.5 14.5q-33 8 -50.5 13t-46.5 17t-44 26.5t-27 39t-12 55.5q0 47 29 79t69 46q-98 37 -98 126q0 62 55.5 103.5
t142.5 41.5q124 0 194 -68l-50 -75q-54 54 -139 54q-37 0 -58.5 -14.5t-21.5 -39.5q0 -13 6.5 -21.5t24.5 -15.5t29.5 -10t40.5 -9q33 -7 52 -12t48 -16.5t45 -26.5t28 -40t12 -57q0 -86 -83 -128zM238 374q-43 -10 -60.5 -28t-17.5 -46q0 -32 27 -46.5t76 -25.5
q58 25 58 74q0 53 -83 72z" />
    <glyph glyph-name="dieresis" unicode="&#xa8;" horiz-adv-x="423" 
d="M106 554q-29 0 -48.5 19.5t-19.5 48.5q0 28 20 47.5t48 19.5t47.5 -19.5t19.5 -47.5q0 -29 -19.5 -48.5t-47.5 -19.5zM317 554q-28 0 -48 19.5t-20 48.5q0 28 20 47.5t48 19.5t48 -19.5t20 -47.5q0 -29 -20 -48.5t-48 -19.5z" />
    <glyph glyph-name="copyright" unicode="&#xa9;" horiz-adv-x="778" 
d="M389 -12q-143 0 -244 101t-101 244t101 244t244 101t244 -101t101 -244t-101 -244t-244 -101zM389 642q-127 0 -218 -91t-91 -218t91 -218t218 -91t218 91t91 218t-91 218t-218 91zM543 190q-58 -68 -149 -68q-87 0 -147.5 60.5t-60.5 151.5q0 90 60.5 150t147.5 60
q92 0 148 -66l-31 -31q-42 57 -117 57q-67 0 -114.5 -48t-47.5 -122q0 -73 47.5 -122.5t114.5 -49.5q75 0 118 58z" />
    <glyph glyph-name="ordfeminine" unicode="&#xaa;" horiz-adv-x="385" 
d="M243 326v32q-36 -40 -102 -40q-44 0 -77 27.5t-33 76.5q0 48 33 74.5t77 26.5q68 0 102 -38v40q0 25 -19 39.5t-50 14.5q-53 0 -92 -41l-35 60q59 50 143 50q63 0 104 -29t41 -96v-197h-92zM243 404v36q-21 27 -64 27q-24 0 -40.5 -12t-16.5 -33q0 -22 16.5 -34.5
t40.5 -12.5q43 0 64 29z" />
    <glyph glyph-name="guillemotleft" unicode="&#xab;" horiz-adv-x="527" 
d="M190 63l-160 180l160 177h117l-160 -177l160 -180h-117zM380 63l-160 180l160 177h117l-160 -177l160 -180h-117z" />
    <glyph glyph-name="logicalnot" unicode="&#xac;" horiz-adv-x="515" 
d="M475 201h-81v187h-365v80h446v-267z" />
    <glyph glyph-name="uni00AD" unicode="&#xad;" horiz-adv-x="300" 
d="M30 188v108h240v-108h-240z" />
    <glyph glyph-name="registered" unicode="&#xae;" horiz-adv-x="494" 
d="M247 253q-88 0 -150 62t-62 150t62 150t150 62q89 0 150.5 -61.5t61.5 -150.5q0 -88 -62 -150t-150 -62zM247 645q-75 0 -127.5 -52.5t-52.5 -127.5q0 -74 52.5 -127t127.5 -53q74 0 127 53t53 127q0 75 -53 127.5t-127 52.5zM305 343l-63 96h-42v-96h-34v243h99
q33 0 56 -20.5t23 -53.5q0 -35 -22.5 -53.5t-39.5 -18.5l65 -97h-42zM265 556h-65v-86h65q18 0 31 12t13 30q0 20 -13 32t-31 12z" />
    <glyph glyph-name="macron" unicode="&#xaf;" horiz-adv-x="363" 
d="M14 562v72h335v-72h-335z" />
    <glyph glyph-name="degree" unicode="&#xb0;" horiz-adv-x="311" 
d="M155 407q-56 0 -95.5 39t-39.5 95t39.5 96t95.5 40t95.5 -40t39.5 -96t-39.5 -95t-95.5 -39zM155 608q-28 0 -46.5 -19.5t-18.5 -47.5q0 -27 18.5 -46t46.5 -19q27 0 46.5 19t19.5 46q0 28 -19.5 47.5t-46.5 19.5z" />
    <glyph glyph-name="plusminus" unicode="&#xb1;" horiz-adv-x="504" 
d="M296 326v-204h-87v204h-180v78h180v197h87v-197h179v-78h-179zM29 0v78h446v-78h-446z" />
    <glyph glyph-name="uni00B2" unicode="&#xb2;" horiz-adv-x="397" 
d="M46 421v70q131 92 173.5 131.5t42.5 72.5q0 27 -19 41t-49 14q-33 0 -63 -15t-46 -35l-50 61q59 66 161 66q71 0 116 -33t45 -92q0 -47 -40.5 -93.5t-131.5 -110.5h175v-77h-314z" />
    <glyph glyph-name="uni00B3" unicode="&#xb3;" horiz-adv-x="397" 
d="M197 414q-111 0 -165 63l47 63q46 -49 114 -49q35 0 54.5 13t19.5 34q0 49 -88 49q-39 0 -45 -1v76q9 -1 44 -1q82 0 82 45q0 44 -73 44q-61 0 -105 -44l-45 57q59 64 160 64q75 0 117 -29.5t42 -79.5q0 -35 -26 -60t-63 -31q35 -3 65.5 -28.5t30.5 -66.5
q0 -53 -45.5 -85.5t-120.5 -32.5z" />
    <glyph glyph-name="acute" unicode="&#xb4;" horiz-adv-x="251" 
d="M89 556h-89l134 144h117z" />
    <glyph glyph-name="uni00B5" unicode="&#xb5;" horiz-adv-x="593" 
d="M190 -184h-127v667h127v-293q0 -90 90 -90q65 0 109 56v327h127v-338q0 -21 11 -32.5t29 -11.5q9 0 19 2l9 -108q-26 -7 -59 -7q-104 0 -130 86q-22 -38 -57.5 -62t-77.5 -24q-49 0 -70 28v-200z" />
    <glyph glyph-name="paragraph" unicode="&#xb6;" horiz-adv-x="449" 
d="M340 -100v705h-78v-705h-63v423q-71 0 -121.5 50.5t-50.5 121.5t50.5 121.5t121.5 50.5h204v-767h-63z" />
    <glyph glyph-name="periodcentered" unicode="&#xb7;" horiz-adv-x="256" 
d="M128 164q-33 0 -57 24t-24 56q0 33 24 57t57 24t57 -24t24 -57q0 -32 -24 -56t-57 -24z" />
    <glyph glyph-name="cedilla" unicode="&#xb8;" horiz-adv-x="221" 
d="M0 -164l25 51q38 -29 81 -29q22 0 37 9t15 25q0 25 -29 25q-18 0 -32 -14l-46 26l30 82h63l-26 -62q17 10 36 10q28 0 47.5 -19.5t19.5 -49.5q0 -39 -32 -62.5t-79 -23.5q-70 0 -110 32z" />
    <glyph glyph-name="uni00B9" unicode="&#xb9;" horiz-adv-x="286" 
d="M129 421v277l-68 -69l-54 58l136 134h83v-400h-97z" />
    <glyph glyph-name="ordmasculine" unicode="&#xba;" horiz-adv-x="405" 
d="M30 483q0 69 47.5 117t124.5 48q78 0 125.5 -48t47.5 -117t-47.5 -117t-125.5 -48q-77 0 -124.5 48t-47.5 117zM280 483q0 41 -20.5 65t-57.5 24q-36 0 -56.5 -23.5t-20.5 -65.5t20.5 -66.5t56.5 -24.5t57 24.5t21 66.5z" />
    <glyph glyph-name="guillemotright" unicode="&#xbb;" horiz-adv-x="527" 
d="M147 63h-117l160 180l-160 177h117l160 -177zM337 63h-117l160 180l-160 177h117l160 -177z" />
    <glyph glyph-name="onequarter" unicode="&#xbc;" horiz-adv-x="810" 
d="M129 267v277l-68 -69l-54 58l136 134h83v-400h-97zM208 0h-76l426 667h77zM733 86v-86h-95v86h-196v65l158 249h133v-239h53v-75h-53zM638 319l-101 -158h101v158z" />
    <glyph glyph-name="onehalf" unicode="&#xbd;" horiz-adv-x="860" 
d="M129 267v277l-68 -69l-54 58l136 134h83v-400h-97zM208 0h-76l426 667h77zM509 0v70q131 92 173.5 131.5t42.5 72.5q0 27 -19 41t-49 14q-33 0 -63 -15t-46 -35l-50 61q59 66 161 66q71 0 116 -33t45 -92q0 -47 -40.5 -93.5t-131.5 -110.5h175v-77h-314z" />
    <glyph glyph-name="threequarters" unicode="&#xbe;" horiz-adv-x="903" 
d="M197 260q-111 0 -165 63l47 63q46 -49 114 -49q35 0 54.5 13t19.5 34q0 49 -88 49q-39 0 -45 -1v76q9 -1 44 -1q82 0 82 45q0 44 -73 44q-61 0 -105 -44l-45 57q59 64 160 64q75 0 117 -29.5t42 -79.5q0 -35 -26 -60t-63 -31q35 -3 65.5 -28.5t30.5 -66.5
q0 -53 -45.5 -85.5t-120.5 -32.5zM301 0h-76l426 667h77zM826 86v-86h-95v86h-196v65l158 249h133v-239h53v-75h-53zM731 319l-101 -158h101v158z" />
    <glyph glyph-name="questiondown" unicode="&#xbf;" horiz-adv-x="396" 
d="M200 561q33 0 57 -24t24 -57t-24 -57t-57 -24t-57 24t-24 57t24 57t57 24zM105 240q19 13 28 19t17.5 17.5t8.5 22.5q0 19 -18 34l101 27q27 -26 27 -64q0 -24 -13.5 -44.5t-25.5 -30t-36 -24.5q-17 -11 -25 -17t-16 -16.5t-8 -21.5q0 -20 17 -32t49 -12q72 0 118 53
l62 -80q-73 -82 -193 -82q-83 0 -133 35.5t-50 89.5q0 24 7.5 43.5t24 35.5t26.5 24t32 23z" />
    <glyph glyph-name="Agrave" unicode="&#xc0;" horiz-adv-x="684" 
d="M298 723l-162 144h117l134 -144h-89zM533 0l-42 115h-298l-42 -115h-156l258 667h178l257 -667h-155zM342 544l-111 -306h221z" />
    <glyph glyph-name="Aacute" unicode="&#xc1;" horiz-adv-x="684" 
d="M383 723h-89l134 144h117zM533 0l-42 115h-298l-42 -115h-156l258 667h178l257 -667h-155zM342 544l-111 -306h221z" />
    <glyph glyph-name="Acircumflex" unicode="&#xc2;" horiz-adv-x="684" 
d="M415 723l-73 89l-71 -89h-78l92 144h114l94 -144h-78zM533 0l-42 115h-298l-42 -115h-156l258 667h178l257 -667h-155zM342 544l-111 -306h221z" />
    <glyph glyph-name="Atilde" unicode="&#xc3;" horiz-adv-x="684" 
d="M322 762q-25 27 -40 27q-36 0 -36 -62h-67q0 64 28 99t80 35q38 0 75 -41q26 -26 41 -26q36 0 36 61h67q0 -64 -27.5 -99t-79.5 -35q-40 0 -77 41zM533 0l-42 115h-298l-42 -115h-156l258 667h178l257 -667h-155zM342 544l-111 -306h221z" />
    <glyph glyph-name="Adieresis" unicode="&#xc4;" horiz-adv-x="684" 
d="M237 721q-29 0 -48.5 19.5t-19.5 48.5q0 28 20 47.5t48 19.5t47.5 -19.5t19.5 -47.5q0 -29 -19.5 -48.5t-47.5 -19.5zM448 721q-28 0 -48 19.5t-20 48.5q0 28 20 47.5t48 19.5t48 -19.5t20 -47.5q0 -29 -20 -48.5t-48 -19.5zM533 0l-42 115h-298l-42 -115h-156l258 667
h178l257 -667h-155zM342 544l-111 -306h221z" />
    <glyph glyph-name="Aring" unicode="&#xc5;" horiz-adv-x="684" 
d="M238 803q0 43 31 74.5t74 31.5t73.5 -31.5t30.5 -74.5q0 -44 -30.5 -74.5t-73.5 -30.5t-74 31t-31 74zM389 803q0 20 -13.5 33.5t-32.5 13.5t-33 -14t-14 -33t14 -33t33 -14t32.5 14t13.5 33zM533 0l-42 115h-298l-42 -115h-156l258 667h178l257 -667h-155zM342 544
l-111 -306h221z" />
    <glyph glyph-name="AE" unicode="&#xc6;" horiz-adv-x="968" 
d="M454 0v115h-240l-67 -115h-156l406 667h529v-122h-329v-145h322v-122h-322v-155h329v-123h-472zM454 545l-174 -307h174v307z" />
    <glyph glyph-name="Ccedilla" unicode="&#xc7;" horiz-adv-x="687" 
d="M384 114q54 0 97 27t65 70l122 -59q-87 -153 -260 -163l-17 -40q14 10 36 10q28 0 47.5 -19.5t19.5 -49.5q0 -39 -32 -62.5t-79 -23.5q-70 0 -110 32l25 52q38 -30 81 -30q22 0 37 9t15 25q0 25 -29 25q-18 0 -32 -14l-46 26l22 61q-135 13 -223.5 107.5t-88.5 235.5
q0 152 100.5 248.5t249.5 96.5q192 0 284 -163l-122 -60q-22 42 -65.5 69.5t-96.5 27.5q-87 0 -145.5 -62.5t-58.5 -156.5t58.5 -156.5t145.5 -62.5z" />
    <glyph glyph-name="Egrave" unicode="&#xc8;" horiz-adv-x="583" 
d="M264 723l-162 144h117l134 -144h-89zM66 0v667h472v-122h-330v-145h323v-122h-323v-155h330v-123h-472z" />
    <glyph glyph-name="Eacute" unicode="&#xc9;" horiz-adv-x="583" 
d="M350 723h-89l134 144h117zM66 0v667h472v-122h-330v-145h323v-122h-323v-155h330v-123h-472z" />
    <glyph glyph-name="Ecircumflex" unicode="&#xca;" horiz-adv-x="583" 
d="M382 723l-73 89l-71 -89h-78l92 144h114l94 -144h-78zM66 0v667h472v-122h-330v-145h323v-122h-323v-155h330v-123h-472z" />
    <glyph glyph-name="Edieresis" unicode="&#xcb;" horiz-adv-x="583" 
d="M203 721q-29 0 -48.5 19.5t-19.5 48.5q0 28 20 47.5t48 19.5t47.5 -19.5t19.5 -47.5q0 -29 -19.5 -48.5t-47.5 -19.5zM414 721q-28 0 -48 19.5t-20 48.5q0 28 20 47.5t48 19.5t48 -19.5t20 -47.5q0 -29 -20 -48.5t-48 -19.5zM66 0v667h472v-122h-330v-145h323v-122h-323
v-155h330v-123h-472z" />
    <glyph glyph-name="Igrave" unicode="&#xcc;" horiz-adv-x="274" 
d="M93 723l-162 144h117l134 -144h-89zM66 0v667h142v-667h-142z" />
    <glyph glyph-name="Iacute" unicode="&#xcd;" horiz-adv-x="274" 
d="M179 723h-89l134 144h117zM66 0v667h142v-667h-142z" />
    <glyph glyph-name="Icircumflex" unicode="&#xce;" horiz-adv-x="274" 
d="M211 723l-73 89l-71 -89h-78l92 144h114l94 -144h-78zM66 0v667h142v-667h-142z" />
    <glyph glyph-name="Idieresis" unicode="&#xcf;" horiz-adv-x="274" 
d="M32 721q-29 0 -48.5 19.5t-19.5 48.5q0 28 20 47.5t48 19.5t47.5 -19.5t19.5 -47.5q0 -29 -19.5 -48.5t-47.5 -19.5zM243 721q-28 0 -48 19.5t-20 48.5q0 28 20 47.5t48 19.5t48 -19.5t20 -47.5q0 -29 -20 -48.5t-48 -19.5zM66 0v667h142v-667h-142z" />
    <glyph glyph-name="Eth" unicode="&#xd0;" horiz-adv-x="742" 
d="M353 667q158 0 256.5 -92t98.5 -242t-98.5 -241.5t-255.5 -91.5h-264v276h-82v108h82v283h263zM353 125q96 0 152.5 60t56.5 148q0 92 -54.5 150.5t-153.5 58.5h-121v-158h149v-108h-149v-151h120z" />
    <glyph glyph-name="Ntilde" unicode="&#xd1;" horiz-adv-x="729" 
d="M345 762q-25 27 -40 27q-36 0 -36 -62h-67q0 64 28 99t80 35q38 0 75 -41q26 -26 41 -26q36 0 36 61h67q0 -64 -27.5 -99t-79.5 -35q-40 0 -77 41zM526 0l-318 448v-448h-142v667h146l309 -432v432h142v-667h-137z" />
    <glyph glyph-name="Ograve" unicode="&#xd2;" horiz-adv-x="765" 
d="M338 723l-162 144h117l134 -144h-89zM34 333q0 150 98.5 247.5t249.5 97.5q152 0 250.5 -97t98.5 -248t-98.5 -248t-250.5 -97q-151 0 -249.5 97.5t-98.5 247.5zM585 333q0 95 -56 157t-147 62t-146.5 -62t-55.5 -157t55.5 -157t146.5 -62t147 62t56 157z" />
    <glyph glyph-name="Oacute" unicode="&#xd3;" horiz-adv-x="765" 
d="M423 723h-89l134 144h117zM34 333q0 150 98.5 247.5t249.5 97.5q152 0 250.5 -97t98.5 -248t-98.5 -248t-250.5 -97q-151 0 -249.5 97.5t-98.5 247.5zM585 333q0 95 -56 157t-147 62t-146.5 -62t-55.5 -157t55.5 -157t146.5 -62t147 62t56 157z" />
    <glyph glyph-name="Ocircumflex" unicode="&#xd4;" horiz-adv-x="765" 
d="M455 723l-73 89l-71 -89h-78l92 144h114l94 -144h-78zM34 333q0 150 98.5 247.5t249.5 97.5q152 0 250.5 -97t98.5 -248t-98.5 -248t-250.5 -97q-151 0 -249.5 97.5t-98.5 247.5zM585 333q0 95 -56 157t-147 62t-146.5 -62t-55.5 -157t55.5 -157t146.5 -62t147 62t56 157
z" />
    <glyph glyph-name="Otilde" unicode="&#xd5;" horiz-adv-x="765" 
d="M362 762q-25 27 -40 27q-36 0 -36 -62h-67q0 64 28 99t80 35q38 0 75 -41q26 -26 41 -26q36 0 36 61h67q0 -64 -27.5 -99t-79.5 -35q-40 0 -77 41zM34 333q0 150 98.5 247.5t249.5 97.5q152 0 250.5 -97t98.5 -248t-98.5 -248t-250.5 -97q-151 0 -249.5 97.5t-98.5 247.5
zM585 333q0 95 -56 157t-147 62t-146.5 -62t-55.5 -157t55.5 -157t146.5 -62t147 62t56 157z" />
    <glyph glyph-name="Odieresis" unicode="&#xd6;" horiz-adv-x="765" 
d="M277 721q-29 0 -48.5 19.5t-19.5 48.5q0 28 20 47.5t48 19.5t47.5 -19.5t19.5 -47.5q0 -29 -19.5 -48.5t-47.5 -19.5zM488 721q-28 0 -48 19.5t-20 48.5q0 28 20 47.5t48 19.5t48 -19.5t20 -47.5q0 -29 -20 -48.5t-48 -19.5zM34 333q0 150 98.5 247.5t249.5 97.5
q152 0 250.5 -97t98.5 -248t-98.5 -248t-250.5 -97q-151 0 -249.5 97.5t-98.5 247.5zM585 333q0 95 -56 157t-147 62t-146.5 -62t-55.5 -157t55.5 -157t146.5 -62t147 62t56 157z" />
    <glyph glyph-name="multiply" unicode="&#xd7;" horiz-adv-x="504" 
d="M252 278l-140 -141l-57 55l141 142l-141 141l57 56l140 -142l141 142l56 -56l-141 -141l141 -142l-56 -55z" />
    <glyph glyph-name="Oslash" unicode="&#xd8;" horiz-adv-x="765" 
d="M622 591q109 -99 109 -258q0 -151 -98.5 -248t-250.5 -97q-101 0 -184 47l-27 -35h-102l64 84q-99 99 -99 249t98.5 247.5t249.5 97.5q94 0 173 -41l23 30h102zM180 333q0 -78 39 -136l255 334q-44 21 -92 21q-91 0 -146.5 -62t-55.5 -157zM382 114q91 0 147 62t56 157
q0 88 -48 147l-258 -339q46 -27 103 -27z" />
    <glyph glyph-name="Ugrave" unicode="&#xd9;" horiz-adv-x="728" 
d="M321 723l-162 144h117l134 -144h-89zM66 266v401h144v-396q0 -72 39.5 -114.5t115.5 -42.5q74 0 113.5 42.5t39.5 114.5v396h144v-400q0 -129 -75 -204t-222 -75q-148 0 -223.5 75t-75.5 203z" />
    <glyph glyph-name="Uacute" unicode="&#xda;" horiz-adv-x="728" 
d="M406 723h-89l134 144h117zM66 266v401h144v-396q0 -72 39.5 -114.5t115.5 -42.5q74 0 113.5 42.5t39.5 114.5v396h144v-400q0 -129 -75 -204t-222 -75q-148 0 -223.5 75t-75.5 203z" />
    <glyph glyph-name="Ucircumflex" unicode="&#xdb;" horiz-adv-x="728" 
d="M438 723l-73 89l-71 -89h-78l92 144h114l94 -144h-78zM66 266v401h144v-396q0 -72 39.5 -114.5t115.5 -42.5q74 0 113.5 42.5t39.5 114.5v396h144v-400q0 -129 -75 -204t-222 -75q-148 0 -223.5 75t-75.5 203z" />
    <glyph glyph-name="Udieresis" unicode="&#xdc;" horiz-adv-x="728" 
d="M259 721q-29 0 -48.5 19.5t-19.5 48.5q0 28 20 47.5t48 19.5t47.5 -19.5t19.5 -47.5q0 -29 -19.5 -48.5t-47.5 -19.5zM470 721q-28 0 -48 19.5t-20 48.5q0 28 20 47.5t48 19.5t48 -19.5t20 -47.5q0 -29 -20 -48.5t-48 -19.5zM66 266v401h144v-396q0 -72 39.5 -114.5
t115.5 -42.5q74 0 113.5 42.5t39.5 114.5v396h144v-400q0 -129 -75 -204t-222 -75q-148 0 -223.5 75t-75.5 203z" />
    <glyph glyph-name="Yacute" unicode="&#xdd;" horiz-adv-x="645" 
d="M364 723h-89l134 144h117zM252 0v273l-257 394h162l166 -268l164 268h162l-255 -394v-273h-142z" />
    <glyph glyph-name="Thorn" unicode="&#xde;" horiz-adv-x="624" 
d="M66 0v667h142v-108h170q105 0 164.5 -62t59.5 -154q0 -91 -60 -152t-164 -61h-170v-130h-142zM457 344q0 41 -28 67t-73 26h-148v-184h148q45 0 73 25t28 66z" />
    <glyph glyph-name="germandbls" unicode="&#xdf;" horiz-adv-x="1032" 
d="M18 71l60 99q30 -30 80 -51t102 -21q49 0 73.5 17t24.5 43q0 13 -8 23t-25.5 17.5t-33 11.5t-43.5 10q-29 6 -42 9t-40 11t-41 15.5t-34 21t-30 28.5t-17.5 37.5t-7.5 48.5q0 72 61 121.5t159 49.5q136 0 225 -79l-62 -92q-31 28 -76.5 44t-87.5 16q-39 0 -62 -15.5
t-23 -39.5q0 -11 7 -19.5t25.5 -15.5t31 -10t42.5 -10q37 -8 59 -13.5t56 -19.5t53.5 -30.5t34 -46t14.5 -66.5q0 -81 -62 -129t-175 -48q-76 0 -138 23t-100 60zM534 71l60 99q30 -30 80 -51t102 -21q49 0 73.5 17t24.5 43q0 13 -8 23t-25.5 17.5t-33 11.5t-43.5 10
q-29 6 -42 9t-40 11t-41 15.5t-34 21t-30 28.5t-17.5 37.5t-7.5 48.5q0 72 61 121.5t159 49.5q136 0 225 -79l-62 -92q-31 28 -76.5 44t-87.5 16q-39 0 -62 -15.5t-23 -39.5q0 -11 7 -19.5t25.5 -15.5t31 -10t42.5 -10q37 -8 59 -13.5t56 -19.5t53.5 -30.5t34 -46
t14.5 -66.5q0 -81 -62 -129t-175 -48q-76 0 -138 23t-100 60z" />
    <glyph glyph-name="agrave" unicode="&#xe0;" horiz-adv-x="597" 
d="M254 606l-162 144h117l134 -144h-89zM379 550l223 -550h-145l-37 93h-243l-36 -93h-146l223 550h161zM298 432l-84 -227h169z" />
    <glyph glyph-name="aacute" unicode="&#xe1;" horiz-adv-x="597" 
d="M339 606h-89l134 144h117zM379 550l223 -550h-145l-37 93h-243l-36 -93h-146l223 550h161zM298 432l-84 -227h169z" />
    <glyph glyph-name="acircumflex" unicode="&#xe2;" horiz-adv-x="597" 
d="M372 606l-73 89l-71 -89h-78l92 144h114l94 -144h-78zM379 550l223 -550h-145l-37 93h-243l-36 -93h-146l223 550h161zM298 432l-84 -227h169z" />
    <glyph glyph-name="atilde" unicode="&#xe3;" horiz-adv-x="597" 
d="M278 645q-25 27 -40 27q-36 0 -36 -62h-67q0 64 28 99t80 35q38 0 75 -41q26 -26 41 -26q36 0 36 61h67q0 -64 -27.5 -99t-79.5 -35q-40 0 -77 41zM379 550l223 -550h-145l-37 93h-243l-36 -93h-146l223 550h161zM298 432l-84 -227h169z" />
    <glyph glyph-name="adieresis" unicode="&#xe4;" horiz-adv-x="597" 
d="M193 604q-29 0 -48.5 19.5t-19.5 48.5q0 28 20 47.5t48 19.5t47.5 -19.5t19.5 -47.5q0 -29 -19.5 -48.5t-47.5 -19.5zM404 604q-28 0 -48 19.5t-20 48.5q0 28 20 47.5t48 19.5t48 -19.5t20 -47.5q0 -29 -20 -48.5t-48 -19.5zM379 550l223 -550h-145l-37 93h-243l-36 -93
h-146l223 550h161zM298 432l-84 -227h169z" />
    <glyph glyph-name="aring" unicode="&#xe5;" horiz-adv-x="597" 
d="M194 686q0 43 31 74.5t74 31.5t73.5 -31.5t30.5 -74.5q0 -44 -30.5 -74.5t-73.5 -30.5t-74 31t-31 74zM345 686q0 20 -13.5 33.5t-32.5 13.5t-33 -14t-14 -33t14 -33t33 -14t32.5 14t13.5 33zM379 550l223 -550h-145l-37 93h-243l-36 -93h-146l223 550h161zM298 432
l-84 -227h169z" />
    <glyph glyph-name="ae" unicode="&#xe6;" horiz-adv-x="845" 
d="M388 0v90h-191l-54 -90h-149l342 550h467v-111h-283v-103h276v-112h-276v-112h283v-112h-415zM388 423l-130 -221h130v221z" />
    <glyph glyph-name="ccedilla" unicode="&#xe7;" horiz-adv-x="585" 
d="M331 104q42 0 76.5 21t51.5 55l110 -51q-31 -58 -84 -96t-126 -44l-17 -40q14 10 36 10q28 0 47.5 -19.5t19.5 -49.5q0 -39 -32 -62.5t-79 -23.5q-70 0 -110 32l25 52q37 -30 81 -30q22 0 37 9t15 25q0 25 -29 25q-18 0 -32 -14l-46 26l22 61q-117 11 -191 89.5
t-74 195.5q0 126 85 206.5t214 80.5q84 0 144 -39t94 -101l-110 -53q-19 34 -53 55.5t-75 21.5q-71 0 -118 -48.5t-47 -122.5t47 -122.5t118 -48.5z" />
    <glyph glyph-name="egrave" unicode="&#xe8;" horiz-adv-x="520" 
d="M229 606l-162 144h117l134 -144h-89zM63 0v550h415v-111h-283v-103h277v-112h-277v-112h283v-112h-415z" />
    <glyph glyph-name="eacute" unicode="&#xe9;" horiz-adv-x="520" 
d="M314 606h-89l134 144h117zM63 0v550h415v-111h-283v-103h277v-112h-277v-112h283v-112h-415z" />
    <glyph glyph-name="ecircumflex" unicode="&#xea;" horiz-adv-x="520" 
d="M347 606l-73 89l-71 -89h-78l92 144h114l94 -144h-78zM63 0v550h415v-111h-283v-103h277v-112h-277v-112h283v-112h-415z" />
    <glyph glyph-name="edieresis" unicode="&#xeb;" horiz-adv-x="520" 
d="M168 604q-29 0 -48.5 19.5t-19.5 48.5q0 28 20 47.5t48 19.5t47.5 -19.5t19.5 -47.5q0 -29 -19.5 -48.5t-47.5 -19.5zM379 604q-28 0 -48 19.5t-20 48.5q0 28 20 47.5t48 19.5t48 -19.5t20 -47.5q0 -29 -20 -48.5t-48 -19.5zM63 0v550h415v-111h-283v-103h277v-112h-277
v-112h283v-112h-415z" />
    <glyph glyph-name="igrave" unicode="&#xec;" horiz-adv-x="258" 
d="M85 606l-162 144h117l134 -144h-89zM63 0v550h132v-550h-132z" />
    <glyph glyph-name="iacute" unicode="&#xed;" horiz-adv-x="258" 
d="M170 606h-89l134 144h117zM63 0v550h132v-550h-132z" />
    <glyph glyph-name="icircumflex" unicode="&#xee;" horiz-adv-x="258" 
d="M202 606l-73 89l-71 -89h-78l92 144h114l94 -144h-78zM63 0v550h132v-550h-132z" />
    <glyph glyph-name="idieresis" unicode="&#xef;" horiz-adv-x="258" 
d="M24 604q-29 0 -48.5 19.5t-19.5 48.5q0 28 20 47.5t48 19.5t47.5 -19.5t19.5 -47.5q0 -29 -19.5 -48.5t-47.5 -19.5zM235 604q-28 0 -48 19.5t-20 48.5q0 28 20 47.5t48 19.5t48 -19.5t20 -47.5q0 -29 -20 -48.5t-48 -19.5zM63 0v550h132v-550h-132z" />
    <glyph glyph-name="eth" unicode="&#xf0;" horiz-adv-x="633" 
d="M301 550q136 0 218 -75.5t82 -200.5q0 -124 -81.5 -199t-217.5 -75h-232v231h-54v88h54v231h231zM301 115q79 0 122.5 45.5t43.5 113.5q0 72 -41.5 116.5t-123.5 44.5h-100v-116h114v-88h-114v-116h99z" />
    <glyph glyph-name="ntilde" unicode="&#xf1;" horiz-adv-x="648" 
d="M304 645q-25 27 -40 27q-36 0 -36 -62h-67q0 64 28 99t80 35q38 0 75 -41q26 -26 41 -26q36 0 36 61h67q0 -64 -27.5 -99t-79.5 -35q-40 0 -77 41zM450 0l-255 366v-366h-132v550h142l249 -354v354h132v-550h-136z" />
    <glyph glyph-name="ograve" unicode="&#xf2;" horiz-adv-x="655" 
d="M283 606l-162 144h117l134 -144h-89zM32 275q0 125 82.5 206t212.5 81t212.5 -81t82.5 -206t-82.5 -206t-212.5 -81t-212.5 81t-82.5 206zM488 275q0 74 -44.5 122.5t-116.5 48.5t-116.5 -48.5t-44.5 -122.5q0 -73 44.5 -122t116.5 -49t116.5 49t44.5 122z" />
    <glyph glyph-name="oacute" unicode="&#xf3;" horiz-adv-x="655" 
d="M368 606h-89l134 144h117zM32 275q0 125 82.5 206t212.5 81t212.5 -81t82.5 -206t-82.5 -206t-212.5 -81t-212.5 81t-82.5 206zM488 275q0 74 -44.5 122.5t-116.5 48.5t-116.5 -48.5t-44.5 -122.5q0 -73 44.5 -122t116.5 -49t116.5 49t44.5 122z" />
    <glyph glyph-name="ocircumflex" unicode="&#xf4;" horiz-adv-x="655" 
d="M401 606l-73 89l-71 -89h-78l92 144h114l94 -144h-78zM32 275q0 125 82.5 206t212.5 81t212.5 -81t82.5 -206t-82.5 -206t-212.5 -81t-212.5 81t-82.5 206zM488 275q0 74 -44.5 122.5t-116.5 48.5t-116.5 -48.5t-44.5 -122.5q0 -73 44.5 -122t116.5 -49t116.5 49
t44.5 122z" />
    <glyph glyph-name="otilde" unicode="&#xf5;" horiz-adv-x="655" 
d="M307 645q-25 27 -40 27q-36 0 -36 -62h-67q0 64 28 99t80 35q38 0 75 -41q26 -26 41 -26q36 0 36 61h67q0 -64 -27.5 -99t-79.5 -35q-40 0 -77 41zM32 275q0 125 82.5 206t212.5 81t212.5 -81t82.5 -206t-82.5 -206t-212.5 -81t-212.5 81t-82.5 206zM488 275
q0 74 -44.5 122.5t-116.5 48.5t-116.5 -48.5t-44.5 -122.5q0 -73 44.5 -122t116.5 -49t116.5 49t44.5 122z" />
    <glyph glyph-name="odieresis" unicode="&#xf6;" horiz-adv-x="655" 
d="M222 604q-29 0 -48.5 19.5t-19.5 48.5q0 28 20 47.5t48 19.5t47.5 -19.5t19.5 -47.5q0 -29 -19.5 -48.5t-47.5 -19.5zM433 604q-28 0 -48 19.5t-20 48.5q0 28 20 47.5t48 19.5t48 -19.5t20 -47.5q0 -29 -20 -48.5t-48 -19.5zM32 275q0 125 82.5 206t212.5 81t212.5 -81
t82.5 -206t-82.5 -206t-212.5 -81t-212.5 81t-82.5 206zM488 275q0 74 -44.5 122.5t-116.5 48.5t-116.5 -48.5t-44.5 -122.5q0 -73 44.5 -122t116.5 -49t116.5 49t44.5 122z" />
    <glyph glyph-name="divide" unicode="&#xf7;" horiz-adv-x="511" 
d="M255 454q-25 0 -43 18t-18 44q0 25 18 42.5t43 17.5t43 -17.5t18 -42.5q0 -26 -18 -44t-43 -18zM29 298v79h453v-79h-453zM255 96q-25 0 -43 18t-18 43t18 43t43 18t43 -18t18 -43t-18 -43t-43 -18z" />
    <glyph glyph-name="oslash" unicode="&#xf8;" horiz-adv-x="655" 
d="M539 481q83 -80 83 -206q0 -125 -82.5 -206t-212.5 -81q-84 0 -149 35l-18 -23h-102l55 70q-81 81 -81 205q0 125 82.5 206t212.5 81q81 0 147 -34l17 22h102zM166 275q0 -58 28 -102l203 258q-30 15 -70 15q-72 0 -116.5 -48.5t-44.5 -122.5zM327 104q72 0 116.5 49
t44.5 122q0 58 -30 104l-203 -259q34 -16 72 -16z" />
    <glyph glyph-name="ugrave" unicode="&#xf9;" horiz-adv-x="646" 
d="M279 606l-162 144h117l134 -144h-89zM63 218v332h133v-321q0 -57 33.5 -91t93.5 -34t93.5 34t33.5 91v321h133v-331q0 -106 -66 -168.5t-194 -62.5t-194 62t-66 168z" />
    <glyph glyph-name="uacute" unicode="&#xfa;" horiz-adv-x="646" 
d="M364 606h-89l134 144h117zM63 218v332h133v-321q0 -57 33.5 -91t93.5 -34t93.5 34t33.5 91v321h133v-331q0 -106 -66 -168.5t-194 -62.5t-194 62t-66 168z" />
    <glyph glyph-name="ucircumflex" unicode="&#xfb;" horiz-adv-x="646" 
d="M397 606l-73 89l-71 -89h-78l92 144h114l94 -144h-78zM63 218v332h133v-321q0 -57 33.5 -91t93.5 -34t93.5 34t33.5 91v321h133v-331q0 -106 -66 -168.5t-194 -62.5t-194 62t-66 168z" />
    <glyph glyph-name="udieresis" unicode="&#xfc;" horiz-adv-x="646" 
d="M218 604q-29 0 -48.5 19.5t-19.5 48.5q0 28 20 47.5t48 19.5t47.5 -19.5t19.5 -47.5q0 -29 -19.5 -48.5t-47.5 -19.5zM429 604q-28 0 -48 19.5t-20 48.5q0 28 20 47.5t48 19.5t48 -19.5t20 -47.5q0 -29 -20 -48.5t-48 -19.5zM63 218v332h133v-321q0 -57 33.5 -91
t93.5 -34t93.5 34t33.5 91v321h133v-331q0 -106 -66 -168.5t-194 -62.5t-194 62t-66 168z" />
    <glyph glyph-name="yacute" unicode="&#xfd;" horiz-adv-x="565" 
d="M323 606h-89l134 144h117zM218 0v226l-223 324h149l140 -213l137 213h149l-221 -324v-226h-131z" />
    <glyph glyph-name="thorn" unicode="&#xfe;" horiz-adv-x="554" 
d="M63 0v550h132v-81h146q89 0 141 -53t52 -129q0 -77 -50.5 -128.5t-142.5 -51.5h-146v-107h-132zM399 287q0 30 -19.5 48.5t-54.5 18.5h-130v-132h130q35 0 54.5 18t19.5 47z" />
    <glyph glyph-name="ydieresis" unicode="&#xff;" horiz-adv-x="565" 
d="M177 604q-29 0 -48.5 19.5t-19.5 48.5q0 28 20 47.5t48 19.5t47.5 -19.5t19.5 -47.5q0 -29 -19.5 -48.5t-47.5 -19.5zM388 604q-28 0 -48 19.5t-20 48.5q0 28 20 47.5t48 19.5t48 -19.5t20 -47.5q0 -29 -20 -48.5t-48 -19.5zM218 0v226l-223 324h149l140 -213l137 213
h149l-221 -324v-226h-131z" />
    <glyph glyph-name="Amacron" unicode="&#x100;" horiz-adv-x="684" 
d="M174 729v72h335v-72h-335zM533 0l-42 115h-298l-42 -115h-156l258 667h178l257 -667h-155zM342 544l-111 -306h221z" />
    <glyph glyph-name="amacron" unicode="&#x101;" horiz-adv-x="597" 
d="M130 612v72h335v-72h-335zM379 550l223 -550h-145l-37 93h-243l-36 -93h-146l223 550h161zM298 432l-84 -227h169z" />
    <glyph glyph-name="Abreve" unicode="&#x102;" horiz-adv-x="684" 
d="M342 720q-109 0 -176 88l56 46q45 -62 120 -62q73 0 119 62l56 -46q-65 -88 -175 -88zM533 0l-42 115h-298l-42 -115h-156l258 667h178l257 -667h-155zM342 544l-111 -306h221z" />
    <glyph glyph-name="abreve" unicode="&#x103;" horiz-adv-x="597" 
d="M298 603q-109 0 -176 88l56 46q45 -62 120 -62q73 0 119 62l56 -46q-65 -88 -175 -88zM379 550l223 -550h-145l-37 93h-243l-36 -93h-146l223 550h161zM298 432l-84 -227h169z" />
    <glyph glyph-name="Aogonek" unicode="&#x104;" horiz-adv-x="684" 
d="M658 0q-88 -26 -88 -76q0 -14 10 -22.5t24 -8.5q15 0 29 7l24 -68q-32 -18 -88 -18q-46 0 -79.5 20t-33.5 60q0 64 108 106h-31l-42 115h-298l-42 -115h-156l258 667h178l257 -667h-30zM231 238h221l-110 306z" />
    <glyph glyph-name="aogonek" unicode="&#x105;" horiz-adv-x="597" 
d="M578 0q-88 -26 -88 -76q0 -14 10 -22.5t24 -8.5q15 0 29 7l24 -68q-32 -18 -88 -18q-46 0 -79.5 20t-33.5 60q0 64 108 106h-27l-37 93h-243l-36 -93h-146l223 550h161l223 -550h-24zM214 205h169l-85 227z" />
    <glyph glyph-name="Cacute" unicode="&#x106;" horiz-adv-x="687" 
d="M425 723h-89l134 144h117zM384 -12q-149 0 -249.5 96.5t-100.5 248.5t100.5 248.5t249.5 96.5q192 0 284 -163l-122 -60q-22 42 -65.5 69.5t-96.5 27.5q-87 0 -145.5 -62.5t-58.5 -156.5t58.5 -156.5t145.5 -62.5q54 0 97 27t65 70l122 -59q-95 -164 -284 -164z" />
    <glyph glyph-name="cacute" unicode="&#x107;" horiz-adv-x="585" 
d="M373 606h-89l134 144h117zM32 275q0 126 85 206.5t214 80.5q84 0 144 -39t94 -101l-110 -53q-19 34 -53 55.5t-75 21.5q-71 0 -118 -48.5t-47 -122.5t47 -122.5t118 -48.5q42 0 76.5 21t51.5 55l110 -51q-33 -63 -93.5 -102t-144.5 -39q-129 0 -214 80.5t-85 206.5z" />
    <glyph glyph-name="Ccircumflex" unicode="&#x108;" horiz-adv-x="687" 
d="M458 723l-73 89l-71 -89h-78l92 144h114l94 -144h-78zM384 -12q-149 0 -249.5 96.5t-100.5 248.5t100.5 248.5t249.5 96.5q192 0 284 -163l-122 -60q-22 42 -65.5 69.5t-96.5 27.5q-87 0 -145.5 -62.5t-58.5 -156.5t58.5 -156.5t145.5 -62.5q54 0 97 27t65 70l122 -59
q-95 -164 -284 -164z" />
    <glyph glyph-name="ccircumflex" unicode="&#x109;" horiz-adv-x="585" 
d="M405 606l-73 89l-71 -89h-78l92 144h114l94 -144h-78zM32 275q0 126 85 206.5t214 80.5q84 0 144 -39t94 -101l-110 -53q-19 34 -53 55.5t-75 21.5q-71 0 -118 -48.5t-47 -122.5t47 -122.5t118 -48.5q42 0 76.5 21t51.5 55l110 -51q-33 -63 -93.5 -102t-144.5 -39
q-129 0 -214 80.5t-85 206.5z" />
    <glyph glyph-name="Cdotaccent" unicode="&#x10a;" horiz-adv-x="687" 
d="M316 788q0 28 20 48t48 20t47.5 -20t19.5 -48t-19.5 -48t-47.5 -20t-48 20t-20 48zM384 -12q-149 0 -249.5 96.5t-100.5 248.5t100.5 248.5t249.5 96.5q192 0 284 -163l-122 -60q-22 42 -65.5 69.5t-96.5 27.5q-87 0 -145.5 -62.5t-58.5 -156.5t58.5 -156.5t145.5 -62.5
q54 0 97 27t65 70l122 -59q-95 -164 -284 -164z" />
    <glyph glyph-name="cdotaccent" unicode="&#x10b;" horiz-adv-x="585" 
d="M263 671q0 28 20 48t48 20t47.5 -20t19.5 -48t-19.5 -48t-47.5 -20t-48 20t-20 48zM32 275q0 126 85 206.5t214 80.5q84 0 144 -39t94 -101l-110 -53q-19 34 -53 55.5t-75 21.5q-71 0 -118 -48.5t-47 -122.5t47 -122.5t118 -48.5q42 0 76.5 21t51.5 55l110 -51
q-33 -63 -93.5 -102t-144.5 -39q-129 0 -214 80.5t-85 206.5z" />
    <glyph glyph-name="Ccaron" unicode="&#x10c;" horiz-adv-x="687" 
d="M328 723l-95 144h78l74 -90l70 90h78l-91 -144h-114zM384 -12q-149 0 -249.5 96.5t-100.5 248.5t100.5 248.5t249.5 96.5q192 0 284 -163l-122 -60q-22 42 -65.5 69.5t-96.5 27.5q-87 0 -145.5 -62.5t-58.5 -156.5t58.5 -156.5t145.5 -62.5q54 0 97 27t65 70l122 -59
q-95 -164 -284 -164z" />
    <glyph glyph-name="ccaron" unicode="&#x10d;" horiz-adv-x="585" 
d="M275 606l-95 144h78l74 -90l70 90h78l-91 -144h-114zM32 275q0 126 85 206.5t214 80.5q84 0 144 -39t94 -101l-110 -53q-19 34 -53 55.5t-75 21.5q-71 0 -118 -48.5t-47 -122.5t47 -122.5t118 -48.5q42 0 76.5 21t51.5 55l110 -51q-33 -63 -93.5 -102t-144.5 -39
q-129 0 -214 80.5t-85 206.5z" />
    <glyph glyph-name="Dcaron" unicode="&#x10e;" horiz-adv-x="718" 
d="M303 723l-95 144h78l74 -90l70 90h78l-91 -144h-114zM66 0v667h263q157 0 255.5 -92t98.5 -242t-98 -241.5t-256 -91.5h-263zM208 125h121q96 0 152.5 60t56.5 148q0 92 -55 150.5t-154 58.5h-121v-417z" />
    <glyph glyph-name="dcaron" unicode="&#x10f;" horiz-adv-x="626" 
d="M263 606l-95 144h78l74 -90l70 90h78l-91 -144h-114zM63 0v550h230q137 0 219 -75.5t82 -200.5q0 -124 -82 -199t-218 -75h-231zM459 274q0 72 -41.5 116.5t-123.5 44.5h-99v-320h98q79 0 122.5 45.5t43.5 113.5z" />
    <glyph glyph-name="Dcroat" unicode="&#x110;" horiz-adv-x="742" 
d="M353 667q158 0 256.5 -92t98.5 -242t-98.5 -241.5t-255.5 -91.5h-264v276h-82v108h82v283h263zM353 125q96 0 152.5 60t56.5 148q0 92 -54.5 150.5t-153.5 58.5h-121v-158h149v-108h-149v-151h120z" />
    <glyph glyph-name="dcroat" unicode="&#x111;" horiz-adv-x="633" 
d="M301 550q136 0 218 -75.5t82 -200.5q0 -124 -81.5 -199t-217.5 -75h-232v231h-54v88h54v231h231zM301 115q79 0 122.5 45.5t43.5 113.5q0 72 -41.5 116.5t-123.5 44.5h-100v-116h114v-88h-114v-116h99z" />
    <glyph glyph-name="Emacron" unicode="&#x112;" horiz-adv-x="583" 
d="M140 729v72h335v-72h-335zM66 0v667h472v-122h-330v-145h323v-122h-323v-155h330v-123h-472z" />
    <glyph glyph-name="emacron" unicode="&#x113;" horiz-adv-x="520" 
d="M105 612v72h335v-72h-335zM63 0v550h415v-111h-283v-103h277v-112h-277v-112h283v-112h-415z" />
    <glyph glyph-name="Ebreve" unicode="&#x114;" horiz-adv-x="583" 
d="M308 720q-109 0 -176 88l56 46q45 -62 120 -62q73 0 119 62l56 -46q-65 -88 -175 -88zM66 0v667h472v-122h-330v-145h323v-122h-323v-155h330v-123h-472z" />
    <glyph glyph-name="ebreve" unicode="&#x115;" horiz-adv-x="520" 
d="M273 603q-109 0 -176 88l56 46q45 -62 120 -62q73 0 119 62l56 -46q-65 -88 -175 -88zM63 0v550h415v-111h-283v-103h277v-112h-277v-112h283v-112h-415z" />
    <glyph glyph-name="Edotaccent" unicode="&#x116;" horiz-adv-x="583" 
d="M240 788q0 28 20 48t48 20t47.5 -20t19.5 -48t-19.5 -48t-47.5 -20t-48 20t-20 48zM66 0v667h472v-122h-330v-145h323v-122h-323v-155h330v-123h-472z" />
    <glyph glyph-name="edotaccent" unicode="&#x117;" horiz-adv-x="520" 
d="M205 671q0 28 20 48t48 20t47.5 -20t19.5 -48t-19.5 -48t-47.5 -20t-48 20t-20 48zM63 0v550h415v-111h-283v-103h277v-112h-277v-112h283v-112h-415z" />
    <glyph glyph-name="Eogonek" unicode="&#x118;" horiz-adv-x="583" 
d="M538 545h-330v-145h323v-122h-323v-155h330v-123h-1q-88 -26 -88 -76q0 -14 10 -22.5t24 -8.5q15 0 29 7l24 -68q-32 -18 -88 -18q-46 0 -79.5 20t-33.5 60q0 64 108 106h-377v667h472v-122z" />
    <glyph glyph-name="eogonek" unicode="&#x119;" horiz-adv-x="520" 
d="M478 439h-283v-103h277v-112h-277v-112h283v-112h-1q-88 -26 -88 -76q0 -14 10 -22.5t24 -8.5q15 0 29 7l24 -68q-32 -18 -88 -18q-46 0 -79.5 20t-33.5 60q0 64 108 106h-320v550h415v-111z" />
    <glyph glyph-name="Ecaron" unicode="&#x11a;" horiz-adv-x="583" 
d="M252 723l-95 144h78l74 -90l70 90h78l-91 -144h-114zM66 0v667h472v-122h-330v-145h323v-122h-323v-155h330v-123h-472z" />
    <glyph glyph-name="ecaron" unicode="&#x11b;" horiz-adv-x="520" 
d="M217 606l-95 144h78l74 -90l70 90h78l-91 -144h-114zM63 0v550h415v-111h-283v-103h277v-112h-277v-112h283v-112h-415z" />
    <glyph glyph-name="Gcircumflex" unicode="&#x11c;" horiz-adv-x="720" 
d="M463 723l-73 89l-71 -89h-78l92 144h114l94 -144h-78zM34 333q0 155 102.5 250t252.5 95q182 0 276 -146l-118 -64q-25 37 -66.5 60.5t-91.5 23.5q-91 0 -150 -62t-59 -157t59 -157t150 -62q87 0 144 51v81h-178v122h318v-255q-113 -126 -284 -126q-150 0 -252.5 96
t-102.5 250z" />
    <glyph glyph-name="gcircumflex" unicode="&#x11d;" horiz-adv-x="616" 
d="M407 606l-73 89l-71 -89h-78l92 144h114l94 -144h-78zM32 275q0 128 86 207.5t216 79.5q145 0 229 -115l-107 -62q-48 60 -122 60q-73 0 -120 -48t-47 -122t47 -123t120 -49q63 0 109 40v62h-132v103h262v-215q-97 -105 -239 -105q-130 0 -216 79.5t-86 207.5z" />
    <glyph glyph-name="Gbreve" unicode="&#x11e;" horiz-adv-x="720" 
d="M389 720q-109 0 -176 88l56 46q45 -62 120 -62q73 0 119 62l56 -46q-65 -88 -175 -88zM34 333q0 155 102.5 250t252.5 95q182 0 276 -146l-118 -64q-25 37 -66.5 60.5t-91.5 23.5q-91 0 -150 -62t-59 -157t59 -157t150 -62q87 0 144 51v81h-178v122h318v-255
q-113 -126 -284 -126q-150 0 -252.5 96t-102.5 250z" />
    <glyph glyph-name="gbreve" unicode="&#x11f;" horiz-adv-x="616" 
d="M334 603q-109 0 -176 88l56 46q45 -62 120 -62q73 0 119 62l56 -46q-65 -88 -175 -88zM32 275q0 128 86 207.5t216 79.5q145 0 229 -115l-107 -62q-48 60 -122 60q-73 0 -120 -48t-47 -122t47 -123t120 -49q63 0 109 40v62h-132v103h262v-215q-97 -105 -239 -105
q-130 0 -216 79.5t-86 207.5z" />
    <glyph glyph-name="Gdotaccent" unicode="&#x120;" horiz-adv-x="720" 
d="M34 333q0 155 102.5 250t252.5 95q182 0 276 -146l-118 -64q-25 37 -66.5 60.5t-91.5 23.5q-91 0 -150 -62t-59 -157t59 -157t150 -62q87 0 144 51v81h-178v122h318v-255q-113 -126 -284 -126q-150 0 -252.5 96t-102.5 250zM321 -119q0 28 20 48t48 20t47.5 -20t19.5 -48
t-19.5 -48t-47.5 -20t-48 20t-20 48z" />
    <glyph glyph-name="gdotaccent" unicode="&#x121;" horiz-adv-x="616" 
d="M266 671q0 28 20 48t48 20t47.5 -20t19.5 -48t-19.5 -48t-47.5 -20t-48 20t-20 48zM32 275q0 128 86 207.5t216 79.5q145 0 229 -115l-107 -62q-48 60 -122 60q-73 0 -120 -48t-47 -122t47 -123t120 -49q63 0 109 40v62h-132v103h262v-215q-97 -105 -239 -105
q-130 0 -216 79.5t-86 207.5z" />
    <glyph glyph-name="uni0122" unicode="&#x122;" horiz-adv-x="720" 
d="M34 333q0 155 102.5 250t252.5 95q182 0 276 -146l-118 -64q-25 37 -66.5 60.5t-91.5 23.5q-91 0 -150 -62t-59 -157t59 -157t150 -62q87 0 144 51v81h-178v122h318v-255q-113 -126 -284 -126q-150 0 -252.5 96t-102.5 250zM377 -288l-44 35q21 12 40 35t23 44
q-4 -2 -15 -2q-23 0 -38 15.5t-15 40.5q0 26 18 44.5t43 18.5q29 0 50 -22t21 -59q0 -91 -83 -150z" />
    <glyph glyph-name="uni0123" unicode="&#x123;" horiz-adv-x="616" 
d="M32 275q0 128 86 207.5t216 79.5q145 0 229 -115l-107 -62q-48 60 -122 60q-73 0 -120 -48t-47 -122t47 -123t120 -49q63 0 109 40v62h-132v103h262v-215q-97 -105 -239 -105q-130 0 -216 79.5t-86 207.5zM321 -288l-44 35q21 12 40 35t23 44q-4 -2 -15 -2
q-23 0 -38 15.5t-15 40.5q0 26 18 44.5t43 18.5q29 0 50 -22t21 -59q0 -91 -83 -150z" />
    <glyph glyph-name="Hcircumflex" unicode="&#x124;" horiz-adv-x="731" 
d="M440 723l-73 89l-71 -89h-78l92 144h114l94 -144h-78zM523 0v280h-315v-280h-142v667h142v-262h315v262h143v-667h-143z" />
    <glyph glyph-name="hcircumflex" unicode="&#x125;" horiz-adv-x="651" 
d="M399 606l-73 89l-71 -89h-78l92 144h114l94 -144h-78zM456 0v224h-261v-224h-132v550h132v-211h261v211h132v-550h-132z" />
    <glyph glyph-name="Hbar" unicode="&#x126;" horiz-adv-x="748" 
d="M742 570v-72h-68v-498h-143v280h-314v-280h-143v498h-66v72h66v97h143v-97h314v97h143v-97h68zM531 405v93h-314v-93h314z" />
    <glyph glyph-name="hbar" unicode="&#x127;" horiz-adv-x="666" 
d="M658 484v-73h-62v-411h-132v224h-261v-224h-132v411h-63v73h63v66h132v-66h261v66h132v-66h62zM464 339v72h-261v-72h261z" />
    <glyph glyph-name="Itilde" unicode="&#x128;" horiz-adv-x="274" 
d="M117 762q-25 27 -40 27q-36 0 -36 -62h-67q0 64 28 99t80 35q38 0 75 -41q26 -26 41 -26q36 0 36 61h67q0 -64 -27.5 -99t-79.5 -35q-40 0 -77 41zM66 0v667h142v-667h-142z" />
    <glyph glyph-name="itilde" unicode="&#x129;" horiz-adv-x="258" 
d="M109 645q-25 27 -40 27q-36 0 -36 -62h-67q0 64 28 99t80 35q38 0 75 -41q26 -26 41 -26q36 0 36 61h67q0 -64 -27.5 -99t-79.5 -35q-40 0 -77 41zM63 0v550h132v-550h-132z" />
    <glyph glyph-name="Imacron" unicode="&#x12a;" horiz-adv-x="274" 
d="M-31 729v72h335v-72h-335zM66 0v667h142v-667h-142z" />
    <glyph glyph-name="imacron" unicode="&#x12b;" horiz-adv-x="258" 
d="M-39 612v72h335v-72h-335zM63 0v550h132v-550h-132z" />
    <glyph glyph-name="Ibreve" unicode="&#x12c;" horiz-adv-x="274" 
d="M137 720q-109 0 -176 88l56 46q45 -62 120 -62q73 0 119 62l56 -46q-65 -88 -175 -88zM66 0v667h142v-667h-142z" />
    <glyph glyph-name="ibreve" unicode="&#x12d;" horiz-adv-x="258" 
d="M129 603q-109 0 -176 88l56 46q45 -62 120 -62q73 0 119 62l56 -46q-65 -88 -175 -88zM63 0v550h132v-550h-132z" />
    <glyph glyph-name="Iogonek" unicode="&#x12e;" horiz-adv-x="274" 
d="M66 667h142v-667q-88 -26 -88 -76q0 -14 10 -22.5t24 -8.5q15 0 29 7l24 -68q-32 -18 -88 -18q-46 0 -79.5 20t-33.5 60q0 64 108 106h-48v667z" />
    <glyph glyph-name="iogonek" unicode="&#x12f;" horiz-adv-x="258" 
d="M195 0q-88 -26 -88 -76q0 -14 10 -22.5t24 -8.5q15 0 29 7l24 -68q-32 -18 -88 -18q-46 0 -80 20t-34 60q0 63 109 106h-38v550h132v-550z" />
    <glyph glyph-name="Idotaccent" unicode="&#x130;" horiz-adv-x="274" 
d="M70 788q0 28 20 48t48 20t47.5 -20t19.5 -48t-19.5 -48t-47.5 -20t-48 20t-20 48zM66 0v667h142v-667h-142z" />
    <glyph glyph-name="dotlessi" unicode="&#x131;" horiz-adv-x="253" 
d="M63 0v483h127v-483h-127z" />
    <glyph glyph-name="IJ" unicode="&#x132;" horiz-adv-x="760" 
d="M66 0v667h142v-667h-142zM280 53l62 109q50 -48 106 -48q47 0 75.5 29t28.5 78v446h142v-448q0 -114 -64 -172.5t-171 -58.5q-113 0 -179 65z" />
    <glyph glyph-name="ij" unicode="&#x133;" horiz-adv-x="690" 
d="M63 0v550h132v-550h-132zM262 47l53 100q39 -43 90 -43q41 0 65.5 23.5t24.5 63.5v359h133v-370q0 -96 -57 -144t-156 -48q-94 0 -153 59z" />
    <glyph glyph-name="Jcircumflex" unicode="&#x134;" horiz-adv-x="486" 
d="M425 740l-73 89l-71 -89h-78l92 144h114l94 -144h-78zM6 53l62 109q50 -48 106 -48q47 0 75.5 29t28.5 78v446h142v-448q0 -114 -64 -172.5t-171 -58.5q-113 0 -179 65z" />
    <glyph glyph-name="jcircumflex" unicode="&#x135;" horiz-adv-x="433" 
d="M379 606l-73 89l-71 -89h-78l92 144h114l94 -144h-78zM4 47l53 100q39 -43 90 -43q41 0 65.5 23.5t24.5 63.5v359h133v-370q0 -96 -57 -144t-156 -48q-94 0 -153 59z" />
    <glyph glyph-name="uni0136" unicode="&#x136;" horiz-adv-x="636" 
d="M462 0l-202 267l-52 -62v-205h-142v667h142v-298l236 298h175l-265 -313l283 -354h-175zM311 -288l-44 35q21 12 40 35t23 44q-4 -2 -15 -2q-23 0 -38 15.5t-15 40.5q0 26 18 44.5t43 18.5q29 0 50 -22t21 -59q0 -91 -83 -150z" />
    <glyph glyph-name="uni0137" unicode="&#x137;" horiz-adv-x="566" 
d="M405 0l-170 215l-40 -46v-169h-132v550h132v-233l195 233h160l-230 -259l245 -291h-160zM273 -288l-44 35q21 12 40 35t23 44q-4 -2 -15 -2q-23 0 -38 15.5t-15 40.5q0 26 18 44.5t43 18.5q29 0 50 -22t21 -59q0 -91 -83 -150z" />
    <glyph glyph-name="kgreenlandic" unicode="&#x138;" horiz-adv-x="535" 
d="M376 0l-128 186l-58 -62v-124h-127v483h127v-215l183 215h156l-191 -219l197 -264h-159z" />
    <glyph glyph-name="Lacute" unicode="&#x139;" horiz-adv-x="523" 
d="M320 723h-89l134 144h117zM66 0v667h142v-542h282v-125h-424z" />
    <glyph glyph-name="lacute" unicode="&#x13a;" horiz-adv-x="468" 
d="M291 606h-89l134 144h117zM63 0v550h132v-435h242v-115h-374z" />
    <glyph glyph-name="uni013B" unicode="&#x13b;" horiz-adv-x="523" 
d="M66 0v667h142v-542h282v-125h-424zM266 -288l-44 35q21 12 40 35t23 44q-4 -2 -15 -2q-23 0 -38 15.5t-15 40.5q0 26 18 44.5t43 18.5q29 0 50 -22t21 -59q0 -91 -83 -150z" />
    <glyph glyph-name="uni013C" unicode="&#x13c;" horiz-adv-x="468" 
d="M63 0v550h132v-435h242v-115h-374zM238 -288l-44 35q21 12 40 35t23 44q-4 -2 -15 -2q-23 0 -38 15.5t-15 40.5q0 26 18 44.5t43 18.5q29 0 50 -22t21 -59q0 -91 -83 -150z" />
    <glyph glyph-name="Lcaron" unicode="&#x13d;" horiz-adv-x="523" 
d="M337 449l-43 35q21 12 40 35t23 44q-6 -2 -16 -2q-22 0 -37.5 16t-15.5 40q0 26 18 44.5t44 18.5q29 0 49.5 -22t20.5 -59q0 -91 -83 -150zM66 0v667h142v-542h282v-125h-424z" />
    <glyph glyph-name="lcaron" unicode="&#x13e;" horiz-adv-x="468" 
d="M307 328l-44 35q21 12 40 35t23 44q-4 -2 -16 -2q-22 0 -37.5 15.5t-15.5 40.5q0 26 18 44.5t44 18.5q29 0 49.5 -22t20.5 -60q0 -44 -22.5 -83.5t-59.5 -65.5zM63 0v550h132v-435h242v-115h-374z" />
    <glyph glyph-name="Ldot" unicode="&#x13f;" horiz-adv-x="542" 
d="M66 0v667h142v-542h282v-125h-424zM407 261q-33 0 -57 24t-24 56q0 33 24 57t57 24t56.5 -24t23.5 -57q0 -32 -23.5 -56t-56.5 -24z" />
    <glyph glyph-name="ldot" unicode="&#x140;" horiz-adv-x="499" 
d="M63 0v550h132v-435h242v-115h-374zM382 223q-33 0 -57 24.5t-24 56.5q0 33 24 57t57 24t57 -24t24 -57q0 -32 -24 -56.5t-57 -24.5z" />
    <glyph glyph-name="Lslash" unicode="&#x141;" horiz-adv-x="537" 
d="M222 125h282v-125h-424v233l-72 -41v116l72 41v318h142v-236l77 44v-116l-77 -44v-190z" />
    <glyph glyph-name="lslash" unicode="&#x142;" horiz-adv-x="479" 
d="M206 115h242v-115h-374v178l-66 -38v116l66 38v256h132v-180l81 47v-117l-81 -47v-138z" />
    <glyph glyph-name="Nacute" unicode="&#x143;" horiz-adv-x="729" 
d="M406 723h-89l134 144h117zM526 0l-318 448v-448h-142v667h146l309 -432v432h142v-667h-137z" />
    <glyph glyph-name="nacute" unicode="&#x144;" horiz-adv-x="648" 
d="M365 606h-89l134 144h117zM450 0l-255 366v-366h-132v550h142l249 -354v354h132v-550h-136z" />
    <glyph glyph-name="uni0145" unicode="&#x145;" horiz-adv-x="729" 
d="M526 0l-318 448v-448h-142v667h146l309 -432v432h142v-667h-137zM352 -288l-44 35q21 12 40 35t23 44q-4 -2 -15 -2q-23 0 -38 15.5t-15 40.5q0 26 18 44.5t43 18.5q29 0 50 -22t21 -59q0 -91 -83 -150z" />
    <glyph glyph-name="uni0146" unicode="&#x146;" horiz-adv-x="648" 
d="M450 0l-255 366v-366h-132v550h142l249 -354v354h132v-550h-136zM312 -288l-44 35q21 12 40 35t23 44q-4 -2 -15 -2q-23 0 -38 15.5t-15 40.5q0 26 18 44.5t43 18.5q29 0 50 -22t21 -59q0 -91 -83 -150z" />
    <glyph glyph-name="Ncaron" unicode="&#x147;" horiz-adv-x="729" 
d="M308 723l-95 144h78l74 -90l70 90h78l-91 -144h-114zM526 0l-318 448v-448h-142v667h146l309 -432v432h142v-667h-137z" />
    <glyph glyph-name="ncaron" unicode="&#x148;" horiz-adv-x="648" 
d="M267 606l-95 144h78l74 -90l70 90h78l-91 -144h-114zM450 0l-255 366v-366h-132v550h142l249 -354v354h132v-550h-136z" />
    <glyph glyph-name="napostrophe" unicode="&#x149;" 
d="M92 533l-43 35q21 12 40 35t23 44q-6 -2 -16 -2q-22 0 -37.5 16t-15.5 40q0 26 18 44.5t44 18.5q29 0 49.5 -22t20.5 -60q0 -90 -83 -149zM389 0v292q0 90 -89 90q-69 0 -110 -57v-325h-127v483h127v-63q63 75 169 75q78 0 117.5 -41t39.5 -113v-341h-127z" />
    <glyph glyph-name="Eng" unicode="&#x14a;" horiz-adv-x="729" 
d="M521 667h142v-633q0 -114 -64 -172t-171 -58q-112 0 -180 65l63 109q48 -48 106 -48q40 0 67 21.5t34 59.5l-310 431v-442h-142v667h146l309 -426v426z" />
    <glyph glyph-name="eng" unicode="&#x14b;" horiz-adv-x="648" 
d="M454 550h132v-554q0 -96 -57 -144t-156 -48q-94 0 -153 59l52 100q39 -43 91 -43q38 0 62 21t28 56l-258 354v-351h-132v550h142l249 -339v339z" />
    <glyph glyph-name="Omacron" unicode="&#x14c;" horiz-adv-x="765" 
d="M214 729v72h335v-72h-335zM34 333q0 150 98.5 247.5t249.5 97.5q152 0 250.5 -97t98.5 -248t-98.5 -248t-250.5 -97q-151 0 -249.5 97.5t-98.5 247.5zM585 333q0 95 -56 157t-147 62t-146.5 -62t-55.5 -157t55.5 -157t146.5 -62t147 62t56 157z" />
    <glyph glyph-name="omacron" unicode="&#x14d;" horiz-adv-x="655" 
d="M159 612v72h335v-72h-335zM32 275q0 125 82.5 206t212.5 81t212.5 -81t82.5 -206t-82.5 -206t-212.5 -81t-212.5 81t-82.5 206zM488 275q0 74 -44.5 122.5t-116.5 48.5t-116.5 -48.5t-44.5 -122.5q0 -73 44.5 -122t116.5 -49t116.5 49t44.5 122z" />
    <glyph glyph-name="Obreve" unicode="&#x14e;" horiz-adv-x="765" 
d="M382 720q-109 0 -176 88l56 46q45 -62 120 -62q73 0 119 62l56 -46q-65 -88 -175 -88zM34 333q0 150 98.5 247.5t249.5 97.5q152 0 250.5 -97t98.5 -248t-98.5 -248t-250.5 -97q-151 0 -249.5 97.5t-98.5 247.5zM585 333q0 95 -56 157t-147 62t-146.5 -62t-55.5 -157
t55.5 -157t146.5 -62t147 62t56 157z" />
    <glyph glyph-name="obreve" unicode="&#x14f;" horiz-adv-x="655" 
d="M327 603q-109 0 -176 88l56 46q45 -62 120 -62q73 0 119 62l56 -46q-65 -88 -175 -88zM32 275q0 125 82.5 206t212.5 81t212.5 -81t82.5 -206t-82.5 -206t-212.5 -81t-212.5 81t-82.5 206zM488 275q0 74 -44.5 122.5t-116.5 48.5t-116.5 -48.5t-44.5 -122.5
q0 -73 44.5 -122t116.5 -49t116.5 49t44.5 122z" />
    <glyph glyph-name="Ohungarumlaut" unicode="&#x150;" horiz-adv-x="765" 
d="M341 723h-74l87 144h102zM490 723h-74l87 144h102zM34 333q0 150 98.5 247.5t249.5 97.5q152 0 250.5 -97t98.5 -248t-98.5 -248t-250.5 -97q-151 0 -249.5 97.5t-98.5 247.5zM585 333q0 95 -56 157t-147 62t-146.5 -62t-55.5 -157t55.5 -157t146.5 -62t147 62t56 157z
" />
    <glyph glyph-name="ohungarumlaut" unicode="&#x151;" horiz-adv-x="655" 
d="M287 606h-74l87 144h102zM436 606h-74l87 144h102zM32 275q0 125 82.5 206t212.5 81t212.5 -81t82.5 -206t-82.5 -206t-212.5 -81t-212.5 81t-82.5 206zM488 275q0 74 -44.5 122.5t-116.5 48.5t-116.5 -48.5t-44.5 -122.5q0 -73 44.5 -122t116.5 -49t116.5 49t44.5 122z
" />
    <glyph glyph-name="OE" unicode="&#x152;" horiz-adv-x="1084" 
d="M569 0v78q-32 -43 -87.5 -66.5t-113.5 -23.5q-146 0 -240 97t-94 248t94 247.5t240 96.5q58 0 113.5 -23t87.5 -66v79h472v-122h-329v-145h322v-122h-322v-155h329v-123h-472zM569 436q-24 56 -71.5 85.5t-109.5 29.5q-95 0 -151.5 -61t-56.5 -157q0 -95 56.5 -157
t151.5 -62q61 0 109 30.5t72 85.5v206z" />
    <glyph glyph-name="oe" unicode="&#x153;" horiz-adv-x="929" 
d="M472 0v68q-60 -80 -169 -80q-119 0 -195 81t-76 206t76 206t195 81q109 0 169 -79v67h415v-111h-283v-104h277v-111h-277v-112h283v-112h-415zM472 352q-40 94 -143 94q-74 0 -118.5 -48.5t-44.5 -122.5t44.5 -122.5t118.5 -48.5q103 0 143 95v153z" />
    <glyph glyph-name="Racute" unicode="&#x154;" horiz-adv-x="643" 
d="M364 723h-89l134 144h117zM443 0l-131 239h-104v-239h-142v667h312q103 0 163.5 -60t60.5 -155q0 -82 -42.5 -133t-103.5 -65l150 -254h-163zM457 453q0 41 -28.5 66.5t-71.5 25.5h-149v-184h149q43 0 71.5 25.5t28.5 66.5z" />
    <glyph glyph-name="racute" unicode="&#x155;" horiz-adv-x="573" 
d="M335 606h-89l134 144h117zM388 0l-110 190h-83v-190h-132v550h278q89 0 141 -51t52 -128q0 -71 -37.5 -115t-89.5 -54l132 -202h-151zM400 371q0 30 -20 49t-56 19h-129v-137h129q36 0 56 19.5t20 49.5z" />
    <glyph glyph-name="uni0156" unicode="&#x156;" horiz-adv-x="643" 
d="M443 0l-131 239h-104v-239h-142v667h312q103 0 163.5 -60t60.5 -155q0 -82 -42.5 -133t-103.5 -65l150 -254h-163zM457 453q0 41 -28.5 66.5t-71.5 25.5h-149v-184h149q43 0 71.5 25.5t28.5 66.5zM311 -288l-44 35q21 12 40 35t23 44q-4 -2 -15 -2q-23 0 -38 15.5
t-15 40.5q0 26 18 44.5t43 18.5q29 0 50 -22t21 -59q0 -91 -83 -150z" />
    <glyph glyph-name="uni0157" unicode="&#x157;" horiz-adv-x="573" 
d="M388 0l-110 190h-83v-190h-132v550h278q89 0 141 -51t52 -128q0 -71 -37.5 -115t-89.5 -54l132 -202h-151zM400 371q0 30 -20 49t-56 19h-129v-137h129q36 0 56 19.5t20 49.5zM283 -288l-44 35q21 12 40 35t23 44q-4 -2 -15 -2q-23 0 -38 15.5t-15 40.5q0 26 18 44.5
t43 18.5q29 0 50 -22t21 -59q0 -91 -83 -150z" />
    <glyph glyph-name="Rcaron" unicode="&#x158;" horiz-adv-x="643" 
d="M267 723l-95 144h78l74 -90l70 90h78l-91 -144h-114zM443 0l-131 239h-104v-239h-142v667h312q103 0 163.5 -60t60.5 -155q0 -82 -42.5 -133t-103.5 -65l150 -254h-163zM457 453q0 41 -28.5 66.5t-71.5 25.5h-149v-184h149q43 0 71.5 25.5t28.5 66.5z" />
    <glyph glyph-name="rcaron" unicode="&#x159;" horiz-adv-x="573" 
d="M237 606l-95 144h78l74 -90l70 90h78l-91 -144h-114zM388 0l-110 190h-83v-190h-132v550h278q89 0 141 -51t52 -128q0 -71 -37.5 -115t-89.5 -54l132 -202h-151zM400 371q0 30 -20 49t-56 19h-129v-137h129q36 0 56 19.5t20 49.5z" />
    <glyph glyph-name="Sacute" unicode="&#x15a;" horiz-adv-x="600" 
d="M336 723h-89l134 144h117zM21 94l77 108q86 -90 212 -90q55 0 85.5 22t30.5 53q0 34 -33 51.5t-102 33.5q-34 8 -49 11.5t-47 13.5t-48.5 19t-40 25t-35 34t-20.5 44t-9 57q0 86 69 143.5t184 57.5q159 0 260 -93l-79 -104q-79 73 -191 73q-47 0 -72.5 -18.5t-25.5 -49.5
t31 -45.5t102 -31.5q31 -7 49 -11.5t48 -14.5t48 -19.5t40.5 -25.5t35 -34t21 -44t8.5 -57q0 -96 -68.5 -155t-198.5 -59q-178 0 -282 106z" />
    <glyph glyph-name="sacute" unicode="&#x15b;" horiz-adv-x="516" 
d="M297 606h-89l134 144h117zM18 71l60 99q30 -30 80 -51t102 -21q49 0 73.5 17t24.5 43q0 13 -8 23t-25.5 17.5t-33 11.5t-43.5 10q-29 6 -42 9t-40 11t-41 15.5t-34 21t-30 28.5t-17.5 37.5t-7.5 48.5q0 72 61 121.5t159 49.5q136 0 225 -79l-62 -92q-31 28 -76.5 44
t-87.5 16q-39 0 -62 -15.5t-23 -39.5q0 -11 7 -19.5t25.5 -15.5t31 -10t42.5 -10q37 -8 59 -13.5t56 -19.5t53.5 -30.5t34 -46t14.5 -66.5q0 -81 -62 -129t-175 -48q-76 0 -138 23t-100 60z" />
    <glyph glyph-name="Scircumflex" unicode="&#x15c;" horiz-adv-x="600" 
d="M369 723l-73 89l-71 -89h-78l92 144h114l94 -144h-78zM21 94l77 108q86 -90 212 -90q55 0 85.5 22t30.5 53q0 34 -33 51.5t-102 33.5q-34 8 -49 11.5t-47 13.5t-48.5 19t-40 25t-35 34t-20.5 44t-9 57q0 86 69 143.5t184 57.5q159 0 260 -93l-79 -104q-79 73 -191 73
q-47 0 -72.5 -18.5t-25.5 -49.5t31 -45.5t102 -31.5q31 -7 49 -11.5t48 -14.5t48 -19.5t40.5 -25.5t35 -34t21 -44t8.5 -57q0 -96 -68.5 -155t-198.5 -59q-178 0 -282 106z" />
    <glyph glyph-name="scircumflex" unicode="&#x15d;" horiz-adv-x="516" 
d="M330 606l-73 89l-71 -89h-78l92 144h114l94 -144h-78zM18 71l60 99q30 -30 80 -51t102 -21q49 0 73.5 17t24.5 43q0 13 -8 23t-25.5 17.5t-33 11.5t-43.5 10q-29 6 -42 9t-40 11t-41 15.5t-34 21t-30 28.5t-17.5 37.5t-7.5 48.5q0 72 61 121.5t159 49.5q136 0 225 -79
l-62 -92q-31 28 -76.5 44t-87.5 16q-39 0 -62 -15.5t-23 -39.5q0 -11 7 -19.5t25.5 -15.5t31 -10t42.5 -10q37 -8 59 -13.5t56 -19.5t53.5 -30.5t34 -46t14.5 -66.5q0 -81 -62 -129t-175 -48q-76 0 -138 23t-100 60z" />
    <glyph glyph-name="uni015E" unicode="&#x15e;" horiz-adv-x="600" 
d="M570 202q0 -92 -63.5 -150.5t-183.5 -63.5l-17 -39q14 10 36 10q28 0 47.5 -19.5t19.5 -49.5q0 -39 -32 -62.5t-79 -23.5q-70 0 -110 32l25 52q38 -30 81 -30q22 0 37 9t15 25q0 25 -29 25q-18 0 -32 -14l-46 26l22 61q-149 11 -240 104l77 108q86 -90 212 -90
q55 0 85.5 22t30.5 53q0 34 -33 51.5t-102 33.5q-34 8 -49 11.5t-47 13.5t-48.5 19t-40 25t-35 34t-20.5 44t-9 57q0 86 69 143.5t184 57.5q159 0 260 -93l-79 -104q-79 73 -191 73q-47 0 -72.5 -18.5t-25.5 -49.5t31 -45.5t102 -31.5q31 -7 49 -11.5t48 -14.5t48 -19.5
t40.5 -25.5t35 -34t21 -44t8.5 -57z" />
    <glyph glyph-name="uni015F" unicode="&#x15f;" horiz-adv-x="516" 
d="M493 165q0 -76 -54 -123t-155 -53l-17 -40q14 10 36 10q28 0 47.5 -19.5t19.5 -49.5q0 -39 -32 -62.5t-79 -23.5q-70 0 -110 32l25 52q38 -30 81 -30q22 0 37 9t15 25q0 25 -29 25q-18 0 -32 -14l-46 26l22 60q-131 10 -204 82l60 99q30 -30 80 -51t102 -21q49 0 73.5 17
t24.5 43q0 13 -8 23t-25.5 17.5t-33 11.5t-43.5 10q-29 6 -42 9t-40 11t-41 15.5t-34 21t-30 28.5t-17.5 37.5t-7.5 48.5q0 72 61 121.5t159 49.5q136 0 225 -79l-62 -92q-31 28 -76.5 44t-87.5 16q-39 0 -62 -15.5t-23 -39.5q0 -11 7 -19.5t25.5 -15.5t31 -10t42.5 -10
q37 -8 59 -13.5t56 -19.5t53.5 -30.5t34 -46t14.5 -66.5z" />
    <glyph glyph-name="Scaron" unicode="&#x160;" horiz-adv-x="600" 
d="M239 723l-95 144h78l74 -90l70 90h78l-91 -144h-114zM21 94l77 108q86 -90 212 -90q55 0 85.5 22t30.5 53q0 34 -33 51.5t-102 33.5q-34 8 -49 11.5t-47 13.5t-48.5 19t-40 25t-35 34t-20.5 44t-9 57q0 86 69 143.5t184 57.5q159 0 260 -93l-79 -104q-79 73 -191 73
q-47 0 -72.5 -18.5t-25.5 -49.5t31 -45.5t102 -31.5q31 -7 49 -11.5t48 -14.5t48 -19.5t40.5 -25.5t35 -34t21 -44t8.5 -57q0 -96 -68.5 -155t-198.5 -59q-178 0 -282 106z" />
    <glyph glyph-name="scaron" unicode="&#x161;" horiz-adv-x="516" 
d="M200 606l-95 144h78l74 -90l70 90h78l-91 -144h-114zM18 71l60 99q30 -30 80 -51t102 -21q49 0 73.5 17t24.5 43q0 13 -8 23t-25.5 17.5t-33 11.5t-43.5 10q-29 6 -42 9t-40 11t-41 15.5t-34 21t-30 28.5t-17.5 37.5t-7.5 48.5q0 72 61 121.5t159 49.5q136 0 225 -79
l-62 -92q-31 28 -76.5 44t-87.5 16q-39 0 -62 -15.5t-23 -39.5q0 -11 7 -19.5t25.5 -15.5t31 -10t42.5 -10q37 -8 59 -13.5t56 -19.5t53.5 -30.5t34 -46t14.5 -66.5q0 -81 -62 -129t-175 -48q-76 0 -138 23t-100 60z" />
    <glyph glyph-name="uni0162" unicode="&#x162;" horiz-adv-x="582" 
d="M220 0v542h-195v125h532v-125h-194v-542h-143zM279 -288l-44 35q21 12 40 35t23 44q-4 -2 -15 -2q-23 0 -38 15.5t-15 40.5q0 26 18 44.5t43 18.5q29 0 50 -22t21 -59q0 -91 -83 -150z" />
    <glyph glyph-name="uni0163" unicode="&#x163;" horiz-adv-x="486" 
d="M177 0v435h-156v115h445v-115h-157v-435h-132zM231 -288l-44 35q21 12 40 35t23 44q-4 -2 -15 -2q-23 0 -38 15.5t-15 40.5q0 26 18 44.5t43 18.5q29 0 50 -22t21 -59q0 -91 -83 -150z" />
    <glyph glyph-name="Tcaron" unicode="&#x164;" horiz-adv-x="582" 
d="M235 723l-95 144h78l74 -90l70 90h78l-91 -144h-114zM220 0v542h-195v125h532v-125h-194v-542h-143z" />
    <glyph glyph-name="tcaron" unicode="&#x165;" horiz-adv-x="486" 
d="M187 606l-95 144h78l74 -90l70 90h78l-91 -144h-114zM177 0v435h-156v115h445v-115h-157v-435h-132z" />
    <glyph glyph-name="Tbar" unicode="&#x166;" horiz-adv-x="582" 
d="M557 542h-194v-207h134v-72h-134v-263h-143v263h-133v72h133v207h-195v125h532v-125z" />
    <glyph glyph-name="tbar" unicode="&#x167;" horiz-adv-x="486" 
d="M466 435h-157v-156h104v-73h-104v-206h-132v206h-102v73h102v156h-156v115h445v-115z" />
    <glyph glyph-name="Utilde" unicode="&#x168;" horiz-adv-x="728" 
d="M345 762q-25 27 -40 27q-36 0 -36 -62h-67q0 64 28 99t80 35q38 0 75 -41q26 -26 41 -26q36 0 36 61h67q0 -64 -27.5 -99t-79.5 -35q-40 0 -77 41zM66 266v401h144v-396q0 -72 39.5 -114.5t115.5 -42.5q74 0 113.5 42.5t39.5 114.5v396h144v-400q0 -129 -75 -204
t-222 -75q-148 0 -223.5 75t-75.5 203z" />
    <glyph glyph-name="utilde" unicode="&#x169;" horiz-adv-x="646" 
d="M303 645q-25 27 -40 27q-36 0 -36 -62h-67q0 64 28 99t80 35q38 0 75 -41q26 -26 41 -26q36 0 36 61h67q0 -64 -27.5 -99t-79.5 -35q-40 0 -77 41zM63 218v332h133v-321q0 -57 33.5 -91t93.5 -34t93.5 34t33.5 91v321h133v-331q0 -106 -66 -168.5t-194 -62.5t-194 62
t-66 168z" />
    <glyph glyph-name="Umacron" unicode="&#x16a;" horiz-adv-x="728" 
d="M197 729v72h335v-72h-335zM66 266v401h144v-396q0 -72 39.5 -114.5t115.5 -42.5q74 0 113.5 42.5t39.5 114.5v396h144v-400q0 -129 -75 -204t-222 -75q-148 0 -223.5 75t-75.5 203z" />
    <glyph glyph-name="umacron" unicode="&#x16b;" horiz-adv-x="646" 
d="M155 612v72h335v-72h-335zM63 218v332h133v-321q0 -57 33.5 -91t93.5 -34t93.5 34t33.5 91v321h133v-331q0 -106 -66 -168.5t-194 -62.5t-194 62t-66 168z" />
    <glyph glyph-name="Ubreve" unicode="&#x16c;" horiz-adv-x="728" 
d="M365 720q-109 0 -176 88l56 46q45 -62 120 -62q73 0 119 62l56 -46q-65 -88 -175 -88zM66 266v401h144v-396q0 -72 39.5 -114.5t115.5 -42.5q74 0 113.5 42.5t39.5 114.5v396h144v-400q0 -129 -75 -204t-222 -75q-148 0 -223.5 75t-75.5 203z" />
    <glyph glyph-name="ubreve" unicode="&#x16d;" horiz-adv-x="646" 
d="M323 603q-109 0 -176 88l56 46q45 -62 120 -62q73 0 119 62l56 -46q-65 -88 -175 -88zM63 218v332h133v-321q0 -57 33.5 -91t93.5 -34t93.5 34t33.5 91v321h133v-331q0 -106 -66 -168.5t-194 -62.5t-194 62t-66 168z" />
    <glyph glyph-name="Uring" unicode="&#x16e;" horiz-adv-x="728" 
d="M261 803q0 43 31 74.5t74 31.5t73.5 -31.5t30.5 -74.5q0 -44 -30.5 -74.5t-73.5 -30.5t-74 31t-31 74zM412 803q0 20 -13.5 33.5t-32.5 13.5t-33 -14t-14 -33t14 -33t33 -14t32.5 14t13.5 33zM66 266v401h144v-396q0 -72 39.5 -114.5t115.5 -42.5q74 0 113.5 42.5
t39.5 114.5v396h144v-400q0 -129 -75 -204t-222 -75q-148 0 -223.5 75t-75.5 203z" />
    <glyph glyph-name="uring" unicode="&#x16f;" horiz-adv-x="646" 
d="M219 686q0 43 31 74.5t74 31.5t73.5 -31.5t30.5 -74.5q0 -44 -30.5 -74.5t-73.5 -30.5t-74 31t-31 74zM370 686q0 20 -13.5 33.5t-32.5 13.5t-33 -14t-14 -33t14 -33t33 -14t32.5 14t13.5 33zM63 218v332h133v-321q0 -57 33.5 -91t93.5 -34t93.5 34t33.5 91v321h133v-331
q0 -106 -66 -168.5t-194 -62.5t-194 62t-66 168z" />
    <glyph glyph-name="Uhungarumlaut" unicode="&#x170;" horiz-adv-x="728" 
d="M324 723h-74l87 144h102zM473 723h-74l87 144h102zM66 266v401h144v-396q0 -72 39.5 -114.5t115.5 -42.5q74 0 113.5 42.5t39.5 114.5v396h144v-400q0 -129 -75 -204t-222 -75q-148 0 -223.5 75t-75.5 203z" />
    <glyph glyph-name="uhungarumlaut" unicode="&#x171;" horiz-adv-x="646" 
d="M283 606h-74l87 144h102zM432 606h-74l87 144h102zM63 218v332h133v-321q0 -57 33.5 -91t93.5 -34t93.5 34t33.5 91v321h133v-331q0 -106 -66 -168.5t-194 -62.5t-194 62t-66 168z" />
    <glyph glyph-name="Uogonek" unicode="&#x172;" horiz-adv-x="728" 
d="M66 266v401h144v-396q0 -72 39.5 -114.5t115.5 -42.5q74 0 113.5 42.5t39.5 114.5v396h144v-400q0 -200 -164 -258q-100 -36 -100 -85q0 -14 10 -22.5t24 -8.5q15 0 28 7l25 -68q-33 -18 -88 -18q-46 0 -80 20t-34 60q0 58 85 94h-3q-148 0 -223.5 75t-75.5 203z" />
    <glyph glyph-name="uogonek" unicode="&#x173;" horiz-adv-x="646" 
d="M63 218v332h133v-321q0 -57 33.5 -91t93.5 -34t93.5 34t33.5 91v321h133v-331q0 -152 -125 -206q-56 -23 -79 -44t-23 -45q0 -14 10 -22.5t24 -8.5q15 0 28 7l25 -68q-33 -18 -88 -18q-46 0 -80 20t-34 60q0 29 23.5 54t61.5 40h-3q-128 0 -194 62t-66 168z" />
    <glyph glyph-name="Wcircumflex" unicode="&#x174;" horiz-adv-x="918" 
d="M532 723l-73 89l-71 -89h-78l92 144h114l94 -144h-78zM576 0l-117 458l-116 -458h-151l-191 667h159l117 -482l127 482h111l126 -482l116 482h160l-190 -667h-151z" />
    <glyph glyph-name="wcircumflex" unicode="&#x175;" horiz-adv-x="797" 
d="M472 606l-73 89l-71 -89h-78l92 144h114l94 -144h-78zM494 0l-96 358l-95 -358h-138l-166 550h148l95 -376l105 376h103l105 -377l96 377h147l-166 -550h-138z" />
    <glyph glyph-name="Ycircumflex" unicode="&#x176;" horiz-adv-x="645" 
d="M397 723l-73 89l-71 -89h-78l92 144h114l94 -144h-78zM252 0v273l-257 394h162l166 -268l164 268h162l-255 -394v-273h-142z" />
    <glyph glyph-name="ycircumflex" unicode="&#x177;" horiz-adv-x="565" 
d="M355 606l-73 89l-71 -89h-78l92 144h114l94 -144h-78zM218 0v226l-223 324h149l140 -213l137 213h149l-221 -324v-226h-131z" />
    <glyph glyph-name="Ydieresis" unicode="&#x178;" horiz-adv-x="645" 
d="M218 721q-29 0 -48.5 19.5t-19.5 48.5q0 28 20 47.5t48 19.5t47.5 -19.5t19.5 -47.5q0 -29 -19.5 -48.5t-47.5 -19.5zM429 721q-28 0 -48 19.5t-20 48.5q0 28 20 47.5t48 19.5t48 -19.5t20 -47.5q0 -29 -20 -48.5t-48 -19.5zM252 0v273l-257 394h162l166 -268l164 268
h162l-255 -394v-273h-142z" />
    <glyph glyph-name="Zacute" unicode="&#x179;" horiz-adv-x="592" 
d="M338 723h-89l134 144h117zM42 0v115l315 427h-315v125h501v-114l-315 -428h322v-125h-508z" />
    <glyph glyph-name="zacute" unicode="&#x17a;" horiz-adv-x="523" 
d="M303 606h-89l134 144h117zM36 0v96l263 338h-263v116h445v-96l-262 -338h269v-116h-452z" />
    <glyph glyph-name="Zdotaccent" unicode="&#x17b;" horiz-adv-x="592" 
d="M229 788q0 28 20 48t48 20t47.5 -20t19.5 -48t-19.5 -48t-47.5 -20t-48 20t-20 48zM42 0v115l315 427h-315v125h501v-114l-315 -428h322v-125h-508z" />
    <glyph glyph-name="zdotaccent" unicode="&#x17c;" horiz-adv-x="523" 
d="M194 671q0 28 20 48t48 20t47.5 -20t19.5 -48t-19.5 -48t-47.5 -20t-48 20t-20 48zM36 0v96l263 338h-263v116h445v-96l-262 -338h269v-116h-452z" />
    <glyph glyph-name="Zcaron" unicode="&#x17d;" horiz-adv-x="592" 
d="M240 723l-95 144h78l74 -90l70 90h78l-91 -144h-114zM42 0v115l315 427h-315v125h501v-114l-315 -428h322v-125h-508z" />
    <glyph glyph-name="zcaron" unicode="&#x17e;" horiz-adv-x="523" 
d="M204 606l-94 144h78l74 -90l70 90h78l-92 -144h-114zM36 0v96l263 338h-263v116h445v-96l-262 -338h269v-116h-452z" />
    <glyph glyph-name="longs" unicode="&#x17f;" horiz-adv-x="327" 
d="M91 0v372h-80v111h80v26q0 77 45.5 122.5t117.5 45.5q54 0 92 -20l-26 -90q-16 10 -41 10q-28 0 -44 -18t-16 -52v-507h-128z" />
    <glyph glyph-name="uni018F" unicode="&#x18f;" horiz-adv-x="744" 
d="M355 678q150 0 252.5 -95t102.5 -250q0 -154 -99 -250t-240 -96q-161 0 -253.5 103.5t-92.5 286.5h535q-14 78 -70 126.5t-135 48.5q-51 0 -92.5 -24.5t-65.5 -62.5l-119 64q96 149 277 149zM360 113q70 0 121.5 39.5t70.5 105.5h-370q12 -64 59.5 -104.5t118.5 -40.5z
" />
    <glyph glyph-name="uni0192" unicode="&#x192;" horiz-adv-x="397" 
d="M13 -119l72 322h-42v90h62l23 102q37 166 175 166q66 0 104 -39l-45 -102q-10 16 -35 16q-45 0 -59 -63l-18 -80h84v-90h-104l-72 -322h-145z" />
    <glyph glyph-name="Ohorn" unicode="&#x1a0;" horiz-adv-x="765" 
d="M742 666q0 -80 -70 -133q59 -88 59 -200q0 -151 -98.5 -248t-250.5 -97q-151 0 -249.5 97.5t-98.5 247.5t98.5 247.5t249.5 97.5q161 0 260 -107q36 29 44 63q-4 -2 -14 -2q-20 0 -34 14.5t-14 36.5q0 23 16 39.5t39 16.5q26 0 44.5 -19.5t18.5 -53.5zM382 114
q91 0 147 62t56 157t-56 157t-147 62t-146.5 -62t-55.5 -157t55.5 -157t146.5 -62z" />
    <glyph glyph-name="ohorn" unicode="&#x1a1;" horiz-adv-x="655" 
d="M652 549q0 -78 -66 -129q36 -63 36 -145q0 -125 -82.5 -206t-212.5 -81t-212.5 81t-82.5 206t82.5 206t212.5 81q148 0 232 -102q29 28 37 57q-6 -2 -14 -2q-21 0 -34.5 14.5t-13.5 36.5q0 23 16 39.5t39 16.5q26 0 44.5 -19.5t18.5 -53.5zM327 104q72 0 116.5 49
t44.5 122q0 74 -44.5 122.5t-116.5 48.5t-116.5 -48.5t-44.5 -122.5q0 -73 44.5 -122t116.5 -49z" />
    <glyph glyph-name="Uhorn" unicode="&#x1af;" horiz-adv-x="728" 
d="M772 726q0 -45 -29 -88t-81 -67v-304q0 -129 -75 -204t-222 -75q-148 0 -223.5 75t-75.5 203v401h144v-396q0 -72 39.5 -114.5t115.5 -42.5q74 0 113.5 42.5t39.5 114.5v396h144v-43q46 30 54 72q-4 -3 -14 -3q-21 0 -34.5 14.5t-13.5 37.5t16 39t39 16q26 0 44.5 -20
t18.5 -54z" />
    <glyph glyph-name="uhorn" unicode="&#x1b0;" horiz-adv-x="646" 
d="M685 613q0 -44 -26.5 -85.5t-75.5 -66.5v-242q0 -106 -66 -168.5t-194 -62.5t-194 62t-66 168v332h133v-321q0 -57 33.5 -91t93.5 -34t93.5 34t33.5 91v321h133v-33q39 29 45 65q-3 -3 -13 -3q-21 0 -35 14.5t-14 36.5q0 23 16.5 40t38.5 17q27 0 45.5 -20t18.5 -54z" />
    <glyph glyph-name="AEacute" unicode="&#x1fc;" horiz-adv-x="968" 
d="M565 723h-89l134 144h117zM454 0v115h-240l-67 -115h-156l406 667h529v-122h-329v-145h322v-122h-322v-155h329v-123h-472zM454 545l-174 -307h174v307z" />
    <glyph glyph-name="aeacute" unicode="&#x1fd;" horiz-adv-x="845" 
d="M496 606h-89l134 144h117zM388 0v90h-191l-54 -90h-149l342 550h467v-111h-283v-103h276v-112h-276v-112h283v-112h-415zM388 423l-130 -221h130v221z" />
    <glyph glyph-name="Oslashacute" unicode="&#x1fe;" horiz-adv-x="765" 
d="M570 867l-162 -144h-89l134 144h117zM622 591q109 -99 109 -258q0 -151 -98.5 -248t-250.5 -97q-101 0 -184 47l-27 -35h-102l64 84q-99 99 -99 249t98.5 247.5t249.5 97.5q94 0 173 -41l23 30h102zM180 333q0 -78 39 -136l255 334q-44 21 -92 21q-91 0 -146.5 -62
t-55.5 -157zM382 114q91 0 147 62t56 157q0 88 -48 147l-258 -339q46 -27 103 -27z" />
    <glyph glyph-name="oslashacute" unicode="&#x1ff;" horiz-adv-x="655" 
d="M530 750l-162 -144h-89l134 144h117zM539 481q83 -80 83 -206q0 -125 -82.5 -206t-212.5 -81q-84 0 -149 35l-18 -23h-102l55 70q-81 81 -81 205q0 125 82.5 206t212.5 81q81 0 147 -34l17 22h102zM166 275q0 -58 28 -102l203 258q-30 15 -70 15q-72 0 -116.5 -48.5
t-44.5 -122.5zM327 104q72 0 116.5 49t44.5 122q0 58 -30 104l-203 -259q34 -16 72 -16z" />
    <glyph glyph-name="uni0218" unicode="&#x218;" horiz-adv-x="600" 
d="M21 94l77 108q86 -90 212 -90q55 0 85.5 22t30.5 53q0 34 -33 51.5t-102 33.5q-34 8 -49 11.5t-47 13.5t-48.5 19t-40 25t-35 34t-20.5 44t-9 57q0 86 69 143.5t184 57.5q159 0 260 -93l-79 -104q-79 73 -191 73q-47 0 -72.5 -18.5t-25.5 -49.5t31 -45.5t102 -31.5
q31 -7 49 -11.5t48 -14.5t48 -19.5t40.5 -25.5t35 -34t21 -44t8.5 -57q0 -96 -68.5 -155t-198.5 -59q-178 0 -282 106zM283 -288l-44 35q21 12 40 35t23 44q-4 -2 -15 -2q-23 0 -38 15.5t-15 40.5q0 26 18 44.5t43 18.5q29 0 50 -22t21 -59q0 -91 -83 -150z" />
    <glyph glyph-name="uni0219" unicode="&#x219;" horiz-adv-x="516" 
d="M18 71l60 99q30 -30 80 -51t102 -21q49 0 73.5 17t24.5 43q0 13 -8 23t-25.5 17.5t-33 11.5t-43.5 10q-29 6 -42 9t-40 11t-41 15.5t-34 21t-30 28.5t-17.5 37.5t-7.5 48.5q0 72 61 121.5t159 49.5q136 0 225 -79l-62 -92q-31 28 -76.5 44t-87.5 16q-39 0 -62 -15.5
t-23 -39.5q0 -11 7 -19.5t25.5 -15.5t31 -10t42.5 -10q37 -8 59 -13.5t56 -19.5t53.5 -30.5t34 -46t14.5 -66.5q0 -81 -62 -129t-175 -48q-76 0 -138 23t-100 60zM244 -288l-44 35q21 12 40 35t23 44q-4 -2 -15 -2q-23 0 -38 15.5t-15 40.5q0 26 18 44.5t43 18.5
q29 0 50 -22t21 -59q0 -91 -83 -150z" />
    <glyph glyph-name="uni021A" unicode="&#x21a;" horiz-adv-x="582" 
d="M220 0v542h-195v125h532v-125h-194v-542h-143zM279 -288l-44 35q21 12 40 35t23 44q-4 -2 -15 -2q-23 0 -38 15.5t-15 40.5q0 26 18 44.5t43 18.5q29 0 50 -22t21 -59q0 -91 -83 -150z" />
    <glyph glyph-name="uni021B" unicode="&#x21b;" horiz-adv-x="486" 
d="M177 0v435h-156v115h445v-115h-157v-435h-132zM231 -288l-44 35q21 12 40 35t23 44q-4 -2 -15 -2q-23 0 -38 15.5t-15 40.5q0 26 18 44.5t43 18.5q29 0 50 -22t21 -59q0 -91 -83 -150z" />
    <glyph glyph-name="uni0237" unicode="&#x237;" horiz-adv-x="253" 
d="M-37 -191l8 104q12 -3 28 -3q29 0 46.5 19t17.5 58v496h127v-496q0 -85 -43.5 -134t-128.5 -49q-30 0 -55 5z" />
    <glyph glyph-name="uni0259" unicode="&#x259;" horiz-adv-x="553" 
d="M521 241q0 -107 -70.5 -180t-179.5 -73q-108 0 -175 73.5t-67 192.5v28h359q-6 48 -43 80t-96 32q-33 0 -70 -13t-59 -35l-56 82q71 67 199 67q112 0 185 -70t73 -184zM271 89q54 0 84 32.5t35 74.5h-238q2 -41 32 -74t87 -33z" />
    <glyph glyph-name="uni02B0" unicode="&#x2b0;" horiz-adv-x="411" 
d="M268 326v188q0 56 -57 56q-42 0 -69 -33v-211h-92v434h92v-160q42 48 112 48q53 0 80 -27t27 -76v-219h-93z" />
    <glyph glyph-name="uni02BC" unicode="&#x2bc;" horiz-adv-x="255" 
d="M112 389l-55 45q25 13 48 41t29 54q-6 -4 -19 -4q-29 0 -48.5 20.5t-19.5 51.5q0 33 23 56.5t55 23.5q37 0 63.5 -27.5t26.5 -74.5q0 -55 -28 -103.5t-75 -82.5z" />
    <glyph glyph-name="circumflex" unicode="&#x2c6;" horiz-adv-x="300" 
d="M222 556l-73 89l-71 -89h-78l92 144h114l94 -144h-78z" />
    <glyph glyph-name="caron" unicode="&#x2c7;" horiz-adv-x="300" 
d="M95 556l-95 144h78l74 -90l70 90h78l-91 -144h-114z" />
    <glyph glyph-name="uni02C9" unicode="&#x2c9;" horiz-adv-x="363" 
d="M14 591v73h335v-73h-335z" />
    <glyph glyph-name="uni02CB" unicode="&#x2cb;" horiz-adv-x="251" 
d="M162 556l-162 144h117l134 -144h-89z" />
    <glyph glyph-name="breve" unicode="&#x2d8;" horiz-adv-x="351" 
d="M176 553q-109 0 -176 88l56 46q45 -62 120 -62q73 0 119 62l56 -46q-65 -88 -175 -88z" />
    <glyph glyph-name="dotaccent" unicode="&#x2d9;" horiz-adv-x="159" 
d="M80 689q28 0 47.5 -20t19.5 -48t-19.5 -48t-47.5 -20t-48 20t-20 48t20 48t48 20z" />
    <glyph glyph-name="ring" unicode="&#x2da;" horiz-adv-x="249" 
d="M20 636q0 43 31 74.5t74 31.5t73.5 -31.5t30.5 -74.5q0 -44 -30.5 -74.5t-73.5 -30.5t-74 31t-31 74zM171 636q0 20 -13.5 33.5t-32.5 13.5t-33 -14t-14 -33t14 -33t33 -14t32.5 14t13.5 33z" />
    <glyph glyph-name="ogonek" unicode="&#x2db;" horiz-adv-x="220" 
d="M210 -168q-32 -18 -88 -18q-46 0 -79.5 20t-33.5 60q0 70 128 113l74 -7q-88 -26 -88 -76q0 -14 10 -22.5t24 -8.5q15 0 29 7z" />
    <glyph glyph-name="tilde" unicode="&#x2dc;" horiz-adv-x="327" 
d="M143 595q-25 27 -40 27q-36 0 -36 -62h-67q0 64 28 99t80 35q38 0 75 -41q26 -26 41 -26q36 0 36 61h67q0 -64 -27.5 -99t-79.5 -35q-40 0 -77 41z" />
    <glyph glyph-name="hungarumlaut" unicode="&#x2dd;" horiz-adv-x="338" 
d="M74 556h-74l87 144h102zM223 556h-74l87 144h102z" />
    <glyph glyph-name="uni0309" unicode="&#x309;" horiz-adv-x="0" 
d="M-101 716q44 0 74 -23t30 -70q0 -32 -21 -66h-70q25 29 25 63q0 40 -38 40q-30 0 -44 -36l-59 19q12 35 39.5 54t63.5 19z" />
    <glyph glyph-name="uni037E" unicode="&#x37e;" horiz-adv-x="256" 
d="M128 328q-33 0 -57 24.5t-24 56.5q0 33 24 57t57 24t57 -24t24 -57q0 -32 -24 -56.5t-57 -24.5zM112 -137l-55 45q25 14 48 41.5t29 53.5q-6 -4 -19 -4q-29 0 -48.5 20.5t-19.5 51.5q0 33 23 56.5t55 23.5q37 0 63.5 -27.5t26.5 -74.5q0 -55 -28 -103.5t-75 -82.5z" />
    <glyph glyph-name="tonos" unicode="&#x384;" horiz-adv-x="143" 
d="M9 563l20 213h105l-70 -213h-55z" />
    <glyph glyph-name="dieresistonos" unicode="&#x385;" horiz-adv-x="453" 
d="M181 563l20 213h106l-69 -213h-57zM77 554q-29 0 -48.5 19.5t-19.5 48.5q0 28 19.5 47.5t48.5 19.5q28 0 47.5 -19.5t19.5 -47.5q0 -29 -19.5 -48.5t-47.5 -19.5zM376 554q-28 0 -47.5 19.5t-19.5 48.5q0 28 19.5 47.5t47.5 19.5t48 -19.5t20 -47.5q0 -29 -19.5 -48.5
t-48.5 -19.5z" />
    <glyph glyph-name="Alphatonos" unicode="&#x386;" horiz-adv-x="684" 
d="M96 563l20 213h105l-70 -213h-55zM533 0l-42 115h-298l-42 -115h-156l258 667h178l257 -667h-155zM342 544l-111 -306h221z" />
    <glyph glyph-name="Epsilontonos" unicode="&#x388;" horiz-adv-x="623" 
d="M-18 563l21 213h105l-70 -213h-56zM106 0v667h472v-122h-329v-145h322v-122h-322v-155h329v-123h-472z" />
    <glyph glyph-name="Etatonos" unicode="&#x389;" horiz-adv-x="772" 
d="M-18 563l21 213h105l-70 -213h-56zM563 0v280h-314v-280h-143v667h143v-262h314v262h143v-667h-143z" />
    <glyph glyph-name="Iotatonos" unicode="&#x38a;" horiz-adv-x="315" 
d="M-18 563l21 213h105l-70 -213h-56zM106 0v667h143v-667h-143z" />
    <glyph glyph-name="Omicrontonos" unicode="&#x38c;" horiz-adv-x="753" 
d="M-18 563l21 213h105l-70 -213h-56zM22 333q0 150 98.5 247.5t249.5 97.5q152 0 250.5 -97t98.5 -248t-98.5 -248t-250.5 -97q-151 0 -249.5 97.5t-98.5 247.5zM573 333q0 95 -56 157t-147 62t-146.5 -62t-55.5 -157t55.5 -157t146.5 -62t147 62t56 157z" />
    <glyph glyph-name="Upsilontonos" unicode="&#x38e;" horiz-adv-x="717" 
d="M559 667h162l-255 -394v-273h-143v273l-253 389l-32 -99h-56l21 213h105l-36 -109h157l166 -268z" />
    <glyph glyph-name="Omegatonos" unicode="&#x38f;" horiz-adv-x="772" 
d="M-6 563l21 213h105l-70 -213h-56zM178 125q-137 93 -137 241q0 141 97.5 226.5t250.5 85.5t250.5 -85.5t97.5 -226.5q0 -150 -135 -241h118v-125h-269v125q63 17 102 74.5t39 134.5q0 88 -52 152.5t-151 64.5t-151 -64.5t-52 -152.5q0 -77 39.5 -134.5t102.5 -74.5v-125
h-270v125h120z" />
    <glyph glyph-name="iotadieresistonos" unicode="&#x390;" horiz-adv-x="267" 
d="M98 563l20 213h106l-69 -213h-57zM-7 554q-29 0 -48.5 19.5t-19.5 48.5q0 28 20 47.5t48 19.5t48 -19.5t20 -47.5q0 -29 -19.5 -48.5t-48.5 -19.5zM293 554q-28 0 -47.5 19.5t-19.5 48.5q0 28 19.5 47.5t47.5 19.5t48 -19.5t20 -47.5q0 -29 -19.5 -48.5t-48.5 -19.5z
M63 120v363h127v-338q0 -21 11 -32.5t29 -11.5q9 0 19 2l9 -108q-26 -7 -59 -7q-67 0 -101.5 33.5t-34.5 98.5z" />
    <glyph glyph-name="Alpha" unicode="&#x391;" horiz-adv-x="684" 
d="M533 0l-42 115h-298l-42 -115h-156l258 667h178l257 -667h-155zM342 544l-111 -306h221z" />
    <glyph glyph-name="Beta" unicode="&#x392;" horiz-adv-x="663" 
d="M66 0v667h351q91 0 141.5 -49.5t50.5 -120.5q0 -61 -33 -102t-82 -51q54 -8 91 -55t37 -109q0 -78 -51 -129t-143 -51h-362zM208 399h178q36 0 57 20.5t21 53.5q0 31 -21.5 52t-56.5 21h-178v-147zM208 121h183q40 0 63 21.5t23 57.5q0 33 -23 55.5t-63 22.5h-183v-157z
" />
    <glyph glyph-name="Gamma" unicode="&#x393;" horiz-adv-x="571" 
d="M66 0v667h472v-125h-330v-542h-142z" />
    <glyph glyph-name="uni0394" unicode="&#x394;" horiz-adv-x="684" 
d="M-5 0l258 667h178l257 -667h-693zM342 525l-146 -400h292z" />
    <glyph glyph-name="Epsilon" unicode="&#x395;" horiz-adv-x="583" 
d="M66 0v667h472v-122h-330v-145h323v-122h-323v-155h330v-123h-472z" />
    <glyph glyph-name="Zeta" unicode="&#x396;" horiz-adv-x="592" 
d="M42 0v115l315 427h-315v125h501v-114l-315 -428h322v-125h-508z" />
    <glyph glyph-name="Eta" unicode="&#x397;" horiz-adv-x="731" 
d="M523 0v280h-315v-280h-142v667h142v-262h315v262h143v-667h-143z" />
    <glyph glyph-name="Theta" unicode="&#x398;" horiz-adv-x="765" 
d="M34 333q0 150 98.5 247.5t249.5 97.5q152 0 250.5 -97t98.5 -248t-98.5 -248t-250.5 -97q-151 0 -249.5 97.5t-98.5 247.5zM585 333q0 95 -56 157t-147 62t-146.5 -62t-55.5 -157t55.5 -157t146.5 -62t147 62t56 157zM229 276v125h307v-125h-307z" />
    <glyph glyph-name="Iota" unicode="&#x399;" horiz-adv-x="274" 
d="M66 0v667h142v-667h-142z" />
    <glyph glyph-name="Kappa" unicode="&#x39a;" horiz-adv-x="636" 
d="M462 0l-202 267l-52 -62v-205h-142v667h142v-298l236 298h175l-265 -313l283 -354h-175z" />
    <glyph glyph-name="Lambda" unicode="&#x39b;" horiz-adv-x="684" 
d="M526 0l-184 525l-185 -525h-162l258 667h178l257 -667h-162z" />
    <glyph glyph-name="Mu" unicode="&#x39c;" horiz-adv-x="855" 
d="M646 0v480l-188 -480h-62l-188 480v-480h-142v667h199l162 -416l162 416h200v-667h-143z" />
    <glyph glyph-name="Nu" unicode="&#x39d;" horiz-adv-x="729" 
d="M526 0l-318 448v-448h-142v667h146l309 -432v432h142v-667h-137z" />
    <glyph glyph-name="Xi" unicode="&#x39e;" horiz-adv-x="624" 
d="M45 545v122h533v-122h-533zM52 278v122h520v-122h-520zM45 0v123h533v-123h-533z" />
    <glyph glyph-name="Omicron" unicode="&#x39f;" horiz-adv-x="765" 
d="M34 333q0 150 98.5 247.5t249.5 97.5q152 0 250.5 -97t98.5 -248t-98.5 -248t-250.5 -97q-151 0 -249.5 97.5t-98.5 247.5zM585 333q0 95 -56 157t-147 62t-146.5 -62t-55.5 -157t55.5 -157t146.5 -62t147 62t56 157z" />
    <glyph glyph-name="Pi" unicode="&#x3a0;" horiz-adv-x="731" 
d="M523 0v542h-315v-542h-142v667h600v-667h-143z" />
    <glyph glyph-name="Rho" unicode="&#x3a1;" horiz-adv-x="624" 
d="M66 0v667h312q105 0 164.5 -61.5t59.5 -153.5q0 -91 -60 -152t-164 -61h-170v-239h-142zM457 453q0 41 -28 66.5t-70 25.5h-151v-184h151q43 0 70.5 25.5t27.5 66.5z" />
    <glyph glyph-name="Sigma" unicode="&#x3a3;" horiz-adv-x="586" 
d="M217 125h323v-125h-495v125l203 215l-202 202v125h494v-125h-316l199 -201z" />
    <glyph glyph-name="Tau" unicode="&#x3a4;" horiz-adv-x="582" 
d="M220 0v542h-195v125h532v-125h-194v-542h-143z" />
    <glyph glyph-name="Upsilon" unicode="&#x3a5;" horiz-adv-x="645" 
d="M252 0v273l-257 394h162l166 -268l164 268h162l-255 -394v-273h-142z" />
    <glyph glyph-name="Phi" unicode="&#x3a6;" horiz-adv-x="855" 
d="M820 333q0 -115 -84.5 -184t-237.5 -82v-67h-142v67q-153 13 -237.5 82t-84.5 184q0 114 85 183.5t237 82.5v68h142v-68q153 -13 237.5 -82t84.5 -184zM180 333q0 -57 45 -93t131 -46v278q-86 -10 -131 -46t-45 -93zM498 194q86 10 131.5 46t45.5 93t-45.5 93t-131.5 46
v-278z" />
    <glyph glyph-name="Chi" unicode="&#x3a7;" horiz-adv-x="668" 
d="M501 0l-167 244l-168 -244h-169l242 342l-227 325h169l153 -228l151 228h171l-227 -324l242 -343h-170z" />
    <glyph glyph-name="Psi" unicode="&#x3a8;" horiz-adv-x="866" 
d="M655 667h145v-264q0 -115 -74.5 -187.5t-220.5 -87.5v-128h-143v127q-146 15 -221 88t-75 187v265h144v-260q0 -63 38.5 -101.5t113.5 -49.5v411h143v-411q74 11 112 50t38 101v260z" />
    <glyph glyph-name="uni03A9" unicode="&#x3a9;" horiz-adv-x="765" 
d="M171 125q-137 93 -137 241q0 141 98 226.5t250 85.5q153 0 251 -85.5t98 -226.5q0 -149 -136 -241h119v-125h-270v125q63 17 102 74.5t39 134.5q0 88 -52 152.5t-151 64.5t-150.5 -64.5t-51.5 -152.5q0 -77 39 -134.5t102 -74.5v-125h-269v125h119z" />
    <glyph glyph-name="Iotadieresis" unicode="&#x3aa;" horiz-adv-x="274" 
d="M32 721q-29 0 -48.5 19.5t-19.5 48.5q0 28 20 47.5t48 19.5t47.5 -19.5t19.5 -47.5q0 -29 -19.5 -48.5t-47.5 -19.5zM243 721q-28 0 -48 19.5t-20 48.5q0 28 20 47.5t48 19.5t48 -19.5t20 -47.5q0 -29 -20 -48.5t-48 -19.5zM66 0v667h142v-667h-142z" />
    <glyph glyph-name="Upsilondieresis" unicode="&#x3ab;" horiz-adv-x="645" 
d="M218 721q-29 0 -48.5 19.5t-19.5 48.5q0 28 20 47.5t48 19.5t47.5 -19.5t19.5 -47.5q0 -29 -19.5 -48.5t-47.5 -19.5zM429 721q-28 0 -48 19.5t-20 48.5q0 28 20 47.5t48 19.5t48 -19.5t20 -47.5q0 -29 -20 -48.5t-48 -19.5zM252 0v273l-257 394h162l166 -268l164 268
h162l-255 -394v-273h-142z" />
    <glyph glyph-name="alphatonos" unicode="&#x3ac;" horiz-adv-x="600" 
d="M267 563l20 213h105l-70 -213h-55zM590 -5q-26 -7 -58 -7q-104 0 -129 86q-24 -39 -66 -62.5t-91 -23.5q-94 0 -154 67.5t-60 185.5q0 116 60 185t154 69q91 0 148 -74v62h129v-338q0 -21 11 -32.5t29 -11.5q9 0 19 2zM395 156v170q-16 24 -47 39.5t-63 15.5
q-54 0 -88 -38.5t-34 -101.5q0 -62 34 -101t88 -39q32 0 63 15.5t47 39.5z" />
    <glyph glyph-name="epsilontonos" unicode="&#x3ad;" horiz-adv-x="489" 
d="M230 563l20 213h105l-70 -213h-55zM255 -12q-103 0 -163.5 40t-60.5 105q0 50 42 81t91 34q-50 8 -86.5 39t-36.5 75q0 62 58 97.5t161 34.5q128 0 206 -80l-62 -75q-55 55 -142 55q-40 0 -64.5 -14t-24.5 -37q0 -53 91 -53h84v-93h-84q-100 0 -100 -53q0 -25 23.5 -40.5
t68.5 -15.5q84 0 153 59l64 -82q-77 -77 -218 -77z" />
    <glyph glyph-name="etatonos" unicode="&#x3ae;" 
d="M261 563l20 213h105l-70 -213h-55zM389 -184v476q0 90 -89 90q-69 0 -110 -57v-325h-127v483h127v-63q63 75 169 75q78 0 117.5 -41t39.5 -113v-525h-127z" />
    <glyph glyph-name="iotatonos" unicode="&#x3af;" horiz-adv-x="267" 
d="M98 563l20 213h105l-70 -213h-55zM63 120v363h127v-338q0 -21 11 -32.5t29 -11.5q9 0 19 2l9 -108q-26 -7 -59 -7q-67 0 -101.5 33.5t-34.5 98.5z" />
    <glyph glyph-name="upsilondieresistonos" unicode="&#x3b0;" horiz-adv-x="577" 
d="M262 563l20 213h106l-69 -213h-57zM158 554q-29 0 -48.5 19.5t-19.5 48.5q0 28 19.5 47.5t48.5 19.5q28 0 47.5 -19.5t19.5 -47.5q0 -29 -19.5 -48.5t-47.5 -19.5zM457 554q-28 0 -47.5 19.5t-19.5 48.5q0 28 19.5 47.5t47.5 19.5t48 -19.5t20 -47.5q0 -29 -19.5 -48.5
t-48.5 -19.5zM289 -12q-111 0 -168.5 62t-57.5 168v265h127v-263q0 -54 26 -86.5t73 -32.5q59 0 91.5 43.5t32.5 114.5q0 110 -59 185l117 51q74 -104 74 -236q0 -119 -69 -195t-187 -76z" />
    <glyph glyph-name="alpha" unicode="&#x3b1;" horiz-adv-x="600" 
d="M590 -5q-26 -7 -58 -7q-104 0 -129 86q-24 -39 -66 -62.5t-91 -23.5q-94 0 -154 67.5t-60 185.5q0 116 60 185t154 69q91 0 148 -74v62h129v-338q0 -21 11 -32.5t29 -11.5q9 0 19 2zM395 156v170q-16 24 -47 39.5t-63 15.5q-54 0 -88 -38.5t-34 -101.5q0 -62 34 -101
t88 -39q32 0 63 15.5t47 39.5z" />
    <glyph glyph-name="beta" unicode="&#x3b2;" horiz-adv-x="586" 
d="M190 -184h-127v632q0 59 22 105t58.5 72t79 39t87.5 13q107 0 167.5 -48.5t60.5 -132.5q0 -60 -41 -101t-99 -51q59 -6 107 -51t48 -124q0 -76 -59 -128.5t-141 -52.5q-104 0 -163 74v-246zM190 155q44 -54 120 -54q53 0 82.5 25t29.5 67t-31 65.5t-84 23.5h-40v113h36
q48 0 75.5 22t27.5 62q0 39 -27 61.5t-69 22.5q-53 0 -86.5 -30.5t-33.5 -84.5v-293z" />
    <glyph glyph-name="gamma" unicode="&#x3b3;" horiz-adv-x="513" 
d="M192 -184v107q0 158 -58.5 309.5t-149.5 250.5h144q53 -61 95 -159t51 -177q38 58 65 154.5t27 181.5h128q0 -117 -49 -249.5t-125 -228.5v-189h-128z" />
    <glyph glyph-name="delta" unicode="&#x3b4;" horiz-adv-x="574" 
d="M299 481q33 -9 52.5 -15.5t53 -20.5t54 -32t42 -43.5t32 -62t10.5 -80.5q0 -98 -67.5 -168.5t-181.5 -70.5q-120 0 -191 71.5t-71 172.5q0 67 31.5 116.5t82.5 75.5q-57 37 -57 103q0 64 53 108t145 44q111 0 193 -66l-50 -90q-55 55 -143 55q-34 0 -55 -13t-21 -33
q0 -9 5 -16t21.5 -14t25 -10t36.5 -11zM291 101q58 0 93 38.5t35 87.5q0 34 -12 59t-36 42t-46.5 27t-57.5 21q-50 -20 -76.5 -58.5t-26.5 -85.5q0 -53 34.5 -92t92.5 -39z" />
    <glyph glyph-name="epsilon" unicode="&#x3b5;" horiz-adv-x="489" 
d="M255 -12q-103 0 -163.5 40t-60.5 105q0 50 42 81t91 34q-50 8 -86.5 39t-36.5 75q0 62 58 97.5t161 34.5q128 0 206 -80l-62 -75q-55 55 -142 55q-40 0 -64.5 -14t-24.5 -37q0 -53 91 -53h84v-93h-84q-100 0 -100 -53q0 -25 23.5 -40.5t68.5 -15.5q84 0 153 59l64 -82
q-77 -77 -218 -77z" />
    <glyph glyph-name="zeta" unicode="&#x3b6;" horiz-adv-x="486" 
d="M294 0q-121 0 -191.5 54.5t-70.5 156.5q0 104 66.5 193.5t183.5 151.5h-234v111h399v-92q-123 -68 -203.5 -161.5t-80.5 -192.5q0 -59 37.5 -83.5t108.5 -24.5q148 0 148 -117q0 -59 -53 -153h-135q19 26 38.5 65.5t19.5 60.5q0 13 -8.5 22t-24.5 9z" />
    <glyph glyph-name="eta" unicode="&#x3b7;" 
d="M389 -184v476q0 90 -89 90q-69 0 -110 -57v-325h-127v483h127v-63q63 75 169 75q78 0 117.5 -41t39.5 -113v-525h-127z" />
    <glyph glyph-name="theta" unicode="&#x3b8;" horiz-adv-x="574" 
d="M287 679q81 0 140 -47.5t87.5 -124.5t28.5 -173q0 -147 -68 -246.5t-188 -99.5t-187.5 99.5t-67.5 246.5q0 148 67.5 246.5t187.5 98.5zM287 566q-108 0 -122 -175h244q-14 175 -122 175zM287 101q109 0 122 178h-244q14 -178 122 -178z" />
    <glyph glyph-name="iota" unicode="&#x3b9;" horiz-adv-x="267" 
d="M63 120v363h127v-338q0 -21 11 -32.5t29 -11.5q9 0 19 2l9 -108q-26 -7 -59 -7q-67 0 -101.5 33.5t-34.5 98.5z" />
    <glyph glyph-name="kappa" unicode="&#x3ba;" horiz-adv-x="535" 
d="M376 0l-128 186l-58 -62v-124h-127v483h127v-215l183 215h156l-191 -219l197 -264h-159z" />
    <glyph glyph-name="lambda" unicode="&#x3bb;" horiz-adv-x="513" 
d="M109 679q68 -2 113 -27.5t70 -89.5l227 -562h-137l-126 336l-126 -336h-136l196 489l-18 41q-16 36 -67 36q-23 0 -40 -9l-19 114q26 8 63 8z" />
    <glyph glyph-name="uni03BC" unicode="&#x3bc;" horiz-adv-x="593" 
d="M190 -184h-127v667h127v-293q0 -90 90 -90q65 0 109 56v327h127v-338q0 -21 11 -32.5t29 -11.5q9 0 19 2l9 -108q-26 -7 -59 -7q-104 0 -130 86q-22 -38 -57.5 -62t-77.5 -24q-49 0 -70 28v-200z" />
    <glyph glyph-name="nu" unicode="&#x3bd;" horiz-adv-x="513" 
d="M188 0l-194 483h136l132 -356q48 73 76 170t28 186h128q0 -119 -50.5 -253t-127.5 -230h-128z" />
    <glyph glyph-name="xi" unicode="&#x3be;" horiz-adv-x="486" 
d="M32 167q0 61 35 98.5t86 52.5q-44 8 -77 37t-33 77q0 39 27 73.5t69 50.5h-86v111h390v-111h-190q-35 -9 -56.5 -32.5t-21.5 -53.5q0 -37 32 -57t85 -20h146v-109h-146q-128 0 -128 -87q0 -84 145 -84q148 0 148 -117q0 -59 -53 -153h-135q18 25 37.5 69t19.5 66t-33 22
q-128 0 -194.5 43t-66.5 124z" />
    <glyph glyph-name="omicron" unicode="&#x3bf;" horiz-adv-x="574" 
d="M287 -12q-116 0 -185.5 73.5t-69.5 180.5t69.5 180t185.5 73t186 -73t70 -180t-70 -180.5t-186 -73.5zM287 101q57 0 90.5 40.5t33.5 100.5q0 59 -33.5 99.5t-90.5 40.5t-90 -40.5t-33 -99.5q0 -60 33 -100.5t90 -40.5z" />
    <glyph glyph-name="pi" unicode="&#x3c0;" horiz-adv-x="631" 
d="M415 0v372h-199v-372h-128v372h-80v111h615v-111h-80v-372h-128z" />
    <glyph glyph-name="rho" unicode="&#x3c1;" horiz-adv-x="583" 
d="M190 62v-246h-127v426q0 107 66.5 180t177.5 73q112 0 179 -73t67 -180q0 -118 -59.5 -186t-154.5 -68q-91 0 -149 74zM421 242q0 59 -31 99.5t-84 40.5q-54 0 -85 -40.5t-31 -99.5v-86q16 -23 47.5 -39t61.5 -16q55 0 88.5 39t33.5 102z" />
    <glyph glyph-name="uni03C2" unicode="&#x3c2;" horiz-adv-x="492" 
d="M32 242q0 111 72 182t184 71q128 0 191 -87l-83 -78q-35 52 -102 52q-58 0 -94.5 -38t-36.5 -100q0 -67 39.5 -99t105.5 -32q156 0 156 -105q0 -71 -53 -165h-133q18 26 37.5 69.5t19.5 65.5t-33 22q-121 0 -195.5 64t-74.5 178z" />
    <glyph glyph-name="sigma" unicode="&#x3c3;" horiz-adv-x="574" 
d="M287 -12q-116 0 -185.5 73.5t-69.5 180.5q0 104 70.5 172.5t191.5 68.5h260v-113h-90q68 -58 68 -155t-65 -162t-180 -65zM341 370h-47q-61 0 -95.5 -38t-34.5 -90q0 -60 33 -100.5t90 -40.5t90.5 40.5t33.5 97.5q0 88 -70 131z" />
    <glyph glyph-name="tau" unicode="&#x3c4;" horiz-adv-x="472" 
d="M167 120v252h-146v111h430v-111h-157v-218q0 -23 12 -38t33 -15q31 0 43 14l27 -96q-35 -31 -105 -31q-67 0 -102 34t-35 98z" />
    <glyph glyph-name="upsilon" unicode="&#x3c5;" horiz-adv-x="577" 
d="M289 -12q-111 0 -168.5 62t-57.5 168v265h127v-263q0 -54 26 -86.5t73 -32.5q59 0 91.5 43.5t32.5 114.5q0 110 -59 185l117 51q74 -104 74 -236q0 -119 -69 -195t-187 -76z" />
    <glyph glyph-name="phi" unicode="&#x3c6;" horiz-adv-x="706" 
d="M674 236q0 -114 -69 -178t-189 -69l1 -173h-128v173q-120 5 -188.5 72.5t-68.5 188.5q0 86 46.5 147.5t123.5 93.5l57 -98q-46 -19 -70.5 -58t-24.5 -85q0 -72 34.5 -110.5t90.5 -38.5v382h94q141 0 216 -65t75 -182zM417 101q56 0 90.5 34.5t34.5 100.5t-34.5 100
t-90.5 34v-269z" />
    <glyph glyph-name="chi" unicode="&#x3c7;" horiz-adv-x="504" 
d="M363 -184l-111 224l-113 -224h-139l171 343l-161 324h140l102 -205l100 205h141l-162 -324l173 -343h-141z" />
    <glyph glyph-name="psi" unicode="&#x3c8;" horiz-adv-x="739" 
d="M548 483h128v-243q0 -110 -56 -173.5t-187 -75.5v-175h-127v175q-132 12 -187.5 75.5t-55.5 173.5v243h127v-243q0 -60 25.5 -92.5t90.5 -41.5v561h127v-561q64 9 89.5 42t25.5 92v243z" />
    <glyph glyph-name="omega" unicode="&#x3c9;" horiz-adv-x="782" 
d="M556 -12q-65 0 -102.5 35.5t-62.5 101.5q-26 -66 -62.5 -101.5t-101.5 -35.5q-93 0 -144 71t-51 173q0 172 103 263l115 -46q-86 -77 -86 -217q0 -54 20.5 -92.5t59.5 -38.5q44 0 64 39t20 102v122h127v-122q0 -62 20 -101.5t63 -39.5q40 0 60.5 38t20.5 93
q0 140 -87 217l116 46q103 -91 103 -263q0 -102 -51.5 -173t-143.5 -71z" />
    <glyph glyph-name="iotadieresis" unicode="&#x3ca;" horiz-adv-x="267" 
d="M21 554q-29 0 -48.5 19.5t-19.5 48.5q0 28 20 47.5t48 19.5t47.5 -19.5t19.5 -47.5q0 -29 -19.5 -48.5t-47.5 -19.5zM232 554q-28 0 -48 19.5t-20 48.5q0 28 20 47.5t48 19.5t48 -19.5t20 -47.5q0 -29 -20 -48.5t-48 -19.5zM63 120v363h127v-338q0 -21 11 -32.5t29 -11.5
q9 0 19 2l9 -108q-26 -7 -59 -7q-67 0 -101.5 33.5t-34.5 98.5z" />
    <glyph glyph-name="upsilondieresis" unicode="&#x3cb;" horiz-adv-x="577" 
d="M184 554q-29 0 -48.5 19.5t-19.5 48.5q0 28 20 47.5t48 19.5t47.5 -19.5t19.5 -47.5q0 -29 -19.5 -48.5t-47.5 -19.5zM395 554q-28 0 -48 19.5t-20 48.5q0 28 20 47.5t48 19.5t48 -19.5t20 -47.5q0 -29 -20 -48.5t-48 -19.5zM289 -12q-111 0 -168.5 62t-57.5 168v265h127
v-263q0 -54 26 -86.5t73 -32.5q59 0 91.5 43.5t32.5 114.5q0 110 -59 185l117 51q74 -104 74 -236q0 -119 -69 -195t-187 -76z" />
    <glyph glyph-name="omicrontonos" unicode="&#x3cc;" horiz-adv-x="574" 
d="M258 563l20 213h105l-70 -213h-55zM287 -12q-116 0 -185.5 73.5t-69.5 180.5t69.5 180t185.5 73t186 -73t70 -180t-70 -180.5t-186 -73.5zM287 101q57 0 90.5 40.5t33.5 100.5q0 59 -33.5 99.5t-90.5 40.5t-90 -40.5t-33 -99.5q0 -60 33 -100.5t90 -40.5z" />
    <glyph glyph-name="upsilontonos" unicode="&#x3cd;" horiz-adv-x="577" 
d="M261 563l20 213h105l-70 -213h-55zM289 -12q-111 0 -168.5 62t-57.5 168v265h127v-263q0 -54 26 -86.5t73 -32.5q59 0 91.5 43.5t32.5 114.5q0 110 -59 185l117 51q74 -104 74 -236q0 -119 -69 -195t-187 -76z" />
    <glyph glyph-name="omegatonos" unicode="&#x3ce;" horiz-adv-x="782" 
d="M363 563l20 213h105l-70 -213h-55zM556 -12q-65 0 -102.5 35.5t-62.5 101.5q-26 -66 -62.5 -101.5t-101.5 -35.5q-93 0 -144 71t-51 173q0 172 103 263l115 -46q-86 -77 -86 -217q0 -54 20.5 -92.5t59.5 -38.5q44 0 64 39t20 102v122h127v-122q0 -62 20 -101.5t63 -39.5
q40 0 60.5 38t20.5 93q0 140 -87 217l116 46q103 -91 103 -263q0 -102 -51.5 -173t-143.5 -71z" />
    <glyph glyph-name="uni0401" unicode="&#x401;" horiz-adv-x="583" 
d="M203 721q-29 0 -48.5 19.5t-19.5 48.5q0 28 20 47.5t48 19.5t47.5 -19.5t19.5 -47.5q0 -29 -19.5 -48.5t-47.5 -19.5zM414 721q-28 0 -48 19.5t-20 48.5q0 28 20 47.5t48 19.5t48 -19.5t20 -47.5q0 -29 -20 -48.5t-48 -19.5zM66 0v667h472v-122h-330v-145h323v-122h-323
v-155h330v-123h-472z" />
    <glyph glyph-name="uni0402" unicode="&#x402;" horiz-adv-x="776" 
d="M505 111q54 0 80.5 20.5t26.5 65.5v24q0 89 -123 89q-69 0 -126 -25v-285h-143v542h-195v125h532v-125h-194v-145q82 38 175 38q109 0 163 -55t54 -156v-24q0 -212 -250 -212v123z" />
    <glyph glyph-name="uni0403" unicode="&#x403;" horiz-adv-x="571" 
d="M349 723h-111l134 144h139zM66 0v667h472v-125h-330v-542h-142z" />
    <glyph glyph-name="uni0404" unicode="&#x404;" horiz-adv-x="687" 
d="M387 114q52 0 94.5 27t64.5 70l122 -59q-95 -164 -279 -164q-152 0 -253.5 96.5t-101.5 248.5t101.5 248.5t253.5 96.5q187 0 279 -163l-122 -60q-22 42 -65 69.5t-94 27.5q-74 0 -127 -41.5t-71 -110.5h316v-122h-318q14 -74 68.5 -119t131.5 -45z" />
    <glyph glyph-name="uni0405" unicode="&#x405;" horiz-adv-x="600" 
d="M21 94l77 108q86 -90 212 -90q55 0 85.5 22t30.5 53q0 34 -33 51.5t-102 33.5q-34 8 -49 11.5t-47 13.5t-48.5 19t-40 25t-35 34t-20.5 44t-9 57q0 86 69 143.5t184 57.5q159 0 260 -93l-79 -104q-79 73 -191 73q-47 0 -72.5 -18.5t-25.5 -49.5t31 -45.5t102 -31.5
q31 -7 49 -11.5t48 -14.5t48 -19.5t40.5 -25.5t35 -34t21 -44t8.5 -57q0 -96 -68.5 -155t-198.5 -59q-178 0 -282 106z" />
    <glyph glyph-name="uni0406" unicode="&#x406;" horiz-adv-x="274" 
d="M66 0v667h142v-667h-142z" />
    <glyph glyph-name="uni0407" unicode="&#x407;" horiz-adv-x="274" 
d="M32 721q-29 0 -48.5 19.5t-19.5 48.5q0 28 20 47.5t48 19.5t47.5 -19.5t19.5 -47.5q0 -29 -19.5 -48.5t-47.5 -19.5zM243 721q-28 0 -48 19.5t-20 48.5q0 28 20 47.5t48 19.5t48 -19.5t20 -47.5q0 -29 -20 -48.5t-48 -19.5zM66 0v667h142v-667h-142z" />
    <glyph glyph-name="uni0408" unicode="&#x408;" horiz-adv-x="486" 
d="M6 53l62 109q50 -48 106 -48q47 0 75.5 29t28.5 78v446h142v-448q0 -114 -64 -172.5t-171 -58.5q-113 0 -179 65z" />
    <glyph glyph-name="uni0409" unicode="&#x409;" horiz-adv-x="1081" 
d="M26 125q28 0 49 12t42 46t36 105t23 179l16 200h474v-237h169q104 0 164.5 -62t60.5 -153q0 -92 -60 -153.5t-165 -61.5h-312v542h-212l-7 -93q-10 -120 -29.5 -205.5t-43 -134.5t-59 -77t-68 -36t-78.5 -8v137zM666 305v-180h150q43 0 70.5 24.5t27.5 65.5t-27.5 65.5
t-70.5 24.5h-150z" />
    <glyph glyph-name="uni040A" unicode="&#x40a;" horiz-adv-x="1081" 
d="M66 667h142v-262h315v262h143v-262h182q98 0 155 -58t57 -144q0 -87 -56.5 -145t-155.5 -58h-325v280h-315v-280h-142v667zM830 125q37 0 60.5 21.5t23.5 56.5t-23.5 56t-60.5 21h-164v-155h164z" />
    <glyph glyph-name="uni040B" unicode="&#x40b;" horiz-adv-x="807" 
d="M612 188q0 68 -28.5 95t-94.5 27q-69 0 -126 -25v-285h-143v542h-195v125h532v-125h-194v-145q82 38 175 38q112 0 164.5 -59t52.5 -188v-188h-143v188z" />
    <glyph glyph-name="uni040C" unicode="&#x40c;" horiz-adv-x="636" 
d="M367 723h-112l134 144h140zM462 0l-202 267l-52 -62v-205h-142v667h142v-298l236 298h175l-265 -313l283 -354h-175z" />
    <glyph glyph-name="uni040E" unicode="&#x40e;" horiz-adv-x="645" 
d="M322 717q-111 0 -180 90l69 56q41 -59 111 -59t111 59l68 -56q-31 -42 -78 -66t-101 -24zM490 667h159l-246 -527q-35 -76 -87 -114t-137 -38q-50 0 -86 14l31 122q19 -10 47 -10q33 0 54.5 14.5t40.5 48.5l-270 490h163l182 -354z" />
    <glyph glyph-name="uni040F" unicode="&#x40f;" horiz-adv-x="711" 
d="M646 667v-667h-228v-127h-125v127h-227v667h142v-542h295v542h143z" />
    <glyph glyph-name="uni0410" unicode="&#x410;" horiz-adv-x="684" 
d="M533 0l-42 115h-298l-42 -115h-156l258 667h178l257 -667h-155zM342 544l-111 -306h221z" />
    <glyph glyph-name="uni0411" unicode="&#x411;" horiz-adv-x="624" 
d="M553 667v-122h-345v-122h173q103 0 162 -61t59 -151t-59 -150.5t-162 -60.5h-315v667h487zM208 300v-177h154q42 0 68.5 24.5t26.5 63.5q0 40 -26.5 64.5t-68.5 24.5h-154z" />
    <glyph glyph-name="uni0412" unicode="&#x412;" horiz-adv-x="663" 
d="M66 0v667h351q91 0 141.5 -49.5t50.5 -120.5q0 -61 -33 -102t-82 -51q54 -8 91 -55t37 -109q0 -78 -51 -129t-143 -51h-362zM208 399h178q36 0 57 20.5t21 53.5q0 31 -21.5 52t-56.5 21h-178v-147zM208 121h183q40 0 63 21.5t23 57.5q0 33 -23 55.5t-63 22.5h-183v-157z
" />
    <glyph glyph-name="uni0413" unicode="&#x413;" horiz-adv-x="571" 
d="M66 0v667h472v-125h-330v-542h-142z" />
    <glyph glyph-name="uni0414" unicode="&#x414;" horiz-adv-x="734" 
d="M17 125h52q72 74 97 364l15 178h455v-542h81v-248h-125v123h-451v-123h-124v248zM290 463q-20 -265 -78 -338h282v417h-198z" />
    <glyph glyph-name="uni0415" unicode="&#x415;" horiz-adv-x="583" 
d="M66 0v667h472v-122h-330v-145h323v-122h-323v-155h330v-123h-472z" />
    <glyph glyph-name="uni0416" unicode="&#x416;" horiz-adv-x="951" 
d="M781 0l-198 287h-36v-287h-143v287h-37l-198 -287h-170l256 346l-238 321h168l183 -268h36v268h143v-268h36l183 268h168l-238 -321l255 -346h-170z" />
    <glyph glyph-name="uni0417" unicode="&#x417;" horiz-adv-x="610" 
d="M20 95l74 93q33 -35 88.5 -55.5t106.5 -20.5q65 0 102 23.5t37 62.5q0 79 -147 79h-118v122h118q136 0 136 74q0 38 -38 59t-98 21q-108 0 -181 -70l-71 88q42 48 111.5 77t154.5 29q118 0 191 -49t73 -132q0 -60 -43 -100.5t-102 -51.5q58 -6 106.5 -48.5t48.5 -111.5
q0 -86 -77 -141t-197 -55q-89 0 -163 30t-112 77z" />
    <glyph glyph-name="uni0418" unicode="&#x418;" horiz-adv-x="729" 
d="M66 667h142v-456l309 456h146v-667h-142v472l-318 -472h-137v667z" />
    <glyph glyph-name="uni0419" unicode="&#x419;" horiz-adv-x="729" 
d="M365 717q-111 0 -180 90l69 56q41 -59 111 -59t111 59l68 -56q-31 -42 -78 -66t-101 -24zM66 667h142v-456l309 456h146v-667h-142v472l-318 -472h-137v667z" />
    <glyph glyph-name="uni041A" unicode="&#x41a;" horiz-adv-x="636" 
d="M462 0l-202 267l-52 -62v-205h-142v667h142v-298l236 298h175l-265 -313l283 -354h-175z" />
    <glyph glyph-name="uni041B" unicode="&#x41b;" horiz-adv-x="731" 
d="M26 125q28 0 49 12t42 46t36 105t23 179l16 200h474v-667h-143v542h-212l-7 -93q-10 -120 -29.5 -205.5t-43 -134.5t-59 -77t-68 -36t-78.5 -8v137z" />
    <glyph glyph-name="uni041C" unicode="&#x41c;" horiz-adv-x="855" 
d="M646 0v480l-188 -480h-62l-188 480v-480h-142v667h199l162 -416l162 416h200v-667h-143z" />
    <glyph glyph-name="uni041D" unicode="&#x41d;" horiz-adv-x="731" 
d="M523 0v280h-315v-280h-142v667h142v-262h315v262h143v-667h-143z" />
    <glyph glyph-name="uni041E" unicode="&#x41e;" horiz-adv-x="765" 
d="M34 333q0 150 98.5 247.5t249.5 97.5q152 0 250.5 -97t98.5 -248t-98.5 -248t-250.5 -97q-151 0 -249.5 97.5t-98.5 247.5zM585 333q0 95 -56 157t-147 62t-146.5 -62t-55.5 -157t55.5 -157t146.5 -62t147 62t56 157z" />
    <glyph glyph-name="uni041F" unicode="&#x41f;" horiz-adv-x="731" 
d="M523 0v542h-315v-542h-142v667h600v-667h-143z" />
    <glyph glyph-name="uni0420" unicode="&#x420;" horiz-adv-x="624" 
d="M66 0v667h312q105 0 164.5 -61.5t59.5 -153.5q0 -91 -60 -152t-164 -61h-170v-239h-142zM457 453q0 41 -28 66.5t-70 25.5h-151v-184h151q43 0 70.5 25.5t27.5 66.5z" />
    <glyph glyph-name="uni0421" unicode="&#x421;" horiz-adv-x="687" 
d="M384 -12q-149 0 -249.5 96.5t-100.5 248.5t100.5 248.5t249.5 96.5q192 0 284 -163l-122 -60q-22 42 -65.5 69.5t-96.5 27.5q-87 0 -145.5 -62.5t-58.5 -156.5t58.5 -156.5t145.5 -62.5q54 0 97 27t65 70l122 -59q-95 -164 -284 -164z" />
    <glyph glyph-name="uni0422" unicode="&#x422;" horiz-adv-x="582" 
d="M220 0v542h-195v125h532v-125h-194v-542h-143z" />
    <glyph glyph-name="uni0423" unicode="&#x423;" horiz-adv-x="645" 
d="M490 667h159l-246 -527q-35 -76 -87 -114t-137 -38q-50 0 -86 14l31 122q19 -10 47 -10q33 0 54.5 14.5t40.5 48.5l-270 490h163l182 -354z" />
    <glyph glyph-name="uni0424" unicode="&#x424;" horiz-adv-x="855" 
d="M820 333q0 -115 -84.5 -184t-237.5 -82v-67h-142v67q-153 13 -237.5 82t-84.5 184q0 114 85 183.5t237 82.5v68h142v-68q153 -13 237.5 -82t84.5 -184zM180 333q0 -57 45 -93t131 -46v278q-86 -10 -131 -46t-45 -93zM498 194q86 10 131.5 46t45.5 93t-45.5 93t-131.5 46
v-278z" />
    <glyph glyph-name="uni0425" unicode="&#x425;" horiz-adv-x="668" 
d="M501 0l-167 244l-168 -244h-169l242 342l-227 325h169l153 -228l151 228h171l-227 -324l242 -343h-170z" />
    <glyph glyph-name="uni0426" unicode="&#x426;" horiz-adv-x="743" 
d="M601 0h-535v667h142v-542h295v542h143v-542h80v-248h-125v123z" />
    <glyph glyph-name="uni0427" unicode="&#x427;" horiz-adv-x="649" 
d="M191 471q0 -67 28.5 -94t94.5 -27q69 0 127 25v292h142v-667h-142v263q-84 -38 -176 -38q-112 0 -164 58.5t-52 187.5v196h142v-196z" />
    <glyph glyph-name="uni0428" unicode="&#x428;" horiz-adv-x="983" 
d="M917 667v-667h-851v667h142v-542h212v542h143v-542h211v542h143z" />
    <glyph glyph-name="uni0429" unicode="&#x429;" horiz-adv-x="1014" 
d="M917 667v-542h81v-248h-125v123h-807v667h142v-542h212v542h143v-542h211v542h143z" />
    <glyph glyph-name="uni042A" unicode="&#x42a;" horiz-adv-x="778" 
d="M220 0v542h-195v125h338v-237h169q104 0 164.5 -62t60.5 -153q0 -92 -60 -153.5t-165 -61.5h-312zM363 305v-180h150q43 0 70.5 24.5t27.5 65.5t-27.5 65.5t-70.5 24.5h-150z" />
    <glyph glyph-name="uni042B" unicode="&#x42b;" horiz-adv-x="867" 
d="M208 667v-237h170q104 0 164 -62t60 -153q0 -92 -59.5 -153.5t-164.5 -61.5h-312v667h142zM658 0v667h143v-667h-143zM208 305v-180h151q43 0 70.5 24.5t27.5 65.5t-27.5 65.5t-70.5 24.5h-151z" />
    <glyph glyph-name="uni042C" unicode="&#x42c;" horiz-adv-x="624" 
d="M208 667v-237h170q104 0 164 -62t60 -153q0 -92 -59.5 -153.5t-164.5 -61.5h-312v667h142zM208 305v-180h151q43 0 70.5 24.5t27.5 65.5t-27.5 65.5t-70.5 24.5h-151z" />
    <glyph glyph-name="uni042D" unicode="&#x42d;" horiz-adv-x="687" 
d="M297 678q153 0 254 -96.5t101 -248.5t-101 -248.5t-254 -96.5q-185 0 -278 164l122 59q22 -43 64.5 -70t94.5 -27q76 0 130.5 45t69.5 119h-319v122h316q-17 68 -70.5 110t-126.5 42q-51 0 -94 -27.5t-65 -69.5l-122 60q92 163 278 163z" />
    <glyph glyph-name="uni042E" unicode="&#x42e;" horiz-adv-x="1043" 
d="M660 678q152 0 250 -97t98 -248t-98 -248t-250 -97q-137 0 -232 81t-112 211h-108v-280h-142v667h142v-262h111q23 122 116 197.5t225 75.5zM660 114q91 0 147 62t56 157t-56 157t-147 62q-92 0 -147.5 -62t-55.5 -157t56 -157t147 -62z" />
    <glyph glyph-name="uni042F" unicode="&#x42f;" horiz-adv-x="643" 
d="M37 0l150 254q-61 14 -103.5 65t-42.5 133q0 95 60.5 155t163.5 60h312v-667h-142v237h-103l-132 -237h-163zM435 362v180h-149q-44 0 -72 -24.5t-28 -65.5t28 -65.5t72 -24.5h149z" />
    <glyph glyph-name="uni0430" unicode="&#x430;" horiz-adv-x="543" 
d="M353 0v50q-52 -62 -153 -62q-65 0 -116.5 42.5t-51.5 117.5q0 78 50.5 116t117.5 38q105 0 153 -59v67q0 37 -29 59t-77 22q-80 0 -141 -57l-48 85q86 76 211 76q93 0 152 -43t59 -140v-312h-127zM353 116v60q-31 42 -102 42q-39 0 -65 -19.5t-26 -53.5q0 -33 26 -52
t65 -19q71 0 102 42z" />
    <glyph glyph-name="uni0431" unicode="&#x431;" horiz-adv-x="574" 
d="M32 292q0 161 71.5 253t235.5 117l142 22v-116l-131 -21q-104 -16 -158 -58t-67 -112q31 45 82 68.5t107 23.5q100 0 164 -66t64 -163q0 -106 -69 -179t-186 -73q-120 0 -187.5 82t-67.5 222zM411 244q0 57 -33.5 97.5t-90.5 40.5t-90 -40t-33 -98q0 -61 33 -102t90 -41
t90.5 41t33.5 102z" />
    <glyph glyph-name="uni0432" unicode="&#x432;" horiz-adv-x="559" 
d="M63 0v483h294q78 0 119 -35.5t41 -88.5q0 -42 -23 -71t-59 -39q40 -9 66 -42t26 -76q0 -58 -42 -94.5t-123 -36.5h-299zM388 339q0 19 -12.5 31t-34.5 12h-151v-85h151q22 0 34.5 12t12.5 30zM397 148q0 20 -13.5 34t-37.5 14h-156v-95h156q24 0 37.5 13t13.5 34z" />
    <glyph glyph-name="uni0433" unicode="&#x433;" horiz-adv-x="454" 
d="M436 372h-246v-372h-127v483h373v-111z" />
    <glyph glyph-name="uni0434" unicode="&#x434;" horiz-adv-x="587" 
d="M18 111h45q44 72 60 266l10 106h384v-372h53v-234h-111v123h-330v-123h-111v234zM231 329q-11 -156 -49 -218h208v261h-156z" />
    <glyph glyph-name="uni0435" unicode="&#x435;" horiz-adv-x="553" 
d="M32 242q0 107 70.5 180t179.5 73q108 0 175 -73.5t67 -192.5v-28h-359q6 -48 43 -80t96 -32q79 0 129 48l56 -82q-73 -67 -199 -67q-112 0 -185 70t-73 184zM282 394q-54 0 -84 -32.5t-35 -74.5h238q-3 41 -32.5 74t-86.5 33z" />
    <glyph glyph-name="uni0436" unicode="&#x436;" horiz-adv-x="747" 
d="M596 0l-129 201h-30v-201h-127v201h-30l-128 -201h-153l172 250l-166 233h149l127 -196h29v196h127v-196h29l127 196h149l-166 -233l172 -250h-152z" />
    <glyph glyph-name="uni0437" unicode="&#x437;" horiz-adv-x="489" 
d="M17 65l64 82q69 -59 153 -59q45 0 68.5 15.5t23.5 40.5q0 53 -100 53h-85v93h85q91 0 91 53q0 23 -24.5 37t-64.5 14q-88 0 -142 -55l-62 75q77 80 205 80q103 1 161 -34.5t59 -97.5q0 -44 -37 -75t-87 -39q49 -3 91 -34t42 -81q0 -65 -60 -105t-163 -40q-141 0 -218 77z
" />
    <glyph glyph-name="uni0438" unicode="&#x438;" horiz-adv-x="580" 
d="M63 0v483h127v-298l199 298h128v-483h-127v309l-205 -309h-122z" />
    <glyph glyph-name="uni0439" unicode="&#x439;" horiz-adv-x="580" 
d="M290 550q-111 0 -180 90l69 56q41 -59 111 -59t111 59l68 -56q-31 -42 -78 -66t-101 -24zM63 0v483h127v-298l199 298h128v-483h-127v309l-205 -309h-122z" />
    <glyph glyph-name="uni043A" unicode="&#x43a;" horiz-adv-x="535" 
d="M376 0l-128 186l-58 -62v-124h-127v483h127v-215l183 215h156l-191 -219l197 -264h-159z" />
    <glyph glyph-name="uni043B" unicode="&#x43b;" horiz-adv-x="580" 
d="M18 111q39 0 64 54.5t37 203.5l8 114h390v-483h-127v372h-155l-3 -34q-9 -133 -37 -211.5t-70.5 -108.5t-106.5 -30v123z" />
    <glyph glyph-name="uni043C" unicode="&#x43c;" horiz-adv-x="711" 
d="M523 0v327l-138 -327h-58l-138 327v-327h-126v483h165l128 -301l126 301h166v-483h-125z" />
    <glyph glyph-name="uni043D" unicode="&#x43d;" horiz-adv-x="580" 
d="M63 0v483h127v-179h200v179h127v-483h-127v193h-200v-193h-127z" />
    <glyph glyph-name="uni043E" unicode="&#x43e;" horiz-adv-x="574" 
d="M287 -12q-116 0 -185.5 73.5t-69.5 180.5t69.5 180t185.5 73t186 -73t70 -180t-70 -180.5t-186 -73.5zM287 101q57 0 90.5 40.5t33.5 100.5q0 59 -33.5 99.5t-90.5 40.5t-90 -40.5t-33 -99.5q0 -60 33 -100.5t90 -40.5z" />
    <glyph glyph-name="uni043F" unicode="&#x43f;" horiz-adv-x="580" 
d="M390 0v372h-200v-372h-127v483h454v-483h-127z" />
    <glyph glyph-name="uni0440" unicode="&#x440;" horiz-adv-x="585" 
d="M190 -184h-127v667h127v-61q57 73 149 73q95 0 154.5 -67.5t59.5 -185.5t-59.5 -186t-154.5 -68q-91 0 -149 74v-246zM421 242q0 62 -33.5 101t-88.5 39q-31 0 -62 -16t-47 -39v-171q16 -23 47.5 -39t61.5 -16q55 0 88.5 39t33.5 102z" />
    <glyph glyph-name="uni0441" unicode="&#x441;" horiz-adv-x="499" 
d="M32 242q0 111 72 182t184 71q128 0 191 -87l-83 -78q-35 52 -102 52q-58 0 -94.5 -38.5t-36.5 -101.5t36.5 -102t94.5 -39q65 0 102 52l83 -77q-63 -88 -191 -88q-112 0 -184 71t-72 183z" />
    <glyph glyph-name="uni0442" unicode="&#x442;" horiz-adv-x="432" 
d="M152 0v372h-135v111h398v-111h-135v-372h-128z" />
    <glyph glyph-name="uni0443" unicode="&#x443;" horiz-adv-x="513" 
d="M65 -75q18 -8 40 -8q51 0 67 35l18 41l-196 490h136l126 -336l126 336h137l-227 -562q-25 -64 -70 -89.5t-113 -27.5q-35 0 -63 7z" />
    <glyph glyph-name="uni0444" unicode="&#x444;" horiz-adv-x="706" 
d="M674 242q0 -114 -69 -180.5t-188 -73.5v-172h-128v172q-120 7 -188.5 73t-68.5 181t69 181t188 72v172h128v-172q119 -6 188 -72t69 -181zM164 242q0 -68 35.5 -107t91.5 -39v291q-56 0 -91.5 -39t-35.5 -106zM415 96q56 0 91.5 39t35.5 107q0 67 -35.5 106t-91.5 39
v-291z" />
    <glyph glyph-name="uni0445" unicode="&#x445;" horiz-adv-x="504" 
d="M362 0l-110 163l-111 -163h-141l171 248l-161 235h142l100 -149l99 149h142l-162 -235l173 -248h-142z" />
    <glyph glyph-name="uni0446" unicode="&#x446;" horiz-adv-x="577" 
d="M449 0h-386v483h127v-372h190v372h127v-372h53v-234h-111v123z" />
    <glyph glyph-name="uni0447" unicode="&#x447;" horiz-adv-x="564" 
d="M175 483v-129q0 -49 25 -69.5t77 -20.5q59 0 97 19v200h128v-483h-128v181q-62 -30 -141 -30q-98 0 -141.5 40.5t-43.5 118.5v173h127z" />
    <glyph glyph-name="uni0448" unicode="&#x448;" horiz-adv-x="823" 
d="M760 483v-483h-697v483h127v-372h158v372h127v-372h157v372h128z" />
    <glyph glyph-name="uni0449" unicode="&#x449;" horiz-adv-x="836" 
d="M760 483v-372h60v-234h-111v123h-646v483h127v-372h158v372h127v-372h157v372h128z" />
    <glyph glyph-name="uni044A" unicode="&#x44a;" horiz-adv-x="643" 
d="M152 0v372h-135v111h263v-153h162q82 0 126.5 -48.5t44.5 -116.5q0 -67 -45.5 -116t-125.5 -49h-290zM280 224v-117h143q29 0 44.5 16.5t15.5 41.5q0 26 -15.5 42.5t-44.5 16.5h-143z" />
    <glyph glyph-name="uni044B" unicode="&#x44b;" horiz-adv-x="776" 
d="M190 483v-153h162q83 0 127 -48.5t44 -116.5q0 -67 -45.5 -116t-125.5 -49h-289v483h127zM586 0v483h128v-483h-128zM190 224v-117h143q29 0 44.5 16.5t15.5 41.5q0 26 -15.5 42.5t-44.5 16.5h-143z" />
    <glyph glyph-name="uni044C" unicode="&#x44c;" horiz-adv-x="553" 
d="M190 483v-153h162q83 0 127 -48.5t44 -116.5q0 -67 -45.5 -116t-125.5 -49h-289v483h127zM190 224v-117h143q29 0 44.5 16.5t15.5 41.5q0 26 -15.5 42.5t-44.5 16.5h-143z" />
    <glyph glyph-name="uni044D" unicode="&#x44d;" horiz-adv-x="508" 
d="M219 495q112 0 184.5 -70t72.5 -183q0 -114 -73 -184t-184 -70q-126 0 -199 67l55 82q50 -48 129 -48q58 0 95 31t43 74h-220v98h220q-6 41 -43 71.5t-95 30.5q-75 0 -122 -49l-56 82q71 68 193 68z" />
    <glyph glyph-name="uni044E" unicode="&#x44e;" horiz-adv-x="809" 
d="M521 495q116 0 186 -73t70 -180t-70 -180.5t-186 -73.5q-101 0 -167.5 57.5t-82.5 147.5h-81v-193h-127v483h127v-179h83q19 84 85 137.5t163 53.5zM521 101q58 0 91 40.5t33 100.5q0 59 -33 99.5t-91 40.5q-57 0 -90 -40.5t-33 -99.5q0 -60 33 -100.5t90 -40.5z" />
    <glyph glyph-name="uni044F" unicode="&#x44f;" horiz-adv-x="567" 
d="M41 0l112 175q-45 12 -76.5 50.5t-31.5 99.5q0 67 45 112.5t123 45.5h293v-483h-128v168h-99l-94 -168h-144zM378 270v112h-143q-27 0 -43.5 -16t-16.5 -40t16 -40t44 -16h143z" />
    <glyph glyph-name="uni0451" unicode="&#x451;" horiz-adv-x="553" 
d="M177 554q-29 0 -48.5 19.5t-19.5 48.5q0 28 20 47.5t48 19.5t47.5 -19.5t19.5 -47.5q0 -29 -19.5 -48.5t-47.5 -19.5zM388 554q-28 0 -48 19.5t-20 48.5q0 28 20 47.5t48 19.5t48 -19.5t20 -47.5q0 -29 -20 -48.5t-48 -19.5zM32 242q0 107 70.5 180t179.5 73
q108 0 175 -73.5t67 -192.5v-28h-359q6 -48 43 -80t96 -32q79 0 129 48l56 -82q-73 -67 -199 -67q-112 0 -185 70t-73 184zM282 394q-54 0 -84 -32.5t-35 -74.5h238q-3 41 -32.5 74t-86.5 33z" />
    <glyph glyph-name="uni0452" unicode="&#x452;" horiz-adv-x="584" 
d="M293 -191l8 104q14 -3 28 -3q29 0 47 19t18 58v305q0 90 -90 90q-69 0 -110 -57v-325h-127v528h-59v73h59v66h127v-66h146v-73h-146v-108q63 75 169 75q78 0 118 -41t40 -113v-354q0 -85 -44 -134t-129 -49q-30 0 -55 5z" />
    <glyph glyph-name="uni0453" unicode="&#x453;" horiz-adv-x="454" 
d="M293 556h-111l134 144h139zM436 372h-246v-372h-127v483h373v-111z" />
    <glyph glyph-name="uni0454" unicode="&#x454;" horiz-adv-x="508" 
d="M304 89q79 0 129 48l56 -82q-73 -67 -199 -67q-112 0 -185 70t-73 184q0 113 73 183t185 70q121 0 192 -68l-56 -82q-47 49 -122 49q-58 0 -95 -30.5t-43 -71.5h220v-98h-220q6 -43 43 -74t95 -31z" />
    <glyph glyph-name="uni0455" unicode="&#x455;" horiz-adv-x="477" 
d="M21 63l55 89q28 -26 76 -46t91 -20q81 0 81 49q0 23 -24 35t-73 22q-35 7 -53 11t-48.5 16t-46.5 26t-29 39.5t-13 58.5q0 64 53 108t145 44q112 0 195 -66l-51 -87q-23 24 -61.5 40t-81.5 16q-35 0 -55.5 -12t-20.5 -33t22.5 -31.5t69.5 -20.5q34 -7 53 -11.5t50 -16.5
t47.5 -27t30 -42t13.5 -61q0 -68 -55.5 -111.5t-153.5 -43.5q-63 0 -120.5 20t-95.5 55z" />
    <glyph glyph-name="uni0456" unicode="&#x456;" horiz-adv-x="253" 
d="M126 545q-31 0 -53.5 22.5t-22.5 53.5t22.5 53.5t53.5 22.5q32 0 54 -22.5t22 -53.5t-22 -53.5t-54 -22.5zM63 0v483h127v-483h-127z" />
    <glyph glyph-name="uni0457" unicode="&#x457;" horiz-adv-x="253" 
d="M21 554q-29 0 -48.5 19.5t-19.5 48.5q0 28 20 47.5t48 19.5t47.5 -19.5t19.5 -47.5q0 -29 -19.5 -48.5t-47.5 -19.5zM232 554q-28 0 -48 19.5t-20 48.5q0 28 20 47.5t48 19.5t48 -19.5t20 -47.5q0 -29 -20 -48.5t-48 -19.5zM63 0v483h127v-483h-127z" />
    <glyph glyph-name="uni0458" unicode="&#x458;" horiz-adv-x="253" 
d="M126 545q-31 0 -53.5 22.5t-22.5 53.5t22.5 53.5t53.5 22.5q32 0 54 -22.5t22 -53.5t-22 -53.5t-54 -22.5zM190 483v-496q0 -85 -43.5 -134t-128.5 -49q-30 0 -55 5l8 104q12 -3 28 -3q29 0 46.5 19t17.5 58v496h127z" />
    <glyph glyph-name="uni0459" unicode="&#x459;" horiz-adv-x="880" 
d="M18 111q39 0 64 54.5t37 203.5l8 114h390v-153h162q83 0 127 -48.5t44 -116.5q0 -67 -45.5 -116t-125.5 -49h-289v372h-155l-3 -34q-9 -133 -37 -211.5t-70.5 -108.5t-106.5 -30v123zM517 224v-117h143q29 0 44.5 16.5t15.5 41.5q0 26 -15.5 42.5t-44.5 16.5h-143z" />
    <glyph glyph-name="uni045A" unicode="&#x45a;" horiz-adv-x="880" 
d="M63 0v483h127v-179h200v179h127v-156h162q83 0 127 -48t44 -116q0 -66 -45.5 -114.5t-125.5 -48.5h-289v193h-200v-193h-127zM517 220v-113h143q30 0 45 15.5t15 40.5t-15.5 41t-44.5 16h-143z" />
    <glyph glyph-name="uni045B" unicode="&#x45b;" horiz-adv-x="584" 
d="M364 495q78 0 117.5 -40t39.5 -112v-343h-127v294q0 88 -90 88q-67 0 -110 -57v-325h-128v528h-58v73h58v66h128v-66h146v-73h-146v-108q26 31 70.5 53t99.5 22z" />
    <glyph glyph-name="uni045C" unicode="&#x45c;" horiz-adv-x="535" 
d="M321 556h-111l134 144h139zM376 0l-128 186l-58 -62v-124h-127v483h127v-215l183 215h156l-191 -219l197 -264h-159z" />
    <glyph glyph-name="uni045E" unicode="&#x45e;" horiz-adv-x="513" 
d="M256 550q-111 0 -180 90l69 56q41 -59 111 -59t111 59l68 -56q-31 -42 -78 -66t-101 -24zM65 -75q18 -8 40 -8q51 0 67 35l18 41l-196 490h136l126 -336l126 336h137l-227 -562q-25 -64 -70 -89.5t-113 -27.5q-35 0 -63 7z" />
    <glyph glyph-name="uni045F" unicode="&#x45f;" horiz-adv-x="570" 
d="M507 483v-483h-167v-126h-111v126h-166v483h127v-372h190v372h127z" />
    <glyph glyph-name="uni0490" unicode="&#x490;" horiz-adv-x="571" 
d="M208 0h-142v667h347v123h125v-248h-330v-542z" />
    <glyph glyph-name="uni0491" unicode="&#x491;" horiz-adv-x="454" 
d="M190 0h-127v483h262v126h111v-237h-246v-372z" />
    <glyph glyph-name="uni0492" unicode="&#x492;" horiz-adv-x="571" 
d="M538 542h-330v-158h174v-108h-174v-276h-142v276h-58v108h58v283h472v-125z" />
    <glyph glyph-name="uni0493" unicode="&#x493;" horiz-adv-x="454" 
d="M436 372h-246v-88h118v-84h-118v-200h-127v200h-55v84h55v199h373v-111z" />
    <glyph glyph-name="uni049A" unicode="&#x49a;" horiz-adv-x="669" 
d="M538 125h122v-248h-125v123h-73l-202 267l-52 -62v-205h-142v667h142v-298l236 298h175l-265 -313z" />
    <glyph glyph-name="uni049B" unicode="&#x49b;" horiz-adv-x="578" 
d="M454 111h116v-234h-111v123h-83l-128 186l-58 -62v-124h-127v483h127v-215l183 215h156l-191 -219z" />
    <glyph glyph-name="uni04B2" unicode="&#x4b2;" horiz-adv-x="710" 
d="M584 125h117v-248h-125v123h-75l-167 244l-168 -244h-169l242 342l-227 325h169l153 -228l151 228h171l-227 -324z" />
    <glyph glyph-name="uni04B3" unicode="&#x4b3;" horiz-adv-x="551" 
d="M427 111h115v-234h-111v123h-69l-110 163l-111 -163h-141l171 248l-161 235h142l100 -149l99 149h142l-162 -235z" />
    <glyph glyph-name="uni04E8" unicode="&#x4e8;" horiz-adv-x="765" 
d="M382 678q152 0 250.5 -97t98.5 -248t-98.5 -248t-250.5 -97q-151 0 -249.5 97.5t-98.5 247.5t98.5 247.5t249.5 97.5zM382 555q-74 0 -125.5 -42.5t-67.5 -112.5h387q-17 70 -68.5 112.5t-125.5 42.5zM382 111q77 0 129.5 46t67.5 121h-393q15 -75 67 -121t129 -46z" />
    <glyph glyph-name="uni04E9" unicode="&#x4e9;" horiz-adv-x="574" 
d="M287 495q116 0 186 -73t70 -180t-70 -180.5t-186 -73.5t-185.5 73.5t-69.5 180.5t69.5 180t185.5 73zM287 389q-47 0 -77.5 -28t-40.5 -74h237q-10 46 -41 74t-78 28zM287 94q48 0 79 29.5t41 77.5h-239q9 -48 40 -77.5t79 -29.5z" />
    <glyph glyph-name="uni1E02" unicode="&#x1e02;" horiz-adv-x="663" 
d="M262 788q0 28 20 48t48 20t47.5 -20t19.5 -48t-19.5 -48t-47.5 -20t-48 20t-20 48zM66 0v667h351q91 0 141.5 -49.5t50.5 -120.5q0 -61 -33 -102t-82 -51q54 -8 91 -55t37 -109q0 -78 -51 -129t-143 -51h-362zM208 399h178q36 0 57 20.5t21 53.5q0 31 -21.5 52t-56.5 21
h-178v-147zM208 121h183q40 0 63 21.5t23 57.5q0 33 -23 55.5t-63 22.5h-183v-157z" />
    <glyph glyph-name="uni1E03" unicode="&#x1e03;" horiz-adv-x="586" 
d="M227 671q0 28 20 48t48 20t47.5 -20t19.5 -48t-19.5 -48t-47.5 -20t-48 20t-20 48zM63 0v550h306q81 0 125.5 -41t44.5 -100q0 -48 -26.5 -81t-67.5 -44q46 -11 76 -48t30 -87q0 -64 -45.5 -106.5t-126.5 -42.5h-316zM405 388q0 24 -16 38.5t-45 14.5h-149v-107h149
q28 0 44.5 15.5t16.5 38.5zM416 167q0 24 -17.5 41.5t-47.5 17.5h-156v-117h156q30 0 47.5 16t17.5 42z" />
    <glyph glyph-name="uni1E0A" unicode="&#x1e0a;" horiz-adv-x="718" 
d="M291 788q0 28 20 48t48 20t47.5 -20t19.5 -48t-19.5 -48t-47.5 -20t-48 20t-20 48zM66 0v667h263q157 0 255.5 -92t98.5 -242t-98 -241.5t-256 -91.5h-263zM208 125h121q96 0 152.5 60t56.5 148q0 92 -55 150.5t-154 58.5h-121v-417z" />
    <glyph glyph-name="uni1E0B" unicode="&#x1e0b;" horiz-adv-x="626" 
d="M251 671q0 28 20 48t48 20t47.5 -20t19.5 -48t-19.5 -48t-47.5 -20t-48 20t-20 48zM63 0v550h230q137 0 219 -75.5t82 -200.5q0 -124 -82 -199t-218 -75h-231zM459 274q0 72 -41.5 116.5t-123.5 44.5h-99v-320h98q79 0 122.5 45.5t43.5 113.5z" />
    <glyph glyph-name="uni1E1E" unicode="&#x1e1e;" horiz-adv-x="571" 
d="M238 788q0 28 20 48t48 20t47.5 -20t19.5 -48t-19.5 -48t-47.5 -20t-48 20t-20 48zM66 0v667h472v-122h-330v-145h323v-122h-323v-278h-142z" />
    <glyph glyph-name="uni1E1F" unicode="&#x1e1f;" horiz-adv-x="509" 
d="M205 671q0 28 20 48t48 20t47.5 -20t19.5 -48t-19.5 -48t-47.5 -20t-48 20t-20 48zM63 0v550h415v-111h-283v-104h277v-112h-277v-223h-132z" />
    <glyph glyph-name="uni1E22" unicode="&#x1e22;" horiz-adv-x="731" 
d="M298 788q0 28 20 48t48 20t47.5 -20t19.5 -48t-19.5 -48t-47.5 -20t-48 20t-20 48zM523 0v280h-315v-280h-142v667h142v-262h315v262h143v-667h-143z" />
    <glyph glyph-name="uni1E23" unicode="&#x1e23;" horiz-adv-x="651" 
d="M257 671q0 28 20 48t48 20t47.5 -20t19.5 -48t-19.5 -48t-47.5 -20t-48 20t-20 48zM456 0v224h-261v-224h-132v550h132v-211h261v211h132v-550h-132z" />
    <glyph glyph-name="uni1E56" unicode="&#x1e56;" horiz-adv-x="624" 
d="M255 788q0 28 20 48t48 20t47.5 -20t19.5 -48t-19.5 -48t-47.5 -20t-48 20t-20 48zM66 0v667h312q105 0 164.5 -61.5t59.5 -153.5q0 -91 -60 -152t-164 -61h-170v-239h-142zM457 453q0 41 -28 66.5t-70 25.5h-151v-184h151q43 0 70.5 25.5t27.5 66.5z" />
    <glyph glyph-name="uni1E57" unicode="&#x1e57;" horiz-adv-x="554" 
d="M228 671q0 28 20 48t48 20t47.5 -20t19.5 -48t-19.5 -48t-47.5 -20t-48 20t-20 48zM63 0v550h278q90 0 141.5 -51.5t51.5 -127.5q0 -78 -50.5 -129.5t-142.5 -51.5h-146v-190h-132zM399 371q0 29 -20 48.5t-55 19.5h-129v-137h129q36 0 55.5 19t19.5 50z" />
    <glyph glyph-name="uni1E60" unicode="&#x1e60;" horiz-adv-x="600" 
d="M227 788q0 28 20 48t48 20t47.5 -20t19.5 -48t-19.5 -48t-47.5 -20t-48 20t-20 48zM21 94l77 108q86 -90 212 -90q55 0 85.5 22t30.5 53q0 34 -33 51.5t-102 33.5q-34 8 -49 11.5t-47 13.5t-48.5 19t-40 25t-35 34t-20.5 44t-9 57q0 86 69 143.5t184 57.5q159 0 260 -93
l-79 -104q-79 73 -191 73q-47 0 -72.5 -18.5t-25.5 -49.5t31 -45.5t102 -31.5q31 -7 49 -11.5t48 -14.5t48 -19.5t40.5 -25.5t35 -34t21 -44t8.5 -57q0 -96 -68.5 -155t-198.5 -59q-178 0 -282 106z" />
    <glyph glyph-name="uni1E61" unicode="&#x1e61;" horiz-adv-x="516" 
d="M188 671q0 28 20 48t48 20t47.5 -20t19.5 -48t-19.5 -48t-47.5 -20t-48 20t-20 48zM18 71l60 99q30 -30 80 -51t102 -21q49 0 73.5 17t24.5 43q0 13 -8 23t-25.5 17.5t-33 11.5t-43.5 10q-29 6 -42 9t-40 11t-41 15.5t-34 21t-30 28.5t-17.5 37.5t-7.5 48.5
q0 72 61 121.5t159 49.5q136 0 225 -79l-62 -92q-31 28 -76.5 44t-87.5 16q-39 0 -62 -15.5t-23 -39.5q0 -11 7 -19.5t25.5 -15.5t31 -10t42.5 -10q37 -8 59 -13.5t56 -19.5t53.5 -30.5t34 -46t14.5 -66.5q0 -81 -62 -129t-175 -48q-76 0 -138 23t-100 60z" />
    <glyph glyph-name="uni1E6A" unicode="&#x1e6a;" horiz-adv-x="582" 
d="M224 788q0 28 20 48t48 20t47.5 -20t19.5 -48t-19.5 -48t-47.5 -20t-48 20t-20 48zM220 0v542h-195v125h532v-125h-194v-542h-143z" />
    <glyph glyph-name="uni1E6B" unicode="&#x1e6b;" horiz-adv-x="486" 
d="M175 671q0 28 20 48t48 20t47.5 -20t19.5 -48t-19.5 -48t-47.5 -20t-48 20t-20 48zM177 0v435h-156v115h445v-115h-157v-435h-132z" />
    <glyph glyph-name="Wgrave" unicode="&#x1e80;" horiz-adv-x="918" 
d="M415 723l-162 144h117l134 -144h-89zM576 0l-117 458l-116 -458h-151l-191 667h159l117 -482l127 482h111l126 -482l116 482h160l-190 -667h-151z" />
    <glyph glyph-name="wgrave" unicode="&#x1e81;" horiz-adv-x="797" 
d="M354 606l-162 144h117l134 -144h-89zM494 0l-96 358l-95 -358h-138l-166 550h148l95 -376l105 376h103l105 -377l96 377h147l-166 -550h-138z" />
    <glyph glyph-name="Wacute" unicode="&#x1e82;" horiz-adv-x="918" 
d="M500 723h-89l134 144h117zM576 0l-117 458l-116 -458h-151l-191 667h159l117 -482l127 482h111l126 -482l116 482h160l-190 -667h-151z" />
    <glyph glyph-name="wacute" unicode="&#x1e83;" horiz-adv-x="797" 
d="M439 606h-89l134 144h117zM494 0l-96 358l-95 -358h-138l-166 550h148l95 -376l105 376h103l105 -377l96 377h147l-166 -550h-138z" />
    <glyph glyph-name="Wdieresis" unicode="&#x1e84;" horiz-adv-x="918" 
d="M354 721q-29 0 -48.5 19.5t-19.5 48.5q0 28 20 47.5t48 19.5t47.5 -19.5t19.5 -47.5q0 -29 -19.5 -48.5t-47.5 -19.5zM565 721q-28 0 -48 19.5t-20 48.5q0 28 20 47.5t48 19.5t48 -19.5t20 -47.5q0 -29 -20 -48.5t-48 -19.5zM576 0l-117 458l-116 -458h-151l-191 667h159
l117 -482l127 482h111l126 -482l116 482h160l-190 -667h-151z" />
    <glyph glyph-name="wdieresis" unicode="&#x1e85;" horiz-adv-x="797" 
d="M293 604q-29 0 -48.5 19.5t-19.5 48.5q0 28 20 47.5t48 19.5t47.5 -19.5t19.5 -47.5q0 -29 -19.5 -48.5t-47.5 -19.5zM504 604q-28 0 -48 19.5t-20 48.5q0 28 20 47.5t48 19.5t48 -19.5t20 -47.5q0 -29 -20 -48.5t-48 -19.5zM494 0l-96 358l-95 -358h-138l-166 550h148
l95 -376l105 376h103l105 -377l96 377h147l-166 -550h-138z" />
    <glyph glyph-name="uni1E9E" unicode="&#x1e9e;" horiz-adv-x="707" 
d="M480 404q92 -10 148.5 -60t56.5 -140q0 -94 -70.5 -155t-175.5 -61q-131 0 -193 66l72 103q53 -43 121 -43q48 0 77.5 24t29.5 67q0 49 -43 69.5t-128 20.5h-54v107l120 136q-33 14 -74 14q-75 0 -116 -42.5t-41 -114.5v-395h-144v400q0 127 76.5 202.5t224.5 75.5
q178 0 256 -112z" />
    <glyph glyph-name="uni1EA0" unicode="&#x1ea0;" horiz-adv-x="684" 
d="M533 0l-42 115h-298l-42 -115h-156l258 667h178l257 -667h-155zM342 544l-111 -306h221zM273 -119q0 28 20 48t48 20t47.5 -20t19.5 -48t-19.5 -48t-47.5 -20t-48 20t-20 48z" />
    <glyph glyph-name="uni1EA1" unicode="&#x1ea1;" horiz-adv-x="597" 
d="M379 550l223 -550h-145l-37 93h-243l-36 -93h-146l223 550h161zM298 432l-84 -227h169zM230 -119q0 28 20 48t48 20t47.5 -20t19.5 -48t-19.5 -48t-47.5 -20t-48 20t-20 48z" />
    <glyph glyph-name="uni1EA2" unicode="&#x1ea2;" horiz-adv-x="684" 
d="M231 810q12 35 39.5 54t63.5 19q44 0 74 -23t30 -70q0 -32 -21 -66h-70q25 29 25 63q0 40 -38 40q-30 0 -44 -36zM533 0l-42 115h-298l-42 -115h-156l258 667h178l257 -667h-155zM342 544l-111 -306h221z" />
    <glyph glyph-name="uni1EA3" unicode="&#x1ea3;" horiz-adv-x="597" 
d="M188 693q12 35 39.5 54t63.5 19q44 0 74 -23t30 -70q0 -32 -21 -66h-70q25 29 25 63q0 40 -38 40q-30 0 -44 -36zM379 550l223 -550h-145l-37 93h-243l-36 -93h-146l223 550h161zM298 432l-84 -227h169z" />
    <glyph glyph-name="uni1EA4" unicode="&#x1ea4;" horiz-adv-x="684" 
d="M552 780h-89l134 108h117zM415 705l-73 67l-71 -67h-78l92 108h114l94 -108h-78zM533 0l-42 115h-298l-42 -115h-156l258 667h178l257 -667h-155zM342 544l-111 -306h221z" />
    <glyph glyph-name="uni1EA5" unicode="&#x1ea5;" horiz-adv-x="597" 
d="M508 706h-89l134 144h117zM372 606l-73 89l-71 -89h-78l92 144h114l94 -144h-78zM379 550l223 -550h-145l-37 93h-243l-36 -93h-146l223 550h161zM298 432l-84 -227h169z" />
    <glyph glyph-name="uni1EA6" unicode="&#x1ea6;" horiz-adv-x="684" 
d="M137 780l-162 108h117l134 -108h-89zM415 705l-73 67l-71 -67h-78l92 108h114l94 -108h-78zM533 0l-42 115h-298l-42 -115h-156l258 667h178l257 -667h-155zM342 544l-111 -306h221z" />
    <glyph glyph-name="uni1EA7" unicode="&#x1ea7;" horiz-adv-x="597" 
d="M94 706l-162 144h117l134 -144h-89zM372 606l-73 89l-71 -89h-78l92 144h114l94 -144h-78zM379 550l223 -550h-145l-37 93h-243l-36 -93h-146l223 550h161zM298 432l-84 -227h169z" />
    <glyph glyph-name="uni1EA8" unicode="&#x1ea8;" horiz-adv-x="684" 
d="M347 844q25 55 103 55q44 0 74 -17.5t30 -52.5q0 -23 -21 -49h-70q25 21 25 47q0 30 -38 30q-30 0 -44 -27zM415 705l-73 67l-71 -67h-78l92 108h114l94 -108h-78zM533 0l-42 115h-298l-42 -115h-156l258 667h178l257 -667h-155zM342 544l-111 -306h221z" />
    <glyph glyph-name="uni1EA9" unicode="&#x1ea9;" horiz-adv-x="597" 
d="M304 792q12 35 39.5 54t63.5 19q44 0 74 -23t30 -70q0 -32 -21 -66h-70q25 29 25 63q0 40 -38 40q-30 0 -44 -36zM372 606l-73 89l-71 -89h-78l92 144h114l94 -144h-78zM379 550l223 -550h-145l-37 93h-243l-36 -93h-146l223 550h161zM298 432l-84 -227h169z" />
    <glyph glyph-name="uni1EAA" unicode="&#x1eaa;" horiz-adv-x="684" 
d="M322 855q-24 20 -40 20q-36 0 -36 -46h-67q0 48 28 74t80 26q39 0 75 -30q25 -20 41 -20q36 0 36 46h67q0 -48 -27.5 -74t-79.5 -26q-41 0 -77 30zM415 705l-73 67l-71 -67h-78l92 108h114l94 -108h-78zM533 0l-42 115h-298l-42 -115h-156l258 667h178l257 -667h-155z
M342 544l-111 -306h221z" />
    <glyph glyph-name="uni1EAB" unicode="&#x1eab;" horiz-adv-x="597" 
d="M278 807q-25 27 -40 27q-36 0 -36 -62h-67q0 64 28 99t80 35q38 0 75 -41q26 -26 41 -26q36 0 36 61h67q0 -64 -27.5 -99t-79.5 -35q-40 0 -77 41zM372 606l-73 89l-71 -89h-78l92 144h114l94 -144h-78zM379 550l223 -550h-145l-37 93h-243l-36 -93h-146l223 550h161z
M298 432l-84 -227h169z" />
    <glyph glyph-name="uni1EAC" unicode="&#x1eac;" horiz-adv-x="684" 
d="M415 723l-73 89l-71 -89h-78l92 144h114l94 -144h-78zM533 0l-42 115h-298l-42 -115h-156l258 667h178l257 -667h-155zM342 544l-111 -306h221zM273 -119q0 28 20 48t48 20t47.5 -20t19.5 -48t-19.5 -48t-47.5 -20t-48 20t-20 48z" />
    <glyph glyph-name="uni1EAD" unicode="&#x1ead;" horiz-adv-x="597" 
d="M372 606l-73 89l-71 -89h-78l92 144h114l94 -144h-78zM379 550l223 -550h-145l-37 93h-243l-36 -93h-146l223 550h161zM298 432l-84 -227h169zM230 -119q0 28 20 48t48 20t47.5 -20t19.5 -48t-19.5 -48t-47.5 -20t-48 20t-20 48z" />
    <glyph glyph-name="uni1EAE" unicode="&#x1eae;" horiz-adv-x="684" 
d="M383 807h-89l134 108h117zM342 703q-110 0 -176 66l56 35q45 -47 120 -47t119 47l56 -35q-64 -66 -175 -66zM533 0l-42 115h-298l-42 -115h-156l258 667h178l257 -667h-155zM342 544l-111 -306h221z" />
    <glyph glyph-name="uni1EAF" unicode="&#x1eaf;" horiz-adv-x="597" 
d="M339 743h-89l134 144h117zM298 603q-109 0 -176 88l56 46q45 -62 120 -62q73 0 119 62l56 -46q-65 -88 -175 -88zM379 550l223 -550h-145l-37 93h-243l-36 -93h-146l223 550h161zM298 432l-84 -227h169z" />
    <glyph glyph-name="uni1EB0" unicode="&#x1eb0;" horiz-adv-x="684" 
d="M298 807l-162 108h117l134 -108h-89zM342 703q-110 0 -176 66l56 35q45 -47 120 -47t119 47l56 -35q-64 -66 -175 -66zM533 0l-42 115h-298l-42 -115h-156l258 667h178l257 -667h-155zM342 544l-111 -306h221z" />
    <glyph glyph-name="uni1EB1" unicode="&#x1eb1;" horiz-adv-x="597" 
d="M254 743l-162 144h117l134 -144h-89zM298 603q-109 0 -176 88l56 46q45 -62 120 -62q73 0 119 62l56 -46q-65 -88 -175 -88zM379 550l223 -550h-145l-37 93h-243l-36 -93h-146l223 550h161zM298 432l-84 -227h169z" />
    <glyph glyph-name="uni1EB2" unicode="&#x1eb2;" horiz-adv-x="684" 
d="M231 872q25 55 103 55q44 0 74 -17.5t30 -52.5q0 -23 -21 -49h-70q25 21 25 47q0 30 -38 30q-30 0 -44 -27zM342 703q-110 0 -176 66l56 35q45 -47 120 -47t119 47l56 -35q-64 -66 -175 -66zM533 0l-42 115h-298l-42 -115h-156l258 667h178l257 -667h-155zM342 544
l-111 -306h221z" />
    <glyph glyph-name="uni1EB3" unicode="&#x1eb3;" horiz-adv-x="597" 
d="M188 830q12 35 39.5 54t63.5 19q44 0 74 -23t30 -70q0 -32 -21 -66h-70q25 29 25 63q0 40 -38 40q-30 0 -44 -36zM298 603q-109 0 -176 88l56 46q45 -62 120 -62q73 0 119 62l56 -46q-65 -88 -175 -88zM379 550l223 -550h-145l-37 93h-243l-36 -93h-146l223 550h161z
M298 432l-84 -227h169z" />
    <glyph glyph-name="uni1EB4" unicode="&#x1eb4;" horiz-adv-x="684" 
d="M322 836q-24 20 -40 20q-36 0 -36 -46h-67q0 48 28 74t80 26q39 0 75 -30q25 -20 41 -20q36 0 36 46h67q0 -48 -27.5 -74t-79.5 -26q-41 0 -77 30zM342 703q-110 0 -176 66l56 35q45 -47 120 -47t119 47l56 -35q-64 -66 -175 -66zM533 0l-42 115h-298l-42 -115h-156
l258 667h178l257 -667h-155zM342 544l-111 -306h221z" />
    <glyph glyph-name="uni1EB5" unicode="&#x1eb5;" horiz-adv-x="597" 
d="M278 782q-25 27 -40 27q-36 0 -36 -62h-67q0 64 28 99t80 35q38 0 75 -41q26 -26 41 -26q36 0 36 61h67q0 -64 -27.5 -99t-79.5 -35q-40 0 -77 41zM298 603q-109 0 -176 88l56 46q45 -62 120 -62q73 0 119 62l56 -46q-65 -88 -175 -88zM379 550l223 -550h-145l-37 93
h-243l-36 -93h-146l223 550h161zM298 432l-84 -227h169z" />
    <glyph glyph-name="uni1EB6" unicode="&#x1eb6;" horiz-adv-x="684" 
d="M342 720q-109 0 -176 88l56 46q45 -62 120 -62q73 0 119 62l56 -46q-65 -88 -175 -88zM533 0l-42 115h-298l-42 -115h-156l258 667h178l257 -667h-155zM342 544l-111 -306h221zM273 -119q0 28 20 48t48 20t47.5 -20t19.5 -48t-19.5 -48t-47.5 -20t-48 20t-20 48z" />
    <glyph glyph-name="uni1EB7" unicode="&#x1eb7;" horiz-adv-x="597" 
d="M298 603q-109 0 -176 88l56 46q45 -62 120 -62q73 0 119 62l56 -46q-65 -88 -175 -88zM379 550l223 -550h-145l-37 93h-243l-36 -93h-146l223 550h161zM298 432l-84 -227h169zM230 -119q0 28 20 48t48 20t47.5 -20t19.5 -48t-19.5 -48t-47.5 -20t-48 20t-20 48z" />
    <glyph glyph-name="uni1EB8" unicode="&#x1eb8;" horiz-adv-x="583" 
d="M66 0v667h472v-122h-330v-145h323v-122h-323v-155h330v-123h-472zM240 -119q0 28 20 48t48 20t47.5 -20t19.5 -48t-19.5 -48t-47.5 -20t-48 20t-20 48z" />
    <glyph glyph-name="uni1EB9" unicode="&#x1eb9;" horiz-adv-x="520" 
d="M63 0v550h415v-111h-283v-103h277v-112h-277v-112h283v-112h-415zM205 -119q0 28 20 48t48 20t47.5 -20t19.5 -48t-19.5 -48t-47.5 -20t-48 20t-20 48z" />
    <glyph glyph-name="uni1EBA" unicode="&#x1eba;" horiz-adv-x="583" 
d="M198 810q12 35 39.5 54t63.5 19q44 0 74 -23t30 -70q0 -32 -21 -66h-70q25 29 25 63q0 40 -38 40q-30 0 -44 -36zM66 0v667h472v-122h-330v-145h323v-122h-323v-155h330v-123h-472z" />
    <glyph glyph-name="uni1EBB" unicode="&#x1ebb;" horiz-adv-x="520" 
d="M163 693q12 35 39.5 54t63.5 19q44 0 74 -23t30 -70q0 -32 -21 -66h-70q25 29 25 63q0 40 -38 40q-30 0 -44 -36zM63 0v550h415v-111h-283v-103h277v-112h-277v-112h283v-112h-415z" />
    <glyph glyph-name="uni1EBC" unicode="&#x1ebc;" horiz-adv-x="583" 
d="M288 762q-25 27 -40 27q-36 0 -36 -62h-67q0 64 28 99t80 35q38 0 75 -41q26 -26 41 -26q36 0 36 61h67q0 -64 -27.5 -99t-79.5 -35q-40 0 -77 41zM66 0v667h472v-122h-330v-145h323v-122h-323v-155h330v-123h-472z" />
    <glyph glyph-name="uni1EBD" unicode="&#x1ebd;" horiz-adv-x="520" 
d="M253 645q-25 27 -40 27q-36 0 -36 -62h-67q0 64 28 99t80 35q38 0 75 -41q26 -26 41 -26q36 0 36 61h67q0 -64 -27.5 -99t-79.5 -35q-40 0 -77 41zM63 0v550h415v-111h-283v-103h277v-112h-277v-112h283v-112h-415z" />
    <glyph glyph-name="uni1EBE" unicode="&#x1ebe;" horiz-adv-x="583" 
d="M518 780h-89l134 108h117zM382 705l-73 67l-71 -67h-78l92 108h114l94 -108h-78zM66 0v667h472v-122h-330v-145h323v-122h-323v-155h330v-123h-472z" />
    <glyph glyph-name="uni1EBF" unicode="&#x1ebf;" horiz-adv-x="520" 
d="M483 706h-89l134 144h117zM347 606l-73 89l-71 -89h-78l92 144h114l94 -144h-78zM63 0v550h415v-111h-283v-103h277v-112h-277v-112h283v-112h-415z" />
    <glyph glyph-name="uni1EC0" unicode="&#x1ec0;" horiz-adv-x="583" 
d="M104 780l-162 108h117l134 -108h-89zM382 705l-73 67l-71 -67h-78l92 108h114l94 -108h-78zM66 0v667h472v-122h-330v-145h323v-122h-323v-155h330v-123h-472z" />
    <glyph glyph-name="uni1EC1" unicode="&#x1ec1;" horiz-adv-x="520" 
d="M69 706l-162 144h117l134 -144h-89zM347 606l-73 89l-71 -89h-78l92 144h114l94 -144h-78zM63 0v550h415v-111h-283v-103h277v-112h-277v-112h283v-112h-415z" />
    <glyph glyph-name="uni1EC2" unicode="&#x1ec2;" horiz-adv-x="583" 
d="M314 844q25 55 103 55q44 0 74 -17.5t30 -52.5q0 -23 -21 -49h-70q25 21 25 47q0 30 -38 30q-31 0 -44 -27zM382 705l-73 67l-71 -67h-78l92 108h114l94 -108h-78zM66 0v667h472v-122h-330v-145h323v-122h-323v-155h330v-123h-472z" />
    <glyph glyph-name="uni1EC3" unicode="&#x1ec3;" horiz-adv-x="520" 
d="M279 792q12 35 39.5 54t63.5 19q44 0 74 -23t30 -70q0 -32 -21 -66h-70q25 29 25 63q0 40 -38 40q-30 0 -44 -36zM347 606l-73 89l-71 -89h-78l92 144h114l94 -144h-78zM63 0v550h415v-111h-283v-103h277v-112h-277v-112h283v-112h-415z" />
    <glyph glyph-name="uni1EC4" unicode="&#x1ec4;" horiz-adv-x="583" 
d="M288 855q-24 20 -40 20q-36 0 -36 -46h-67q0 48 28 74t80 26q39 0 75 -30q25 -20 41 -20q36 0 36 46h67q0 -48 -27.5 -74t-79.5 -26q-41 0 -77 30zM382 705l-73 67l-71 -67h-78l92 108h114l94 -108h-78zM66 0v667h472v-122h-330v-145h323v-122h-323v-155h330v-123h-472z
" />
    <glyph glyph-name="uni1EC5" unicode="&#x1ec5;" horiz-adv-x="520" 
d="M253 807q-25 27 -40 27q-36 0 -36 -62h-67q0 64 28 99t80 35q38 0 75 -41q26 -26 41 -26q36 0 36 61h67q0 -64 -27.5 -99t-79.5 -35q-40 0 -77 41zM347 606l-73 89l-71 -89h-78l92 144h114l94 -144h-78zM63 0v550h415v-111h-283v-103h277v-112h-277v-112h283v-112h-415z
" />
    <glyph glyph-name="uni1EC6" unicode="&#x1ec6;" horiz-adv-x="583" 
d="M382 723l-73 89l-71 -89h-78l92 144h114l94 -144h-78zM66 0v667h472v-122h-330v-145h323v-122h-323v-155h330v-123h-472zM240 -119q0 28 20 48t48 20t47.5 -20t19.5 -48t-19.5 -48t-47.5 -20t-48 20t-20 48z" />
    <glyph glyph-name="uni1EC7" unicode="&#x1ec7;" horiz-adv-x="520" 
d="M347 606l-73 89l-71 -89h-78l92 144h114l94 -144h-78zM63 0v550h415v-111h-283v-103h277v-112h-277v-112h283v-112h-415zM205 -119q0 28 20 48t48 20t47.5 -20t19.5 -48t-19.5 -48t-47.5 -20t-48 20t-20 48z" />
    <glyph glyph-name="uni1EC8" unicode="&#x1ec8;" horiz-adv-x="274" 
d="M27 810q12 35 39.5 54t63.5 19q44 0 74 -23t30 -70q0 -32 -21 -66h-70q25 29 25 63q0 40 -38 40q-30 0 -44 -36zM66 0v667h142v-667h-142z" />
    <glyph glyph-name="uni1EC9" unicode="&#x1ec9;" horiz-adv-x="258" 
d="M19 693q12 35 39.5 54t63.5 19q44 0 74 -23t30 -70q0 -32 -21 -66h-70q25 29 25 63q0 40 -38 40q-30 0 -44 -36zM63 0v550h132v-550h-132z" />
    <glyph glyph-name="uni1ECA" unicode="&#x1eca;" horiz-adv-x="274" 
d="M66 0v667h142v-667h-142zM70 -119q0 28 20 48t48 20t47.5 -20t19.5 -48t-19.5 -48t-47.5 -20t-48 20t-20 48z" />
    <glyph glyph-name="uni1ECB" unicode="&#x1ecb;" horiz-adv-x="258" 
d="M63 0v550h132v-550h-132zM61 -119q0 28 20 48t48 20t47.5 -20t19.5 -48t-19.5 -48t-47.5 -20t-48 20t-20 48z" />
    <glyph glyph-name="uni1ECC" unicode="&#x1ecc;" horiz-adv-x="765" 
d="M34 333q0 150 98.5 247.5t249.5 97.5q152 0 250.5 -97t98.5 -248t-98.5 -248t-250.5 -97q-151 0 -249.5 97.5t-98.5 247.5zM585 333q0 95 -56 157t-147 62t-146.5 -62t-55.5 -157t55.5 -157t146.5 -62t147 62t56 157zM314 -119q0 28 20 48t48 20t47.5 -20t19.5 -48
t-19.5 -48t-47.5 -20t-48 20t-20 48z" />
    <glyph glyph-name="uni1ECD" unicode="&#x1ecd;" horiz-adv-x="655" 
d="M32 275q0 125 82.5 206t212.5 81t212.5 -81t82.5 -206t-82.5 -206t-212.5 -81t-212.5 81t-82.5 206zM488 275q0 74 -44.5 122.5t-116.5 48.5t-116.5 -48.5t-44.5 -122.5q0 -73 44.5 -122t116.5 -49t116.5 49t44.5 122zM259 -119q0 28 20 48t48 20t47.5 -20t19.5 -48
t-19.5 -48t-47.5 -20t-48 20t-20 48z" />
    <glyph glyph-name="uni1ECE" unicode="&#x1ece;" horiz-adv-x="765" 
d="M271 810q12 35 39.5 54t63.5 19q44 0 74 -23t30 -70q0 -32 -21 -66h-70q25 29 25 63q0 40 -38 40q-30 0 -44 -36zM34 333q0 150 98.5 247.5t249.5 97.5q152 0 250.5 -97t98.5 -248t-98.5 -248t-250.5 -97q-151 0 -249.5 97.5t-98.5 247.5zM585 333q0 95 -56 157t-147 62
t-146.5 -62t-55.5 -157t55.5 -157t146.5 -62t147 62t56 157z" />
    <glyph glyph-name="uni1ECF" unicode="&#x1ecf;" horiz-adv-x="655" 
d="M217 693q12 35 39.5 54t63.5 19q44 0 74 -23t30 -70q0 -32 -21 -66h-70q25 29 25 63q0 40 -38 40q-30 0 -44 -36zM32 275q0 125 82.5 206t212.5 81t212.5 -81t82.5 -206t-82.5 -206t-212.5 -81t-212.5 81t-82.5 206zM488 275q0 74 -44.5 122.5t-116.5 48.5t-116.5 -48.5
t-44.5 -122.5q0 -73 44.5 -122t116.5 -49t116.5 49t44.5 122z" />
    <glyph glyph-name="uni1ED0" unicode="&#x1ed0;" horiz-adv-x="765" 
d="M592 780h-89l134 108h117zM455 705l-73 67l-71 -67h-78l92 108h114l94 -108h-78zM34 333q0 150 98.5 247.5t249.5 97.5q152 0 250.5 -97t98.5 -248t-98.5 -248t-250.5 -97q-151 0 -249.5 97.5t-98.5 247.5zM585 333q0 95 -56 157t-147 62t-146.5 -62t-55.5 -157
t55.5 -157t146.5 -62t147 62t56 157z" />
    <glyph glyph-name="uni1ED1" unicode="&#x1ed1;" horiz-adv-x="655" 
d="M537 706h-89l134 144h117zM401 606l-73 89l-71 -89h-78l92 144h114l94 -144h-78zM32 275q0 125 82.5 206t212.5 81t212.5 -81t82.5 -206t-82.5 -206t-212.5 -81t-212.5 81t-82.5 206zM488 275q0 74 -44.5 122.5t-116.5 48.5t-116.5 -48.5t-44.5 -122.5q0 -73 44.5 -122
t116.5 -49t116.5 49t44.5 122z" />
    <glyph glyph-name="uni1ED2" unicode="&#x1ed2;" horiz-adv-x="765" 
d="M177 780l-162 108h117l134 -108h-89zM455 705l-73 67l-71 -67h-78l92 108h114l94 -108h-78zM34 333q0 150 98.5 247.5t249.5 97.5q152 0 250.5 -97t98.5 -248t-98.5 -248t-250.5 -97q-151 0 -249.5 97.5t-98.5 247.5zM585 333q0 95 -56 157t-147 62t-146.5 -62
t-55.5 -157t55.5 -157t146.5 -62t147 62t56 157z" />
    <glyph glyph-name="uni1ED3" unicode="&#x1ed3;" horiz-adv-x="655" 
d="M123 706l-162 144h117l134 -144h-89zM401 606l-73 89l-71 -89h-78l92 144h114l94 -144h-78zM32 275q0 125 82.5 206t212.5 81t212.5 -81t82.5 -206t-82.5 -206t-212.5 -81t-212.5 81t-82.5 206zM488 275q0 74 -44.5 122.5t-116.5 48.5t-116.5 -48.5t-44.5 -122.5
q0 -73 44.5 -122t116.5 -49t116.5 49t44.5 122z" />
    <glyph glyph-name="uni1ED4" unicode="&#x1ed4;" horiz-adv-x="765" 
d="M387 844q25 55 103 55q44 0 74 -17.5t30 -52.5q0 -23 -21 -49h-70q25 21 25 47q0 30 -38 30q-30 0 -44 -27zM455 705l-73 67l-71 -67h-78l92 108h114l94 -108h-78zM34 333q0 150 98.5 247.5t249.5 97.5q152 0 250.5 -97t98.5 -248t-98.5 -248t-250.5 -97
q-151 0 -249.5 97.5t-98.5 247.5zM585 333q0 95 -56 157t-147 62t-146.5 -62t-55.5 -157t55.5 -157t146.5 -62t147 62t56 157z" />
    <glyph glyph-name="uni1ED5" unicode="&#x1ed5;" horiz-adv-x="655" 
d="M333 792q12 35 39.5 54t63.5 19q44 0 74 -23t30 -70q0 -32 -21 -66h-70q25 29 25 63q0 40 -38 40q-30 0 -44 -36zM401 606l-73 89l-71 -89h-78l92 144h114l94 -144h-78zM32 275q0 125 82.5 206t212.5 81t212.5 -81t82.5 -206t-82.5 -206t-212.5 -81t-212.5 81t-82.5 206z
M488 275q0 74 -44.5 122.5t-116.5 48.5t-116.5 -48.5t-44.5 -122.5q0 -73 44.5 -122t116.5 -49t116.5 49t44.5 122z" />
    <glyph glyph-name="uni1ED6" unicode="&#x1ed6;" horiz-adv-x="765" 
d="M362 855q-24 20 -40 20q-36 0 -36 -46h-67q0 48 28 74t80 26q39 0 75 -30q25 -20 41 -20q36 0 36 46h67q0 -48 -27.5 -74t-79.5 -26q-41 0 -77 30zM455 705l-73 67l-71 -67h-78l92 108h114l94 -108h-78zM34 333q0 150 98.5 247.5t249.5 97.5q152 0 250.5 -97t98.5 -248
t-98.5 -248t-250.5 -97q-151 0 -249.5 97.5t-98.5 247.5zM585 333q0 95 -56 157t-147 62t-146.5 -62t-55.5 -157t55.5 -157t146.5 -62t147 62t56 157z" />
    <glyph glyph-name="uni1ED7" unicode="&#x1ed7;" horiz-adv-x="655" 
d="M307 807q-25 27 -40 27q-36 0 -36 -62h-67q0 64 28 99t80 35q38 0 75 -41q26 -26 41 -26q36 0 36 61h67q0 -64 -27.5 -99t-79.5 -35q-40 0 -77 41zM401 606l-73 89l-71 -89h-78l92 144h114l94 -144h-78zM32 275q0 125 82.5 206t212.5 81t212.5 -81t82.5 -206t-82.5 -206
t-212.5 -81t-212.5 81t-82.5 206zM488 275q0 74 -44.5 122.5t-116.5 48.5t-116.5 -48.5t-44.5 -122.5q0 -73 44.5 -122t116.5 -49t116.5 49t44.5 122z" />
    <glyph glyph-name="uni1ED8" unicode="&#x1ed8;" horiz-adv-x="765" 
d="M455 723l-73 89l-71 -89h-78l92 144h114l94 -144h-78zM34 333q0 150 98.5 247.5t249.5 97.5q152 0 250.5 -97t98.5 -248t-98.5 -248t-250.5 -97q-151 0 -249.5 97.5t-98.5 247.5zM585 333q0 95 -56 157t-147 62t-146.5 -62t-55.5 -157t55.5 -157t146.5 -62t147 62t56 157
zM314 -119q0 28 20 48t48 20t47.5 -20t19.5 -48t-19.5 -48t-47.5 -20t-48 20t-20 48z" />
    <glyph glyph-name="uni1ED9" unicode="&#x1ed9;" horiz-adv-x="655" 
d="M401 606l-73 89l-71 -89h-78l92 144h114l94 -144h-78zM32 275q0 125 82.5 206t212.5 81t212.5 -81t82.5 -206t-82.5 -206t-212.5 -81t-212.5 81t-82.5 206zM488 275q0 74 -44.5 122.5t-116.5 48.5t-116.5 -48.5t-44.5 -122.5q0 -73 44.5 -122t116.5 -49t116.5 49
t44.5 122zM259 -119q0 28 20 48t48 20t47.5 -20t19.5 -48t-19.5 -48t-47.5 -20t-48 20t-20 48z" />
    <glyph glyph-name="uni1EDA" unicode="&#x1eda;" horiz-adv-x="765" 
d="M585 867l-162 -144h-89l134 144h117zM742 666q0 -80 -70 -133q59 -88 59 -200q0 -151 -98.5 -248t-250.5 -97q-151 0 -249.5 97.5t-98.5 247.5t98.5 247.5t249.5 97.5q161 0 260 -107q36 29 44 63q-4 -2 -14 -2q-20 0 -34 14.5t-14 36.5q0 23 16 39.5t39 16.5
q26 0 44.5 -19.5t18.5 -53.5zM382 114q91 0 147 62t56 157t-56 157t-147 62t-146.5 -62t-55.5 -157t55.5 -157t146.5 -62z" />
    <glyph glyph-name="uni1EDB" unicode="&#x1edb;" horiz-adv-x="655" 
d="M530 750l-162 -144h-89l134 144h117zM652 549q0 -78 -66 -129q36 -63 36 -145q0 -125 -82.5 -206t-212.5 -81t-212.5 81t-82.5 206t82.5 206t212.5 81q148 0 232 -102q29 28 37 57q-6 -2 -14 -2q-21 0 -34.5 14.5t-13.5 36.5q0 23 16 39.5t39 16.5q26 0 44.5 -19.5
t18.5 -53.5zM327 104q72 0 116.5 49t44.5 122q0 74 -44.5 122.5t-116.5 48.5t-116.5 -48.5t-44.5 -122.5q0 -73 44.5 -122t116.5 -49z" />
    <glyph glyph-name="uni1EDC" unicode="&#x1edc;" horiz-adv-x="765" 
d="M427 723h-89l-162 144h117zM742 666q0 -80 -70 -133q59 -88 59 -200q0 -151 -98.5 -248t-250.5 -97q-151 0 -249.5 97.5t-98.5 247.5t98.5 247.5t249.5 97.5q161 0 260 -107q36 29 44 63q-4 -2 -14 -2q-20 0 -34 14.5t-14 36.5q0 23 16 39.5t39 16.5q26 0 44.5 -19.5
t18.5 -53.5zM382 114q91 0 147 62t56 157t-56 157t-147 62t-146.5 -62t-55.5 -157t55.5 -157t146.5 -62z" />
    <glyph glyph-name="uni1EDD" unicode="&#x1edd;" horiz-adv-x="655" 
d="M372 606h-89l-162 144h117zM652 549q0 -78 -66 -129q36 -63 36 -145q0 -125 -82.5 -206t-212.5 -81t-212.5 81t-82.5 206t82.5 206t212.5 81q148 0 232 -102q29 28 37 57q-6 -2 -14 -2q-21 0 -34.5 14.5t-13.5 36.5q0 23 16 39.5t39 16.5q26 0 44.5 -19.5t18.5 -53.5z
M327 104q72 0 116.5 49t44.5 122q0 74 -44.5 122.5t-116.5 48.5t-116.5 -48.5t-44.5 -122.5q0 -73 44.5 -122t116.5 -49z" />
    <glyph glyph-name="uni1EDE" unicode="&#x1ede;" horiz-adv-x="765" 
d="M374 827q-30 0 -44 -36l-59 19q12 35 39.5 54t63.5 19q44 0 74 -23t30 -70q0 -32 -21 -66h-70q25 29 25 63q0 40 -38 40zM742 666q0 -80 -70 -133q59 -88 59 -200q0 -151 -98.5 -248t-250.5 -97q-151 0 -249.5 97.5t-98.5 247.5t98.5 247.5t249.5 97.5q161 0 260 -107
q36 29 44 63q-4 -2 -14 -2q-20 0 -34 14.5t-14 36.5q0 23 16 39.5t39 16.5q26 0 44.5 -19.5t18.5 -53.5zM382 114q91 0 147 62t56 157t-56 157t-147 62t-146.5 -62t-55.5 -157t55.5 -157t146.5 -62z" />
    <glyph glyph-name="uni1EDF" unicode="&#x1edf;" horiz-adv-x="655" 
d="M320 710q-30 0 -44 -36l-59 19q12 35 39.5 54t63.5 19q44 0 74 -23t30 -70q0 -32 -21 -66h-70q25 29 25 63q0 40 -38 40zM652 549q0 -78 -66 -129q36 -63 36 -145q0 -125 -82.5 -206t-212.5 -81t-212.5 81t-82.5 206t82.5 206t212.5 81q148 0 232 -102q29 28 37 57
q-6 -2 -14 -2q-21 0 -34.5 14.5t-13.5 36.5q0 23 16 39.5t39 16.5q26 0 44.5 -19.5t18.5 -53.5zM327 104q72 0 116.5 49t44.5 122q0 74 -44.5 122.5t-116.5 48.5t-116.5 -48.5t-44.5 -122.5q0 -73 44.5 -122t116.5 -49z" />
    <glyph glyph-name="uni1EE0" unicode="&#x1ee0;" horiz-adv-x="765" 
d="M322 789q-36 0 -36 -62h-67q0 64 28 99t80 35q38 0 75 -41q26 -26 41 -26q36 0 36 61h67q0 -64 -27.5 -99t-79.5 -35q-40 0 -77 41q-25 27 -40 27zM742 666q0 -80 -70 -133q59 -88 59 -200q0 -151 -98.5 -248t-250.5 -97q-151 0 -249.5 97.5t-98.5 247.5t98.5 247.5
t249.5 97.5q161 0 260 -107q36 29 44 63q-4 -2 -14 -2q-20 0 -34 14.5t-14 36.5q0 23 16 39.5t39 16.5q26 0 44.5 -19.5t18.5 -53.5zM382 114q91 0 147 62t56 157t-56 157t-147 62t-146.5 -62t-55.5 -157t55.5 -157t146.5 -62z" />
    <glyph glyph-name="uni1EE1" unicode="&#x1ee1;" horiz-adv-x="655" 
d="M267 672q-36 0 -36 -62h-67q0 64 28 99t80 35q38 0 75 -41q26 -26 41 -26q36 0 36 61h67q0 -64 -27.5 -99t-79.5 -35q-40 0 -77 41q-25 27 -40 27zM652 549q0 -78 -66 -129q36 -63 36 -145q0 -125 -82.5 -206t-212.5 -81t-212.5 81t-82.5 206t82.5 206t212.5 81
q148 0 232 -102q29 28 37 57q-6 -2 -14 -2q-21 0 -34.5 14.5t-13.5 36.5q0 23 16 39.5t39 16.5q26 0 44.5 -19.5t18.5 -53.5zM327 104q72 0 116.5 49t44.5 122q0 74 -44.5 122.5t-116.5 48.5t-116.5 -48.5t-44.5 -122.5q0 -73 44.5 -122t116.5 -49z" />
    <glyph glyph-name="uni1EE2" unicode="&#x1ee2;" horiz-adv-x="765" 
d="M742 666q0 -80 -70 -133q59 -88 59 -200q0 -151 -98.5 -248t-250.5 -97q-151 0 -249.5 97.5t-98.5 247.5t98.5 247.5t249.5 97.5q161 0 260 -107q36 29 44 63q-4 -2 -14 -2q-20 0 -34 14.5t-14 36.5q0 23 16 39.5t39 16.5q26 0 44.5 -19.5t18.5 -53.5zM382 114
q91 0 147 62t56 157t-56 157t-147 62t-146.5 -62t-55.5 -157t55.5 -157t146.5 -62zM382 -51q28 0 47.5 -20t19.5 -48t-19.5 -48t-47.5 -20t-48 20t-20 48t20 48t48 20z" />
    <glyph glyph-name="uni1EE3" unicode="&#x1ee3;" horiz-adv-x="655" 
d="M327 603q-28 0 -48 20t-20 48t20 48t48 20t47.5 -20t19.5 -48t-19.5 -48t-47.5 -20zM652 549q0 -78 -66 -129q36 -63 36 -145q0 -125 -82.5 -206t-212.5 -81t-212.5 81t-82.5 206t82.5 206t212.5 81q148 0 232 -102q29 28 37 57q-6 -2 -14 -2q-21 0 -34.5 14.5
t-13.5 36.5q0 23 16 39.5t39 16.5q26 0 44.5 -19.5t18.5 -53.5zM327 104q72 0 116.5 49t44.5 122q0 74 -44.5 122.5t-116.5 48.5t-116.5 -48.5t-44.5 -122.5q0 -73 44.5 -122t116.5 -49z" />
    <glyph glyph-name="uni1EE4" unicode="&#x1ee4;" horiz-adv-x="728" 
d="M66 266v401h144v-396q0 -72 39.5 -114.5t115.5 -42.5q74 0 113.5 42.5t39.5 114.5v396h144v-400q0 -129 -75 -204t-222 -75q-148 0 -223.5 75t-75.5 203zM297 -119q0 28 20 48t48 20t47.5 -20t19.5 -48t-19.5 -48t-47.5 -20t-48 20t-20 48z" />
    <glyph glyph-name="uni1EE5" unicode="&#x1ee5;" horiz-adv-x="646" 
d="M63 218v332h133v-321q0 -57 33.5 -91t93.5 -34t93.5 34t33.5 91v321h133v-331q0 -106 -66 -168.5t-194 -62.5t-194 62t-66 168zM255 -119q0 28 20 48t48 20t47.5 -20t19.5 -48t-19.5 -48t-47.5 -20t-48 20t-20 48z" />
    <glyph glyph-name="uni1EE6" unicode="&#x1ee6;" horiz-adv-x="728" 
d="M254 810q12 35 39.5 54t63.5 19q44 0 74 -23t30 -70q0 -32 -21 -66h-70q25 29 25 63q0 40 -38 40q-30 0 -44 -36zM66 266v401h144v-396q0 -72 39.5 -114.5t115.5 -42.5q74 0 113.5 42.5t39.5 114.5v396h144v-400q0 -129 -75 -204t-222 -75q-148 0 -223.5 75t-75.5 203z
" />
    <glyph glyph-name="uni1EE7" unicode="&#x1ee7;" horiz-adv-x="646" 
d="M213 693q12 35 39.5 54t63.5 19q44 0 74 -23t30 -70q0 -32 -21 -66h-70q25 29 25 63q0 40 -38 40q-30 0 -44 -36zM63 218v332h133v-321q0 -57 33.5 -91t93.5 -34t93.5 34t33.5 91v321h133v-331q0 -106 -66 -168.5t-194 -62.5t-194 62t-66 168z" />
    <glyph glyph-name="uni1EE8" unicode="&#x1ee8;" horiz-adv-x="728" 
d="M568 867l-162 -144h-89l134 144h117zM772 726q0 -45 -29 -88t-81 -67v-304q0 -129 -75 -204t-222 -75q-148 0 -223.5 75t-75.5 203v401h144v-396q0 -72 39.5 -114.5t115.5 -42.5q74 0 113.5 42.5t39.5 114.5v396h144v-43q46 30 54 72q-4 -3 -14 -3q-21 0 -34.5 14.5
t-13.5 37.5t16 39t39 16q26 0 44.5 -20t18.5 -54z" />
    <glyph glyph-name="uni1EE9" unicode="&#x1ee9;" horiz-adv-x="646" 
d="M526 750l-162 -144h-89l134 144h117zM685 613q0 -44 -26.5 -85.5t-75.5 -66.5v-242q0 -106 -66 -168.5t-194 -62.5t-194 62t-66 168v332h133v-321q0 -57 33.5 -91t93.5 -34t93.5 34t33.5 91v321h133v-33q39 29 45 65q-3 -3 -13 -3q-21 0 -35 14.5t-14 36.5q0 23 16.5 40
t38.5 17q27 0 45.5 -20t18.5 -54z" />
    <glyph glyph-name="uni1EEA" unicode="&#x1eea;" horiz-adv-x="728" 
d="M410 723h-89l-162 144h117zM772 726q0 -45 -29 -88t-81 -67v-304q0 -129 -75 -204t-222 -75q-148 0 -223.5 75t-75.5 203v401h144v-396q0 -72 39.5 -114.5t115.5 -42.5q74 0 113.5 42.5t39.5 114.5v396h144v-43q46 30 54 72q-4 -3 -14 -3q-21 0 -34.5 14.5t-13.5 37.5
t16 39t39 16q26 0 44.5 -20t18.5 -54z" />
    <glyph glyph-name="uni1EEB" unicode="&#x1eeb;" horiz-adv-x="646" 
d="M368 606h-89l-162 144h117zM685 613q0 -44 -26.5 -85.5t-75.5 -66.5v-242q0 -106 -66 -168.5t-194 -62.5t-194 62t-66 168v332h133v-321q0 -57 33.5 -91t93.5 -34t93.5 34t33.5 91v321h133v-33q39 29 45 65q-3 -3 -13 -3q-21 0 -35 14.5t-14 36.5q0 23 16.5 40t38.5 17
q27 0 45.5 -20t18.5 -54z" />
    <glyph glyph-name="uni1EEC" unicode="&#x1eec;" horiz-adv-x="728" 
d="M357 827q-30 0 -44 -36l-59 19q12 35 39.5 54t63.5 19q44 0 74 -23t30 -70q0 -32 -21 -66h-70q25 29 25 63q0 40 -38 40zM772 726q0 -45 -29 -88t-81 -67v-304q0 -129 -75 -204t-222 -75q-148 0 -223.5 75t-75.5 203v401h144v-396q0 -72 39.5 -114.5t115.5 -42.5
q74 0 113.5 42.5t39.5 114.5v396h144v-43q46 30 54 72q-4 -3 -14 -3q-21 0 -34.5 14.5t-13.5 37.5t16 39t39 16q26 0 44.5 -20t18.5 -54z" />
    <glyph glyph-name="uni1EED" unicode="&#x1eed;" horiz-adv-x="646" 
d="M316 710q-30 0 -44 -36l-59 19q12 35 39.5 54t63.5 19q44 0 74 -23t30 -70q0 -32 -21 -66h-70q25 29 25 63q0 40 -38 40zM685 613q0 -44 -26.5 -85.5t-75.5 -66.5v-242q0 -106 -66 -168.5t-194 -62.5t-194 62t-66 168v332h133v-321q0 -57 33.5 -91t93.5 -34t93.5 34
t33.5 91v321h133v-33q39 29 45 65q-3 -3 -13 -3q-21 0 -35 14.5t-14 36.5q0 23 16.5 40t38.5 17q27 0 45.5 -20t18.5 -54z" />
    <glyph glyph-name="uni1EEE" unicode="&#x1eee;" horiz-adv-x="728" 
d="M305 789q-36 0 -36 -62h-67q0 64 28 99t80 35q38 0 75 -41q26 -26 41 -26q36 0 36 61h67q0 -64 -27.5 -99t-79.5 -35q-40 0 -77 41q-25 27 -40 27zM772 726q0 -45 -29 -88t-81 -67v-304q0 -129 -75 -204t-222 -75q-148 0 -223.5 75t-75.5 203v401h144v-396
q0 -72 39.5 -114.5t115.5 -42.5q74 0 113.5 42.5t39.5 114.5v396h144v-43q46 30 54 72q-4 -3 -14 -3q-21 0 -34.5 14.5t-13.5 37.5t16 39t39 16q26 0 44.5 -20t18.5 -54z" />
    <glyph glyph-name="uni1EEF" unicode="&#x1eef;" horiz-adv-x="646" 
d="M263 672q-36 0 -36 -62h-67q0 64 28 99t80 35q38 0 75 -41q26 -26 41 -26q36 0 36 61h67q0 -64 -27.5 -99t-79.5 -35q-40 0 -77 41q-25 27 -40 27zM685 613q0 -44 -26.5 -85.5t-75.5 -66.5v-242q0 -106 -66 -168.5t-194 -62.5t-194 62t-66 168v332h133v-321
q0 -57 33.5 -91t93.5 -34t93.5 34t33.5 91v321h133v-33q39 29 45 65q-3 -3 -13 -3q-21 0 -35 14.5t-14 36.5q0 23 16.5 40t38.5 17q27 0 45.5 -20t18.5 -54z" />
    <glyph glyph-name="uni1EF0" unicode="&#x1ef0;" horiz-adv-x="728" 
d="M772 726q0 -45 -29 -88t-81 -67v-304q0 -129 -75 -204t-222 -75q-148 0 -223.5 75t-75.5 203v401h144v-396q0 -72 39.5 -114.5t115.5 -42.5q74 0 113.5 42.5t39.5 114.5v396h144v-43q46 30 54 72q-4 -3 -14 -3q-21 0 -34.5 14.5t-13.5 37.5t16 39t39 16q26 0 44.5 -20
t18.5 -54zM365 -51q28 0 47.5 -20t19.5 -48t-19.5 -48t-47.5 -20t-48 20t-20 48t20 48t48 20z" />
    <glyph glyph-name="uni1EF1" unicode="&#x1ef1;" horiz-adv-x="646" 
d="M685 613q0 -44 -26.5 -85.5t-75.5 -66.5v-242q0 -106 -66 -168.5t-194 -62.5t-194 62t-66 168v332h133v-321q0 -57 33.5 -91t93.5 -34t93.5 34t33.5 91v321h133v-33q39 29 45 65q-3 -3 -13 -3q-21 0 -35 14.5t-14 36.5q0 23 16.5 40t38.5 17q27 0 45.5 -20t18.5 -54z
M323 -51q28 0 47.5 -20t19.5 -48t-19.5 -48t-47.5 -20t-48 20t-20 48t20 48t48 20z" />
    <glyph glyph-name="Ygrave" unicode="&#x1ef2;" horiz-adv-x="645" 
d="M279 723l-162 144h117l134 -144h-89zM252 0v273l-257 394h162l166 -268l164 268h162l-255 -394v-273h-142z" />
    <glyph glyph-name="ygrave" unicode="&#x1ef3;" horiz-adv-x="565" 
d="M238 606l-162 144h117l134 -144h-89zM218 0v226l-223 324h149l140 -213l137 213h149l-221 -324v-226h-131z" />
    <glyph glyph-name="uni1EF4" unicode="&#x1ef4;" horiz-adv-x="645" 
d="M252 0v273l-257 394h162l166 -268l164 268h162l-255 -394v-273h-142zM255 -119q0 28 20 48t48 20t47.5 -20t19.5 -48t-19.5 -48t-47.5 -20t-48 20t-20 48z" />
    <glyph glyph-name="uni1EF5" unicode="&#x1ef5;" horiz-adv-x="565" 
d="M218 0v226l-223 324h149l140 -213l137 213h149l-221 -324v-226h-131zM214 -119q0 28 20 48t48 20t47.5 -20t19.5 -48t-19.5 -48t-47.5 -20t-48 20t-20 48z" />
    <glyph glyph-name="uni1EF6" unicode="&#x1ef6;" horiz-adv-x="645" 
d="M213 810q12 35 39.5 54t63.5 19q44 0 74 -23t30 -70q0 -32 -21 -66h-70q25 29 25 63q0 40 -38 40q-30 0 -44 -36zM252 0v273l-257 394h162l166 -268l164 268h162l-255 -394v-273h-142z" />
    <glyph glyph-name="uni1EF7" unicode="&#x1ef7;" horiz-adv-x="565" 
d="M172 693q12 35 39.5 54t63.5 19q44 0 74 -23t30 -70q0 -32 -21 -66h-70q25 29 25 63q0 40 -38 40q-30 0 -44 -36zM218 0v226l-223 324h149l140 -213l137 213h149l-221 -324v-226h-131z" />
    <glyph glyph-name="uni1EF8" unicode="&#x1ef8;" horiz-adv-x="645" 
d="M303 762q-25 27 -40 27q-36 0 -36 -62h-67q0 64 28 99t80 35q38 0 75 -41q26 -26 41 -26q36 0 36 61h67q0 -64 -27.5 -99t-79.5 -35q-40 0 -77 41zM252 0v273l-257 394h162l166 -268l164 268h162l-255 -394v-273h-142z" />
    <glyph glyph-name="uni1EF9" unicode="&#x1ef9;" horiz-adv-x="565" 
d="M262 645q-25 27 -40 27q-36 0 -36 -62h-67q0 64 28 99t80 35q38 0 75 -41q26 -26 41 -26q36 0 36 61h67q0 -64 -27.5 -99t-79.5 -35q-40 0 -77 41zM218 0v226l-223 324h149l140 -213l137 213h149l-221 -324v-226h-131z" />
    <glyph glyph-name="uni2009" unicode="&#x2009;" horiz-adv-x="125" 
 />
    <glyph glyph-name="endash" unicode="&#x2013;" horiz-adv-x="593" 
d="M30 188v108h533v-108h-533z" />
    <glyph glyph-name="emdash" unicode="&#x2014;" horiz-adv-x="833" 
d="M30 188v108h773v-108h-773z" />
    <glyph glyph-name="uni2015" unicode="&#x2015;" horiz-adv-x="593" 
d="M30 188v108h533v-108h-533z" />
    <glyph glyph-name="quoteleft" unicode="&#x2018;" horiz-adv-x="255" 
d="M142 677l55 -44q-25 -13 -48 -41t-30 -54q5 3 20 3q29 0 48.5 -20t19.5 -52t-23.5 -55.5t-55.5 -23.5q-37 0 -63.5 27.5t-26.5 74.5q0 55 28 103.5t76 81.5z" />
    <glyph glyph-name="quoteright" unicode="&#x2019;" horiz-adv-x="255" 
d="M112 389l-55 45q25 13 48 41t29 54q-6 -4 -19 -4q-29 0 -48.5 20.5t-19.5 51.5q0 33 23 56.5t55 23.5q37 0 63.5 -27.5t26.5 -74.5q0 -55 -28 -103.5t-75 -82.5z" />
    <glyph glyph-name="quotesinglbase" unicode="&#x201a;" horiz-adv-x="256" 
d="M112 -137l-55 45q25 13 48 40.5t29 53.5q-9 -3 -19 -3q-29 0 -48.5 20t-19.5 52q0 33 23 56.5t55 23.5q37 0 63.5 -27.5t26.5 -74.5q0 -55 -28 -103.5t-75 -82.5z" />
    <glyph glyph-name="quotereversed" unicode="&#x201b;" horiz-adv-x="255" 
d="M130 677q32 0 55.5 -23.5t23.5 -56.5q0 -31 -20 -51.5t-49 -20.5q-13 0 -19 4q7 -26 29.5 -54t47.5 -41l-54 -45q-48 34 -76 82.5t-28 103.5q0 47 26.5 74.5t63.5 27.5z" />
    <glyph glyph-name="quotedblleft" unicode="&#x201c;" horiz-adv-x="459" 
d="M143 677l55 -44q-25 -13 -48 -41t-30 -54q4 3 20 3q29 0 48.5 -20t19.5 -52t-23.5 -55.5t-55.5 -23.5q-37 0 -63 27.5t-26 74.5q0 55 27.5 103.5t75.5 81.5zM346 677l56 -44q-25 -13 -48.5 -41t-29.5 -54q4 3 20 3q28 0 47.5 -20t19.5 -52t-23 -55.5t-56 -23.5
q-37 0 -62.5 27.5t-25.5 74.5q0 55 27.5 103.5t74.5 81.5z" />
    <glyph glyph-name="quotedblright" unicode="&#x201d;" horiz-adv-x="459" 
d="M112 389l-55 45q25 13 48 41t29 54q-6 -4 -19 -4q-29 0 -48.5 20.5t-19.5 51.5q0 33 23 56.5t55 23.5q37 0 63.5 -27.5t26.5 -74.5q0 -55 -28 -103.5t-75 -82.5zM315 389l-55 45q25 13 48 41t30 54q-8 -4 -20 -4q-29 0 -48.5 20.5t-19.5 51.5q0 33 23.5 56.5t55.5 23.5
q37 0 63 -27.5t26 -74.5q0 -55 -27.5 -103.5t-75.5 -82.5z" />
    <glyph glyph-name="quotedblbase" unicode="&#x201e;" horiz-adv-x="459" 
d="M112 -137l-55 45q25 13 48 40.5t29 53.5q-9 -3 -19 -3q-29 0 -48.5 20t-19.5 52q0 33 23 56.5t55 23.5q37 0 63.5 -27.5t26.5 -74.5q0 -55 -28 -103.5t-75 -82.5zM315 -137l-55 45q25 13 48 40.5t30 53.5q-12 -3 -20 -3q-29 0 -48.5 20t-19.5 52q0 33 23.5 56.5
t55.5 23.5q37 0 63 -27.5t26 -74.5q0 -55 -27.5 -103.5t-75.5 -82.5z" />
    <glyph glyph-name="dagger" unicode="&#x2020;" horiz-adv-x="277" 
d="M168 526l4 -199h-68l5 199l-89 -4v62l89 -3l-5 96h68l-4 -96l89 3v-62z" />
    <glyph glyph-name="daggerdbl" unicode="&#x2021;" horiz-adv-x="277" 
d="M257 522l-89 4v-194l89 4v-62l-89 3l4 -97h-68l4 97l-88 -3v62l88 -4v194l-88 -4v62l88 -3l-4 96h68l-4 -96l89 3v-62z" />
    <glyph glyph-name="bullet" unicode="&#x2022;" horiz-adv-x="358" 
d="M180 124q-49 0 -84 34.5t-35 83.5q0 50 34.5 84.5t84.5 34.5t84.5 -34.5t34.5 -84.5q0 -49 -35 -83.5t-84 -34.5z" />
    <glyph glyph-name="ellipsis" unicode="&#x2026;" horiz-adv-x="768" 
d="M127 -10q-33 0 -56.5 24t-23.5 56q0 33 23.5 57t56.5 24t57 -24t24 -57q0 -32 -24 -56t-57 -24zM383 -10q-33 0 -56.5 24t-23.5 56q0 33 23.5 57t56.5 24t57 -24t24 -57q0 -32 -24 -56t-57 -24zM639 -10q-33 0 -56.5 24t-23.5 56q0 33 23.5 57t56.5 24t57 -24t24 -57
q0 -32 -24 -56t-57 -24z" />
    <glyph glyph-name="perthousand" unicode="&#x2030;" horiz-adv-x="905" 
d="M159 286q-60 0 -97.5 39t-37.5 98t37.5 99t97.5 40t98 -40t38 -99t-37.5 -98t-98.5 -39zM151 0h-71l382 550h72zM159 496q-25 0 -41.5 -20t-16.5 -53q0 -32 16.5 -51.5t41.5 -19.5q26 0 43 19.5t17 51.5q0 33 -17 53t-43 20zM453 -10q-60 0 -97.5 39t-37.5 98t37.5 99
t97.5 40q61 0 98.5 -39.5t37.5 -99.5q0 -59 -37.5 -98t-98.5 -39zM745 -10q-60 0 -97.5 39.5t-37.5 97.5q0 59 37.5 99t97.5 40t97.5 -40t37.5 -99t-37.5 -98t-97.5 -39zM453 199q-26 0 -42.5 -19.5t-16.5 -52.5q0 -31 16.5 -51t42.5 -20t42.5 19.5t16.5 51.5
q0 33 -16.5 52.5t-42.5 19.5zM745 199q-26 0 -42.5 -19.5t-16.5 -52.5q0 -32 16.5 -51.5t42.5 -19.5t43 20t17 51q0 33 -16.5 52.5t-43.5 19.5z" />
    <glyph glyph-name="uni2032" unicode="&#x2032;" horiz-adv-x="238" 
d="M33 386q49 230 56 249q18 42 64 42q29 0 49 -20t20 -49q0 -15 -5 -25q-3 -8 -36 -62.5t-65 -104.5l-31 -51z" />
    <glyph glyph-name="uni2033" unicode="&#x2033;" horiz-adv-x="429" 
d="M33 386q49 230 56 249q18 42 64 42q29 0 49 -20t20 -49q0 -15 -5 -25q-3 -8 -36 -62.5t-65 -104.5l-31 -51zM224 386q48 230 56 249q7 19 25 30.5t39 11.5q28 0 48 -20t20 -49q0 -14 -4 -25l-133 -218z" />
    <glyph glyph-name="guilsinglleft" unicode="&#x2039;" horiz-adv-x="337" 
d="M190 63l-160 180l160 177h117l-160 -177l160 -180h-117z" />
    <glyph glyph-name="guilsinglright" unicode="&#x203a;" horiz-adv-x="337" 
d="M147 63h-117l160 180l-160 177h117l160 -177z" />
    <glyph glyph-name="uni203D" unicode="&#x203d;" horiz-adv-x="396" 
d="M198 561q82 0 133 -41t51 -99q0 -60 -39.5 -102t-89.5 -60l-5 -54h-103l-19 199h114l-4 -70q35 22 35 59q0 29 -24.5 46t-61.5 17q-75 0 -121 -53l-59 75q72 83 193 83zM196 151q33 0 57 -24t24 -57t-24 -57t-57 -24t-57 24t-24 57t24 57t57 24z" />
    <glyph glyph-name="uni203E" unicode="&#x203e;" horiz-adv-x="363" 
d="M14 562v72h335v-72h-335z" />
    <glyph glyph-name="fraction" unicode="&#x2044;" horiz-adv-x="159" 
d="M-96 0h-76l426 667h77z" />
    <glyph glyph-name="uni2070" unicode="&#x2070;" horiz-adv-x="397" 
d="M199 414q-84 0 -128.5 60.5t-44.5 146.5q0 85 44 145.5t129 60.5q83 0 127.5 -60.5t44.5 -145.5t-44.5 -146t-127.5 -61zM199 750q-76 0 -76 -129q0 -130 76 -130q75 0 75 130q0 129 -75 129z" />
    <glyph glyph-name="uni2074" unicode="&#x2074;" horiz-adv-x="397" 
d="M320 507v-86h-95v86h-196v65l157 249h134v-239h53v-75h-53zM225 740l-101 -158h101v158z" />
    <glyph glyph-name="uni2075" unicode="&#x2075;" horiz-adv-x="397" 
d="M195 414q-106 0 -161 61l52 63q41 -47 109 -47q34 0 53.5 17t19.5 42q0 27 -18.5 43.5t-51.5 16.5q-50 0 -85 -35l-67 22v224h290v-77h-194v-97q35 33 91 33q55 0 92.5 -33t37.5 -94q0 -62 -45.5 -100.5t-122.5 -38.5z" />
    <glyph glyph-name="uni2076" unicode="&#x2076;" horiz-adv-x="397" 
d="M210 414q-91 0 -136.5 57.5t-45.5 148.5q0 95 53 151t145 56q72 0 122 -39l-41 -68q-34 30 -81 30q-46 0 -74 -30.5t-28 -74.5v-9q41 50 103 50q59 0 100.5 -36t41.5 -97t-44.5 -100t-114.5 -39zM200 611q-45 0 -75 -35q3 -36 22.5 -60.5t57.5 -24.5q30 0 49 18t19 40
q0 31 -21.5 46.5t-51.5 15.5z" />
    <glyph glyph-name="uni2077" unicode="&#x2077;" horiz-adv-x="371" 
d="M193 421h-106l150 323h-211v77h315v-66z" />
    <glyph glyph-name="uni2078" unicode="&#x2078;" horiz-adv-x="397" 
d="M198 414q-71 0 -120 27t-49 84q0 35 27 63.5t68 38.5q-39 9 -63.5 33.5t-24.5 59.5q0 54 48 80.5t114 26.5q67 0 115 -26.5t48 -80.5q0 -34 -24.5 -59t-62.5 -34q40 -10 67 -38.5t27 -63.5q0 -57 -49 -84t-121 -27zM198 753q-30 0 -48.5 -12t-18.5 -34q0 -37 67 -50
q68 12 68 50q0 22 -18.5 34t-49.5 12zM198 593q-22 -3 -48 -17.5t-26 -40.5q0 -23 20.5 -35.5t53.5 -12.5t54 12.5t21 35.5q0 26 -26.5 41t-48.5 17z" />
    <glyph glyph-name="uni2079" unicode="&#x2079;" horiz-adv-x="397" 
d="M188 827q91 0 136 -57.5t45 -149.5q0 -94 -52.5 -150t-143.5 -56q-74 0 -123 39l42 68q31 -30 81 -30q44 0 72 30t28 75v9q-39 -50 -102 -50q-59 0 -101 35.5t-42 97.5q0 60 44.5 99.5t115.5 39.5zM197 629q48 0 75 37q-2 35 -21 59.5t-57 24.5q-31 0 -50 -17.5
t-19 -40.5q0 -31 21.5 -47t50.5 -16z" />
    <glyph glyph-name="uni207D" unicode="&#x207d;" horiz-adv-x="192" 
d="M125 356q-46 45 -74 118.5t-28 146.5t28 146t74 119l57 -23q-61 -115 -61 -242q0 -129 61 -242z" />
    <glyph glyph-name="uni207E" unicode="&#x207e;" horiz-adv-x="192" 
d="M73 356l-57 23q61 113 61 242t-61 242l57 23q46 -46 74 -119t28 -146t-28 -146.5t-74 -118.5z" />
    <glyph glyph-name="uni207F" unicode="&#x207f;" horiz-adv-x="412" 
d="M269 326v186q0 58 -57 58q-42 0 -69 -33v-211h-93v314h93v-40q42 48 112 48q55 0 80.5 -28.5t25.5 -75.5v-218h-92z" />
    <glyph glyph-name="uni2080" unicode="&#x2080;" horiz-adv-x="397" 
d="M199 -153q-84 0 -128.5 60.5t-44.5 146.5q0 85 44 145.5t129 60.5q83 0 127.5 -60.5t44.5 -145.5t-44.5 -146t-127.5 -61zM199 183q-76 0 -76 -129q0 -130 76 -130q75 0 75 130q0 129 -75 129z" />
    <glyph glyph-name="uni2081" unicode="&#x2081;" horiz-adv-x="286" 
d="M129 -146v277l-68 -69l-54 58l136 134h83v-400h-97z" />
    <glyph glyph-name="uni2082" unicode="&#x2082;" horiz-adv-x="397" 
d="M46 -146v70q131 92 173.5 131.5t42.5 72.5q0 27 -19 41t-49 14q-33 0 -63 -15t-46 -35l-50 61q59 66 161 66q71 0 116 -33t45 -92q0 -47 -40.5 -93.5t-131.5 -110.5h175v-77h-314z" />
    <glyph glyph-name="uni2083" unicode="&#x2083;" horiz-adv-x="397" 
d="M197 -153q-111 0 -165 63l47 63q46 -49 114 -49q35 0 54.5 13t19.5 34q0 49 -88 49q-39 0 -45 -1v76q9 -1 44 -1q82 0 82 45q0 44 -73 44q-61 0 -105 -44l-45 57q59 64 160 64q75 0 117 -29.5t42 -79.5q0 -35 -26 -60t-63 -31q35 -3 65.5 -28.5t30.5 -66.5
q0 -53 -45.5 -85.5t-120.5 -32.5z" />
    <glyph glyph-name="uni2084" unicode="&#x2084;" horiz-adv-x="397" 
d="M320 -60v-86h-95v86h-196v65l157 249h134v-239h53v-75h-53zM225 173l-101 -158h101v158z" />
    <glyph glyph-name="uni2085" unicode="&#x2085;" horiz-adv-x="397" 
d="M195 -153q-106 0 -161 61l52 63q41 -47 109 -47q34 0 53.5 17t19.5 42q0 27 -18.5 43.5t-51.5 16.5q-50 0 -85 -35l-67 22v224h290v-77h-194v-97q35 33 91 33q55 0 92.5 -33t37.5 -94q0 -62 -45.5 -100.5t-122.5 -38.5z" />
    <glyph glyph-name="uni2086" unicode="&#x2086;" horiz-adv-x="397" 
d="M210 -153q-91 0 -136.5 57t-45.5 149q0 95 53 151t145 56q69 0 122 -39l-41 -68q-34 30 -81 30q-46 0 -74 -30.5t-28 -74.5v-9q41 50 103 50q59 0 100.5 -36t41.5 -97t-44.5 -100t-114.5 -39zM200 44q-45 0 -75 -35q3 -36 22.5 -60.5t57.5 -24.5q30 0 49 18t19 40
q0 31 -21.5 46.5t-51.5 15.5z" />
    <glyph glyph-name="uni2087" unicode="&#x2087;" horiz-adv-x="371" 
d="M193 -146h-106l150 323h-211v77h315v-66z" />
    <glyph glyph-name="uni2088" unicode="&#x2088;" horiz-adv-x="397" 
d="M198 -153q-71 0 -120 27t-49 84q0 35 27 63.5t68 38.5q-39 9 -63.5 33.5t-24.5 59.5q0 54 48 80.5t114 26.5q67 0 115 -26.5t48 -80.5q0 -35 -24.5 -59t-62.5 -34q40 -10 67 -38.5t27 -63.5q0 -57 -49 -84t-121 -27zM198 186q-30 0 -48.5 -12t-18.5 -34q0 -37 67 -50
q68 12 68 50q0 22 -18.5 34t-49.5 12zM198 26q-22 -3 -48 -17.5t-26 -40.5q0 -23 20.5 -35.5t53.5 -12.5t54 12.5t21 35.5q0 26 -26.5 41t-48.5 17z" />
    <glyph glyph-name="uni2089" unicode="&#x2089;" horiz-adv-x="397" 
d="M188 260q91 0 136 -57.5t45 -149.5q0 -94 -52.5 -150t-143.5 -56q-74 0 -123 39l42 68q31 -30 81 -30q44 0 72 30t28 75v9q-39 -50 -102 -50q-59 0 -101 35.5t-42 97.5q0 60 44.5 99.5t115.5 39.5zM197 62q48 0 75 37q-2 35 -21 59.5t-57 24.5q-31 0 -50 -17.5t-19 -40.5
q0 -31 21.5 -47t50.5 -16z" />
    <glyph glyph-name="uni208D" unicode="&#x208d;" horiz-adv-x="192" 
d="M125 -211q-46 45 -74 118.5t-28 146.5t28 146t74 119l57 -23q-61 -115 -61 -242q0 -129 61 -242z" />
    <glyph glyph-name="uni208E" unicode="&#x208e;" horiz-adv-x="192" 
d="M73 -211l-57 23q61 113 61 242t-61 242l57 23q46 -46 74 -119t28 -146t-28 -146.5t-74 -118.5z" />
    <glyph glyph-name="colonmonetary" unicode="&#x20a1;" horiz-adv-x="585" 
d="M346 105q37 4 67.5 24.5t45.5 50.5l110 -51q-33 -63 -93.5 -102t-144.5 -39q-16 0 -25 1l-14 -42h-57l17 50q-25 6 -47 15l-22 -65h-57l31 90q-59 38 -92 99.5t-33 138.5q0 126 85 206.5t214 80.5h4l13 37h57l-15 -43q24 -4 47 -14l19 57h58l-28 -83q51 -36 83 -94
l-110 -53q-7 13 -15 23zM399 429q-21 12 -47 15l-107 -317q21 -12 45 -18zM294 442q-57 -12 -92.5 -58t-35.5 -109q0 -61 35 -109z" />
    <glyph glyph-name="uni20A3" unicode="&#x20a3;" horiz-adv-x="580" 
d="M546 542h-329v-141h322v-125h-322v-94h154v-73h-154v-109h-143v109h-66v73h66v485h472v-125z" />
    <glyph glyph-name="lira" unicode="&#x20a4;" horiz-adv-x="550" 
d="M482 150l56 -113q-48 -50 -147 -50q-45 0 -108 26q-48 18 -73 18q-47 0 -116 -38l-48 97q109 53 109 125v1h-132v65h114q-7 13 -34 52h-80v66h39q-17 36 -17 71q0 91 74 149t169 58q169 0 232 -121l-113 -66q-13 32 -40.5 51.5t-61.5 19.5q-45 0 -75 -26t-30 -68
q0 -35 19 -68h174v-66h-134q15 -25 19 -52h115v-65h-117q-14 -51 -60 -77q21 7 50 7q30 0 70 -17q34 -15 60 -15q60 0 86 36z" />
    <glyph glyph-name="uni20A6" unicode="&#x20a6;" horiz-adv-x="747" 
d="M737 369h-66v-67h66v-72h-66v-230h-137l-163 230h-154v-230h-143v230h-66v72h66v67h-66v72h66v226h147l161 -226h147v226h142v-226h66v-72zM217 448v-7h5zM217 302h103l-47 67h-56v-67zM529 302v67h-95l47 -67h48z" />
    <glyph glyph-name="peseta" unicode="&#x20a7;" horiz-adv-x="677" 
d="M673 481v-75h-65q-12 -82 -70.5 -134.5t-151.5 -52.5h-169v-219h-143v406h-66v75h66v186h312q94 0 152 -52t70 -134h65zM217 542v-61h242q-11 29 -35 45t-57 16h-150zM367 344q33 0 57.5 16.5t34.5 45.5h-242v-62h150z" />
    <glyph glyph-name="uni20A8" unicode="&#x20a8;" horiz-adv-x="1107" 
d="M443 0l-131 239h-104v-239h-142v667h312q103 0 163.5 -60t60.5 -155q0 -82 -42.5 -133t-103.5 -65l150 -254h-163zM457 453q0 41 -28.5 66.5t-71.5 25.5h-149v-184h149q43 0 71.5 25.5t28.5 66.5zM651 63l55 89q28 -26 76 -46t91 -20q81 0 81 49q0 23 -24 35t-73 22
q-35 7 -53 11t-48.5 16t-46.5 26t-29 39.5t-13 58.5q0 64 53 108t145 44q112 0 195 -66l-51 -87q-23 24 -61.5 40t-81.5 16q-35 0 -55.5 -12t-20.5 -33t22.5 -31.5t69.5 -20.5q34 -7 53 -11.5t50 -16.5t47.5 -27t30 -42t13.5 -61q0 -69 -55.5 -112t-153.5 -43
q-63 0 -120.5 20t-95.5 55z" />
    <glyph glyph-name="uni20A9" unicode="&#x20a9;" horiz-adv-x="918" 
d="M917 667l-64 -226h53v-72h-74l-19 -66h93v-72h-114l-65 -231h-151l-59 231h-116l-58 -231h-151l-66 231h-113v72h92l-19 66h-73v72h52l-64 226h159l55 -226h129l60 226h111l59 -226h129l54 226h160zM463 441l-4 17l-4 -17h8zM232 369l16 -66h60l17 66h-93zM420 303h78
l-16 66h-46zM670 303l16 66h-93l17 -66h60zM266 231l11 -46l12 46h-23zM641 185l11 46h-23z" />
    <glyph glyph-name="uni20AA" unicode="&#x20aa;" horiz-adv-x="845" 
d="M583 331v-155h-120v144q0 62 -26 91t-88 29h-166v-440h-120v550h286q126 0 180 -55.5t54 -163.5zM261 0v373h121v-263h166q62 0 88 29t26 90v321h120v-331q0 -108 -53.5 -163.5t-180.5 -55.5h-287z" />
    <glyph glyph-name="dong" unicode="&#x20ab;" horiz-adv-x="588" 
d="M582 601v-73h-59v-528h-128v62q-59 -74 -149 -74q-94 0 -154 67.5t-60 185.5q0 116 60 185t154 69q92 0 149 -74v107h-145v73h145v66h128v-66h59zM395 156v171q-16 24 -47 39.5t-63 15.5q-54 0 -88 -39t-34 -102q0 -62 34 -101t88 -39q32 0 63 15.5t47 39.5zM124 -171v72
h363v-72h-363z" />
    <glyph glyph-name="Euro" unicode="&#x20ac;" horiz-adv-x="610" 
d="M357 104q41 0 75.5 21t51.5 55l110 -51q-33 -63 -93.5 -102t-143.5 -39q-107 0 -185 56t-104 149h-47v54h37q0 5 -0.5 14t-0.5 14q0 17 1 26h-37v55h46q26 94 104.5 150t185.5 56q83 0 143 -39t94 -101l-110 -53q-19 34 -52.5 55.5t-74.5 21.5q-50 0 -88.5 -24t-59.5 -66
h190v-55h-206q-2 -18 -2 -26q0 -10 2 -28h206v-54h-189q21 -41 59.5 -65t87.5 -24z" />
    <glyph glyph-name="uni20B9" unicode="&#x20b9;" horiz-adv-x="532" 
d="M513 667v-78h-158q47 -38 61 -97h97v-79h-94q-10 -65 -51 -106t-94 -53l151 -254h-164l-131 237h-107v114h153q76 0 99 62h-252v79h253q-22 61 -100 61h-153v114h490z" />
    <glyph glyph-name="uni20BA" unicode="&#x20ba;" horiz-adv-x="545" 
d="M416 278l122 -33q-26 -106 -112 -175.5t-202 -69.5h-144v192l-72 -41v90l72 42v73l-72 -41v90l72 41v221h142v-139l165 96v-91l-165 -95v-73l165 95v-90l-165 -96v-149h15q62 0 112.5 41t66.5 112z" />
    <glyph glyph-name="uni20BD" unicode="&#x20bd;" horiz-adv-x="624" 
d="M378 251h-170v-76h244v-78h-244v-97h-142v97h-59v78h59v76h-59v111h59v305h312q105 0 164.5 -60t59.5 -149q0 -88 -60 -147.5t-164 -59.5zM208 542v-180h151q43 0 70.5 24.5t27.5 65.5t-27.5 65.5t-70.5 24.5h-151z" />
    <glyph glyph-name="uni2113" unicode="&#x2113;" horiz-adv-x="526" 
d="M190 143q0 -24 12 -39t33 -15q25 0 43 15l27 -85q-32 -31 -105 -31q-64 0 -100.5 32t-36.5 100v367q0 82 64 136t165 54q86 0 147.5 -41t61.5 -104q0 -51 -40 -93t-112 -90l-159 -105v-101zM306 439q41 27 57.5 45.5t16.5 41.5q0 28 -27 45t-63 17q-45 0 -72.5 -27
t-27.5 -74v-125z" />
    <glyph glyph-name="uni2116" unicode="&#x2116;" horiz-adv-x="1134" 
d="M759 513q0 69 47.5 117t124.5 48q78 0 125.5 -48t47.5 -117t-47.5 -117t-125.5 -48q-77 0 -124.5 48t-47.5 117zM526 0l-318 448v-448h-142v667h146l309 -432v432h142v-667h-137zM1009 513q0 41 -20.5 65t-57.5 24q-36 0 -56.5 -23.5t-20.5 -65.5t20.5 -66.5t56.5 -24.5
t57 24.5t21 66.5z" />
    <glyph glyph-name="uni2117" unicode="&#x2117;" horiz-adv-x="778" 
d="M389 -12q-143 0 -244 101t-101 244t101 244t244 101t244 -101t101 -244t-101 -244t-244 -101zM389 642q-127 0 -218 -91t-91 -218t91 -218t218 -91t218 91t91 218t-91 218t-218 91zM428 297h-112v-167h-46v405h158q52 0 89 -33t37 -87q0 -52 -37 -85t-89 -33zM428 493
h-112v-155h112q33 0 56 21.5t23 55.5t-23 56t-56 22z" />
    <glyph glyph-name="uni2120" unicode="&#x2120;" horiz-adv-x="476" 
d="M101 439q-55 0 -86 36l18 21q28 -32 68 -32q54 0 54 39q0 13 -9.5 21.5t-20 12.5t-30.5 9q-19 5 -28 8.5t-22.5 10.5t-19.5 18t-6 27q0 28 22.5 45.5t57.5 17.5q55 0 82 -32l-18 -19q-23 27 -63 27q-21 0 -34.5 -10t-13.5 -26q0 -11 9 -18.5t18.5 -11t28.5 -8.5t29 -8.5
t24 -11.5t20.5 -20t6.5 -29q0 -31 -22.5 -49t-64.5 -18zM411 447v182l-75 -182h-8l-75 182v-182h-28v220h43l64 -160l64 160h43v-220h-28z" />
    <glyph glyph-name="trademark" unicode="&#x2122;" horiz-adv-x="454" 
d="M107 641v-194h-28v194h-62v26h152v-26h-62zM391 447v182l-75 -182h-8l-75 182v-182h-28v220h43l64 -160l64 160h43v-220h-28z" />
    <glyph glyph-name="uni2126" unicode="&#x2126;" horiz-adv-x="765" 
d="M171 125q-137 93 -137 241q0 141 98 226.5t250 85.5q153 0 251 -85.5t98 -226.5q0 -149 -136 -241h119v-125h-270v125q63 17 102 74.5t39 134.5q0 88 -52 152.5t-151 64.5t-150.5 -64.5t-51.5 -152.5q0 -77 39 -134.5t102 -74.5v-125h-269v125h119z" />
    <glyph glyph-name="estimated" unicode="&#x212e;" horiz-adv-x="842" 
d="M179 324q-5 0 -5 -5v-190q0 -14 9 -23q98 -103 240 -103q151 0 250 115h57q-54 -63 -135 -99.5t-174 -36.5q-161 0 -275.5 103t-114.5 248t114.5 248t275.5 103t275.5 -103t114.5 -248v-9h-632zM668 540q0 14 -10 24q-97 99 -235 99q-140 0 -239 -102q-10 -10 -10 -24
v-188q0 -6 5 -6h485q4 0 4 6v191z" />
    <glyph glyph-name="uni2153" unicode="&#x2153;" horiz-adv-x="860" 
d="M129 267v277l-68 -69l-54 58l136 134h83v-400h-97zM208 0h-76l426 667h77zM660 -7q-111 0 -165 63l47 63q46 -49 115 -49q35 0 54 13t19 34q0 49 -88 49q-39 0 -45 -1v76q9 -1 44 -1q82 0 82 45q0 44 -73 44q-61 0 -105 -44l-45 57q59 64 160 64q75 0 117 -29.5t42 -79.5
q0 -35 -26 -60t-63 -31q35 -3 65.5 -28.5t30.5 -66.5q0 -53 -45.5 -85.5t-120.5 -32.5z" />
    <glyph glyph-name="uni2154" unicode="&#x2154;" horiz-adv-x="953" 
d="M46 267v70q131 92 173.5 131.5t42.5 72.5q0 27 -19 41t-49 14q-33 0 -63 -15t-46 -35l-50 61q59 66 161 66q71 0 116 -33t45 -92q0 -47 -40.5 -93.5t-131.5 -110.5h175v-77h-314zM301 0h-76l426 667h77zM753 -7q-111 0 -165 63l47 63q46 -49 115 -49q35 0 54 13t19 34
q0 49 -88 49q-39 0 -45 -1v76q9 -1 44 -1q82 0 82 45q0 44 -73 44q-61 0 -105 -44l-45 57q59 64 160 64q75 0 117 -29.5t42 -79.5q0 -35 -26 -60t-63 -31q35 -3 65.5 -28.5t30.5 -66.5q0 -53 -45.5 -85.5t-120.5 -32.5z" />
    <glyph glyph-name="oneeighth" unicode="&#x215b;" horiz-adv-x="860" 
d="M129 267v277l-68 -69l-54 58l136 134h83v-400h-97zM208 0h-76l426 667h77zM661 -7q-71 0 -120 27t-49 84q0 35 27 63.5t68 38.5q-39 9 -63.5 33.5t-24.5 59.5q0 54 48 80.5t114 26.5q67 0 115 -26.5t48 -80.5q0 -35 -24.5 -59t-62.5 -34q40 -10 67 -38.5t27 -63.5
q0 -57 -49 -84t-121 -27zM661 332q-30 0 -48.5 -12t-18.5 -34q0 -37 67 -50q68 12 68 50q0 22 -18.5 34t-49.5 12zM661 172q-22 -3 -48 -17.5t-26 -40.5q0 -23 20.5 -35.5t53.5 -12.5t54 12.5t21 35.5q0 26 -26.5 41t-48.5 17z" />
    <glyph glyph-name="threeeighths" unicode="&#x215c;" horiz-adv-x="953" 
d="M197 260q-111 0 -165 63l47 63q46 -49 114 -49q35 0 54.5 13t19.5 34q0 49 -88 49q-39 0 -45 -1v76q9 -1 44 -1q82 0 82 45q0 44 -73 44q-61 0 -105 -44l-45 57q59 64 160 64q75 0 117 -29.5t42 -79.5q0 -35 -26 -60t-63 -31q35 -3 65.5 -28.5t30.5 -66.5
q0 -53 -45.5 -85.5t-120.5 -32.5zM301 0h-76l426 667h77zM754 -7q-71 0 -120 27t-49 84q0 35 27 63.5t68 38.5q-39 9 -63.5 33.5t-24.5 59.5q0 54 48 80.5t114 26.5q67 0 115 -26.5t48 -80.5q0 -35 -24.5 -59t-62.5 -34q40 -10 67 -38.5t27 -63.5q0 -57 -49 -84t-121 -27z
M754 332q-30 0 -48.5 -12t-18.5 -34q0 -37 67 -50q68 12 68 50q0 22 -18.5 34t-49.5 12zM754 172q-22 -3 -48 -17.5t-26 -40.5q0 -23 20.5 -35.5t53.5 -12.5t54 12.5t21 35.5q0 26 -26.5 41t-48.5 17z" />
    <glyph glyph-name="fiveeighths" unicode="&#x215d;" horiz-adv-x="953" 
d="M195 260q-106 0 -161 61l52 63q41 -47 109 -47q34 0 53.5 17t19.5 42q0 27 -18.5 43.5t-51.5 16.5q-50 0 -85 -35l-67 22v224h290v-77h-194v-97q35 33 91 33q55 0 92.5 -33t37.5 -94q0 -62 -45.5 -100.5t-122.5 -38.5zM301 0h-76l426 667h77zM754 -7q-71 0 -120 27
t-49 84q0 35 27 63.5t68 38.5q-39 9 -63.5 33.5t-24.5 59.5q0 54 48 80.5t114 26.5q67 0 115 -26.5t48 -80.5q0 -35 -24.5 -59t-62.5 -34q40 -10 67 -38.5t27 -63.5q0 -57 -49 -84t-121 -27zM754 332q-30 0 -48.5 -12t-18.5 -34q0 -37 67 -50q68 12 68 50q0 22 -18.5 34
t-49.5 12zM754 172q-22 -3 -48 -17.5t-26 -40.5q0 -23 20.5 -35.5t53.5 -12.5t54 12.5t21 35.5q0 26 -26.5 41t-48.5 17z" />
    <glyph glyph-name="seveneighths" unicode="&#x215e;" horiz-adv-x="877" 
d="M193 267h-106l150 323h-211v77h315v-66zM225 0h-76l426 667h77zM678 -7q-71 0 -120 27t-49 84q0 35 27 63.5t68 38.5q-39 9 -63.5 33.5t-24.5 59.5q0 54 48 80.5t114 26.5q67 0 115 -26.5t48 -80.5q0 -35 -24.5 -59t-62.5 -34q40 -10 67 -38.5t27 -63.5q0 -57 -49 -84
t-121 -27zM678 332q-30 0 -48.5 -12t-18.5 -34q0 -37 67 -50q68 12 68 50q0 22 -18.5 34t-49.5 12zM678 172q-22 -3 -48 -17.5t-26 -40.5q0 -23 20.5 -35.5t53.5 -12.5t54 12.5t21 35.5q0 26 -26.5 41t-48.5 17z" />
    <glyph glyph-name="arrowleft" unicode="&#x2190;" horiz-adv-x="582" 
d="M269 211l12 -130l-281 205l281 204l-12 -129h269v-150h-269z" />
    <glyph glyph-name="arrowup" unicode="&#x2191;" horiz-adv-x="582" 
d="M216 286l-130 -12l205 281l204 -281l-129 12v-269h-150v269z" />
    <glyph glyph-name="arrowright" unicode="&#x2192;" horiz-adv-x="582" 
d="M303 81l12 130h-268v150h268l-12 129l281 -204z" />
    <glyph glyph-name="arrowdown" unicode="&#x2193;" horiz-adv-x="582" 
d="M366 286l130 12l-205 -281l-204 281l129 -12v269h150v-269z" />
    <glyph glyph-name="partialdiff" unicode="&#x2202;" horiz-adv-x="574" 
d="M32 224q0 98 61.5 167t152.5 69q104 0 154 -79q-60 149 -220 232l102 71q106 -63 183.5 -178.5t77.5 -249.5q0 -121 -68.5 -194.5t-187.5 -73.5q-116 0 -185.5 68.5t-69.5 167.5zM411 224q0 53 -33 88t-91 35t-90.5 -34.5t-32.5 -88.5t32.5 -88.5t90.5 -34.5t91 35t33 88
z" />
    <glyph glyph-name="uni2206" unicode="&#x2206;" horiz-adv-x="684" 
d="M-5 0l258 667h178l257 -667h-693zM342 525l-146 -400h292z" />
    <glyph glyph-name="product" unicode="&#x220f;" horiz-adv-x="788" 
d="M516 -90v632h-244v-632h-143v632h-104v125h738v-125h-104v-632h-143z" />
    <glyph glyph-name="summation" unicode="&#x2211;" horiz-adv-x="586" 
d="M217 35h323v-125h-495v125l203 260l-202 247v125h494v-125h-316l199 -246z" />
    <glyph glyph-name="minus" unicode="&#x2212;" horiz-adv-x="504" 
d="M29 298v79h446v-79h-446z" />
    <glyph glyph-name="uni2215" unicode="&#x2215;" horiz-adv-x="159" 
d="M-96 0h-76l426 667h77z" />
    <glyph glyph-name="uni2219" unicode="&#x2219;" horiz-adv-x="256" 
d="M128 164q-33 0 -57 24t-24 56q0 33 24 57t57 24t57 -24t24 -57q0 -32 -24 -56t-57 -24z" />
    <glyph glyph-name="radical" unicode="&#x221a;" horiz-adv-x="682" 
d="M320 0l-112 302l-131 -47l-25 75l211 73l101 -276l198 540h95l-253 -667h-84z" />
    <glyph glyph-name="infinity" unicode="&#x221e;" horiz-adv-x="690" 
d="M29 335q0 72 42 124.5t124 52.5q49 0 88.5 -28t61.5 -72q22 44 61.5 72t87.5 28q83 0 125 -52.5t42 -124.5t-42 -124.5t-125 -52.5q-48 0 -87.5 28t-61.5 72q-22 -44 -61.5 -72t-88.5 -28q-82 0 -124 53t-42 124zM309 335q-15 43 -41 71t-61 28q-42 0 -68 -27t-26 -72
q0 -44 26.5 -71.5t67.5 -27.5q35 0 61 28t41 71zM576 335q0 45 -25.5 72t-66.5 27q-35 0 -61.5 -28t-41.5 -71q15 -43 41.5 -70.5t61.5 -27.5q41 0 66.5 26.5t25.5 71.5z" />
    <glyph glyph-name="integral" unicode="&#x222b;" horiz-adv-x="373" 
d="M17 -100v85h61q26 0 44.5 21t18.5 54v548q0 72 45.5 116t108.5 44h61v-85h-61q-26 0 -44 -20.5t-18 -53.5v-550q0 -71 -46 -115t-109 -44h-61z" />
    <glyph glyph-name="approxequal" unicode="&#x2248;" horiz-adv-x="504" 
d="M29 469q49 -30 112 -30q45 0 101 25q64 27 121 27q59 0 112 -23v-86q-50 30 -112 30q-48 0 -102 -25q-60 -26 -120 -26q-63 0 -112 22v86zM29 286q49 -30 112 -30q43 0 101 24q62 28 121 28q64 0 112 -24v-85q-50 30 -112 30q-46 0 -102 -24q-60 -28 -120 -28
q-62 0 -112 24v85z" />
    <glyph glyph-name="notequal" unicode="&#x2260;" horiz-adv-x="504" 
d="M61 93l68 108h-100v78h150l70 109h-220v80h270l68 106h77l-68 -106h99v-80h-149l-71 -109h220v-78h-270l-68 -108h-76z" />
    <glyph glyph-name="lessequal" unicode="&#x2264;" horiz-adv-x="504" 
d="M29 308v92l446 200v-95l-355 -151l355 -151v-93zM29 0v78h446v-78h-446z" />
    <glyph glyph-name="greaterequal" unicode="&#x2265;" horiz-adv-x="504" 
d="M28 110v93l356 151l-356 151v95l446 -200v-92zM28 0v78h447v-78h-447z" />
    <glyph glyph-name="uni22B2" unicode="&#x22b2;" horiz-adv-x="587" 
d="M54 -23v618l535 -309z" />
    <glyph glyph-name="uni22B3" unicode="&#x22b3;" horiz-adv-x="587" 
d="M535 -23l-535 309l535 309v-618z" />
    <glyph glyph-name="dotmath" unicode="&#x22c5;" horiz-adv-x="256" 
d="M128 164q-33 0 -57 24t-24 56q0 33 24 57t57 24t57 -24t24 -57q0 -32 -24 -56t-57 -24z" />
    <glyph glyph-name="uni2318" unicode="&#x2318;" horiz-adv-x="667" 
d="M514 42q-46 0 -79 33t-33 79v66h-137v-66q0 -46 -33 -79t-79 -33t-78.5 33t-32.5 79t32.5 78.5t78.5 32.5h66v137h-65q-46 0 -79 33t-33 79t33 78.5t79 32.5t78.5 -32.5t32.5 -78.5v-67h137v67q0 46 33 78.5t79 32.5t78.5 -32.5t32.5 -78.5t-32.5 -79t-78.5 -33h-66v-137
h66q46 0 78.5 -32.5t32.5 -78.5t-32.5 -79t-78.5 -33zM219 514q0 27 -19 46.5t-46 19.5q-28 0 -47.5 -19.5t-19.5 -46.5q0 -28 19.5 -47.5t47.5 -19.5h65v67zM514 580q-28 0 -47 -19.5t-19 -46.5v-67h66q27 0 46 19.5t19 47.5q0 27 -19 46.5t-46 19.5zM402 265v137h-137
v-137h137zM219 220h-67q-27 0 -46 -19.5t-19 -46.5q0 -28 19 -47.5t47 -19.5q27 0 46.5 19.5t19.5 47.5v66zM514 220h-66v-66q0 -28 19 -47.5t47 -19.5q27 0 46 19.5t19 47.5q0 27 -19 46.5t-46 19.5z" />
    <glyph glyph-name="filledbox" unicode="&#x25a0;" horiz-adv-x="661" 
d="M47 0v572h571v-572h-571z" />
    <glyph glyph-name="triagup" unicode="&#x25b2;" horiz-adv-x="616" 
d="M-2 30l309 535l310 -536z" />
    <glyph glyph-name="triagdn" unicode="&#x25bc;" horiz-adv-x="616" 
d="M307 -25l-309 535h619z" />
    <glyph glyph-name="lozenge" unicode="&#x25ca;" horiz-adv-x="375" 
d="M177 0l-158 334l158 333h21l158 -333l-158 -334h-21zM320 334l-133 292l-132 -292l133 -293z" />
    <glyph glyph-name="uni25CF" unicode="&#x25cf;" horiz-adv-x="695" 
d="M347 -12q-123 0 -210 87t-87 210t87 210t210 87t210 -87t87 -210t-87 -210t-210 -87z" />
    <glyph glyph-name="uni2605" unicode="&#x2605;" horiz-adv-x="759" 
d="M524 250l90 -275l-235 170l-234 -170l89 275l-234 171h290l89 276l90 -276h290z" />
    <glyph glyph-name="uni2610" unicode="&#x2610;" horiz-adv-x="661" 
d="M45 0v572h571v-572h-571zM530 493h-399v-415h399v415z" />
    <glyph glyph-name="uni2611" unicode="&#x2611;" horiz-adv-x="661" 
d="M691 698l-75 -138v-560h-571v572h487l91 167zM530 78v322l-168 -309l-202 246l61 57l129 -155l139 254h-358v-415h399z" />
    <glyph glyph-name="diamond" unicode="&#x2666;" horiz-adv-x="501" 
d="M250 35l-250 250l250 251l251 -251z" />
    <glyph glyph-name="uni2713" unicode="&#x2713;" horiz-adv-x="531" 
d="M202 91l-202 246l61 57l129 -155l273 500l68 -41z" />
    <glyph glyph-name="uni2E18" unicode="&#x2e18;" horiz-adv-x="396" 
d="M200 399q-33 0 -57 24t-24 57t24 57t57 24t57 -24t24 -57t-24 -57t-57 -24zM332 147l59 -76q-73 -82 -193 -82q-82 0 -133 40.5t-51 99.5q0 60 39.5 102t89.5 60l5 54h103l19 -199h-115l4 69q-34 -23 -34 -58q0 -29 24.5 -46t61.5 -17q75 0 121 53z" />
    <glyph glyph-name="uniF637" unicode="&#xf637;" horiz-adv-x="411" 
d="M268 326v188q0 56 -57 56q-42 0 -69 -33v-211h-92v434h92v-160q42 48 112 48q53 0 80 -27t27 -76v-219h-93z" />
    <glyph glyph-name="uniF6C3" unicode="&#xf6c3;" horiz-adv-x="0" 
d="M-141 -288l-44 35q21 12 40 35t23 44q-4 -2 -15 -2q-23 0 -38 15.5t-15 40.5q0 26 18 44.5t43 18.5q29 0 50 -22t21 -59q0 -91 -83 -150z" />
    <glyph glyph-name="R_p" unicode="&#xf6dd;" horiz-adv-x="1228" 
d="M443 0l-131 239h-104v-239h-142v667h312q103 0 163.5 -60t60.5 -155q0 -82 -42.5 -133t-103.5 -65l150 -254h-163zM457 453q0 41 -28.5 66.5t-71.5 25.5h-149v-184h149q43 0 71.5 25.5t28.5 66.5zM833 -184h-127v667h127v-61q57 73 149 73q95 0 154.5 -67.5t59.5 -185.5
t-59.5 -186t-154.5 -68q-91 0 -149 74v-246zM1064 242q0 62 -33.5 101t-88.5 39q-31 0 -62 -16t-47 -39v-171q16 -23 47.5 -39t61.5 -16q55 0 88.5 39t33.5 102z" />
    <glyph glyph-name="uniF6DF" unicode="&#xf6df;" horiz-adv-x="312" 
d="M213 -24q17 8 30 28l59 -47q-31 -43 -89 -52v-56h-62v55q-58 9 -94 50t-36 100t36 100t94 50v44h62v-45q58 -10 89 -53l-59 -47q-13 20 -30 27v-154zM109 54q0 -57 42 -77v153q-42 -20 -42 -76z" />
    <glyph glyph-name="uniF6E0" unicode="&#xf6e0;" horiz-adv-x="312" 
d="M213 544q18 9 30 27l59 -47q-31 -43 -89 -52v-56h-62v55q-58 9 -94 50t-36 100t36 100t94 50v44h62v-45q58 -11 89 -53l-59 -47q-13 20 -30 28v-154zM109 621q0 -55 42 -77v153q-42 -22 -42 -76z" />
    <glyph glyph-name="uniF6E1" unicode="&#xf6e1;" horiz-adv-x="157" 
d="M67 -228l-37 30q14 6 30.5 22.5t18.5 29.5h-3l-2 -1q-19 0 -34.5 14.5t-15.5 35.5q0 22 15.5 37.5t37.5 15.5q23 0 38 -17.5t15 -44.5q0 -77 -63 -122z" />
    <glyph glyph-name="uniF6E2" unicode="&#xf6e2;" horiz-adv-x="157" 
d="M67 339l-37 30q14 6 30.5 22.5t18.5 29.5q-1 0 -3 -1h-2q-19 0 -34.5 15t-15.5 35q0 22 15.5 37.5t37.5 15.5q23 0 38 -17.5t15 -44.5q0 -77 -63 -122z" />
    <glyph glyph-name="uniF6E3" unicode="&#xf6e3;" horiz-adv-x="383" 
d="M366 -26q0 -52 -36 -85t-102 -40v-55h-62v54q-97 7 -149 64l53 62q42 -42 96 -52v94q-31 7 -51.5 14t-43.5 20.5t-35 36t-12 53.5q0 45 38.5 79.5t103.5 39.5v56h62v-58q84 -10 123 -56l-53 -55q-30 28 -70 38v-87q30 -7 50.5 -14t42.5 -20.5t33.5 -36t11.5 -52.5z
M123 149q0 -24 43 -37v75q-43 -8 -43 -38zM228 -77q39 11 39 39q0 26 -39 39v-78z" />
    <glyph glyph-name="uniF6E4" unicode="&#xf6e4;" horiz-adv-x="383" 
d="M366 541q0 -52 -35.5 -85t-102.5 -40v-55h-62v54q-97 7 -149 64l53 62q44 -42 96 -52v94q-32 7 -51.5 14t-43.5 20.5t-35.5 36t-11.5 53.5q0 45 38.5 79.5t103.5 39.5v56h62v-58q84 -10 123 -56l-53 -55q-31 29 -70 39v-88q30 -7 50.5 -14t42.5 -20.5t33.5 -36
t11.5 -52.5zM123 716q0 -24 43 -37v76q-43 -10 -43 -39zM228 490q39 11 39 39q0 25 -39 39v-78z" />
    <glyph glyph-name="uniF6E5" unicode="&#xf6e5;" horiz-adv-x="183" 
d="M18 17v71h147v-71h-147z" />
    <glyph glyph-name="uniF6E6" unicode="&#xf6e6;" horiz-adv-x="183" 
d="M18 584v71h147v-71h-147z" />
    <glyph glyph-name="uniF6E7" unicode="&#xf6e7;" horiz-adv-x="158" 
d="M79 -149q-21 0 -37 15.5t-16 36.5q0 22 16 37.5t37 15.5q22 0 37.5 -15.5t15.5 -37.5q0 -21 -15.5 -36.5t-37.5 -15.5z" />
    <glyph glyph-name="uniF6E8" unicode="&#xf6e8;" horiz-adv-x="158" 
d="M79 418q-21 0 -37 15.5t-16 36.5q0 22 16 37.5t37 15.5q22 0 37.5 -15.5t15.5 -37.5q0 -21 -15.5 -36.5t-37.5 -15.5z" />
    <glyph glyph-name="uniF6E9" unicode="&#xf6e9;" horiz-adv-x="385" 
d="M243 326v32q-36 -40 -102 -40q-44 0 -77 27.5t-33 76.5q0 48 33 74.5t77 26.5q68 0 102 -38v40q0 25 -19 39.5t-50 14.5q-53 0 -92 -41l-35 60q59 50 143 50q63 0 104 -29t41 -96v-197h-92zM243 404v36q-21 27 -64 27q-24 0 -40.5 -12t-16.5 -33q0 -22 16.5 -34.5
t40.5 -12.5q43 0 64 29z" />
    </font>
</defs>
</svg>
